<?xml version="1.0" encoding="us-ascii" standalone="no"?><svg xmlns="http://www.w3.org/2000/svg" xmlns:xlink="http://www.w3.org/1999/xlink" contentStyleType="text/css" height="821px" preserveAspectRatio="none" style="width:3956px;height:821px;background:#FFFFFF;" version="1.1" viewBox="0 0 3956 821" width="3956px" zoomAndPan="magnify"><defs/><g><g id="NoAuth"><rect fill="#F1F1F1" height="50" rx="12.5" ry="12.5" style="stroke:#181818;stroke-width:0.5;" width="145" x="87" y="359.3564"/><line style="stroke:#181818;stroke-width:0.5;" x1="87" x2="232" y1="386.9658" y2="386.9658"/><text fill="#000000" font-family="sans-serif" font-size="14" lengthAdjust="spacing" textLength="125" x="97" y="378.8896">SESION_CERRADA</text></g><g id="Menu"><rect fill="#F1F1F1" height="50" rx="12.5" ry="12.5" style="stroke:#181818;stroke-width:0.5;" width="167" x="590" y="359.3564"/><line style="stroke:#181818;stroke-width:0.5;" x1="590" x2="757" y1="386.9658" y2="386.9658"/><text fill="#000000" font-family="sans-serif" font-size="14" lengthAdjust="spacing" textLength="147" x="600" y="378.8896">SISTEMA_DISPONIBLE</text></g><g id="GenerarCalendario"><rect fill="#F1F1F1" height="50" rx="12.5" ry="12.5" style="stroke:#181818;stroke-width:0.5;" width="183" x="1163.5" y="711.3564"/><line style="stroke:#181818;stroke-width:0.5;" x1="1163.5" x2="1346.5" y1="738.9658" y2="738.9658"/><text fill="#000000" font-family="sans-serif" font-size="14" lengthAdjust="spacing" textLength="163" x="1173.5" y="730.8896">GENERAR_CALENDARIO</text></g><g id="GenerandoExamenes"><rect fill="#F1F1F1" height="50" rx="12.5" ry="12.5" style="stroke:#181818;stroke-width:0.5;" width="188" x="1764.5" y="654.3564"/><line style="stroke:#181818;stroke-width:0.5;" x1="1764.5" x2="1952.5" y1="681.9658" y2="681.9658"/><text fill="#000000" font-family="sans-serif" font-size="14" lengthAdjust="spacing" textLength="168" x="1774.5" y="673.8896">GENERANDO_EXAMENES</text></g><g id="CalendarioGenerado"><rect fill="#F1F1F1" height="50" rx="12.5" ry="12.5" style="stroke:#181818;stroke-width:0.5;" width="194" x="2278" y="583.3564"/><line style="stroke:#181818;stroke-width:0.5;" x1="2278" x2="2472" y1="610.9658" y2="610.9658"/><text fill="#000000" font-family="sans-serif" font-size="14" lengthAdjust="spacing" textLength="174" x="2288" y="602.8896">CALENDARIO_GENERADO</text></g><g id="RevisarCalendario"><rect fill="#F1F1F1" height="50" rx="12.5" ry="12.5" style="stroke:#181818;stroke-width:0.5;" width="175" x="2822" y="525.3564"/><line style="stroke:#181818;stroke-width:0.5;" x1="2822" x2="2997" y1="552.9658" y2="552.9658"/><text fill="#000000" font-family="sans-serif" font-size="14" lengthAdjust="spacing" textLength="155" x="2832" y="544.8896">REVISAR_CALENDARIO</text></g><g id="ConsultarCalendario"><rect fill="#F1F1F1" height="50" rx="12.5" ry="12.5" style="stroke:#181818;stroke-width:0.5;" width="200" x="1155" y="88.3564"/><line style="stroke:#181818;stroke-width:0.5;" x1="1155" x2="1355" y1="115.9658" y2="115.9658"/><text fill="#000000" font-family="sans-serif" font-size="14" lengthAdjust="spacing" textLength="180" x="1165" y="107.8896">CONSULTAR_CALENDARIO</text></g><g id="ExportarCalendario"><rect fill="#F1F1F1" height="50" rx="12.5" ry="12.5" style="stroke:#181818;stroke-width:0.5;" width="191" x="1159.5" y="175.3564"/><line style="stroke:#181818;stroke-width:0.5;" x1="1159.5" x2="1350.5" y1="202.9658" y2="202.9658"/><text fill="#000000" font-family="sans-serif" font-size="14" lengthAdjust="spacing" textLength="171" x="1169.5" y="194.8896">EXPORTAR_CALENDARIO</text></g><g id="VerIncidencias"><rect fill="#F1F1F1" height="50" rx="12.5" ry="12.5" style="stroke:#181818;stroke-width:0.5;" width="140" x="1185" y="288.3564"/><line style="stroke:#181818;stroke-width:0.5;" x1="1185" x2="1325" y1="315.9658" y2="315.9658"/><text fill="#000000" font-family="sans-serif" font-size="14" lengthAdjust="spacing" textLength="120" x="1195" y="307.8896">VER_INCIDENCIAS</text></g><g id="ImportarDatos"><rect fill="#F1F1F1" height="50" rx="12.5" ry="12.5" style="stroke:#181818;stroke-width:0.5;" width="148" x="1181" y="390.3564"/><line style="stroke:#181818;stroke-width:0.5;" x1="1181" x2="1329" y1="417.9658" y2="417.9658"/><text fill="#000000" font-family="sans-serif" font-size="14" lengthAdjust="spacing" textLength="128" x="1191" y="409.8896">IMPORTAR_DATOS</text></g><g id="AsignacionExamenes"><rect fill="#F1F1F1" height="50" rx="12.5" ry="12.5" style="stroke:#181818;stroke-width:0.5;" width="184" x="3336" y="525.3564"/><line style="stroke:#181818;stroke-width:0.5;" x1="3336" x2="3520" y1="552.9658" y2="552.9658"/><text fill="#000000" font-family="sans-serif" font-size="14" lengthAdjust="spacing" textLength="164" x="3346" y="544.8896">ASIGNACION_EXAMENES</text></g><g id="PublicarCalendario"><rect fill="#F1F1F1" height="50" rx="12.5" ry="12.5" style="stroke:#181818;stroke-width:0.5;" width="183" x="3766" y="760.3564"/><line style="stroke:#181818;stroke-width:0.5;" x1="3766" x2="3949" y1="787.9658" y2="787.9658"/><text fill="#000000" font-family="sans-serif" font-size="14" lengthAdjust="spacing" textLength="163" x="3776" y="779.8896">PUBLICAR_CALENDARIO</text></g><g id="DescargarCalendario"><rect fill="#F1F1F1" height="50" rx="12.5" ry="12.5" style="stroke:#181818;stroke-width:0.5;" width="203" x="1757" y="87.3564"/><line style="stroke:#181818;stroke-width:0.5;" x1="1757" x2="1960" y1="114.9658" y2="114.9658"/><text fill="#000000" font-family="sans-serif" font-size="14" lengthAdjust="spacing" textLength="183" x="1767" y="106.8896">DESCARGAR_CALENDARIO</text></g><ellipse cx="16" cy="384.3564" fill="#222222" rx="10" ry="10" style="stroke:#222222;stroke-width:1.0;"/><!--link *start* to NoAuth--><g id="link_*start*_NoAuth"><path d="M26.28,384.3564 C38.95,384.3564 56.83,384.3564 80.84,384.3564 " fill="none" id="*start*-to-NoAuth" style="stroke:#181818;stroke-width:1.0;"/><polygon fill="#181818" points="86.84,384.3564,77.84,380.3564,81.84,384.3564,77.84,388.3564,86.84,384.3564" style="stroke:#181818;stroke-width:1.0;"/></g><!--link NoAuth to Menu--><g id="link_NoAuth_Menu"><path d="M232.23,384.3564 C326.22,384.3564 484.69,384.3564 583.81,384.3564 " fill="none" id="NoAuth-to-Menu" style="stroke:#181818;stroke-width:1.0;"/><polygon fill="#181818" points="589.81,384.3564,580.81,380.3564,584.81,384.3564,580.81,388.3564,589.81,384.3564" style="stroke:#181818;stroke-width:1.0;"/><text fill="#000000" font-family="sans-serif" font-size="13" lengthAdjust="spacing" textLength="296" x="263" y="380.8516">[USUARIO, PROFESOR, ALUMNO] iniciarSesion()</text></g><!--link Menu to NoAuth--><g id="link_Menu_NoAuth"><path d="M589.85,403.4564 C572.84,407.3864 560,410.3564 560,410.3564 C560,410.3564 262,410.3564 262,410.3564 C262,410.3564 254.7024,408.485 237.9124,404.185 " fill="none" id="Menu-to-NoAuth" style="stroke:#181818;stroke-width:1.0;"/><polygon fill="#181818" points="232.1,402.6964,239.8262,408.8043,236.9437,403.9369,241.811,401.0544,232.1,402.6964" style="stroke:#181818;stroke-width:1.0;"/><text fill="#000000" font-family="sans-serif" font-size="13" lengthAdjust="spacing" textLength="138" x="342" y="406.8516">[TODOS] cerrarSesion()</text></g><!--link Menu to ImportarDatos--><g id="link_Menu_ImportarDatos"><path d="M705.84,409.4264 C739.13,436.0564 787,474.3564 787,474.3564 C787,474.3564 1125,474.3564 1125,474.3564 C1125,474.3564 1158.6736,458.9519 1193.8336,442.8719 " fill="none" id="Menu-to-ImportarDatos" style="stroke:#181818;stroke-width:1.0;"/><polygon fill="#181818" points="1199.29,440.3764,1189.4417,440.482,1194.743,442.456,1192.769,447.7572,1199.29,440.3764" style="stroke:#181818;stroke-width:1.0;"/><text fill="#000000" font-family="sans-serif" font-size="13" lengthAdjust="spacing" textLength="159" x="876.5" y="470.8516">[USUARIO] importarDatos()</text></g><!--link ImportarDatos to Menu--><g id="link_ImportarDatos_Menu"><path d="M1180.83,415.9264 C1151.72,416.1464 1125,416.3564 1125,416.3564 C1125,416.3564 787,416.3564 787,416.3564 C787,416.3564 779.9309,414.3485 762.9209,409.5085 " fill="none" id="ImportarDatos-to-Menu" style="stroke:#181818;stroke-width:1.0;"/><polygon fill="#181818" points="757.15,407.8664,764.7117,414.1768,761.9591,409.2348,766.9011,406.4822,757.15,407.8664" style="stroke:#181818;stroke-width:1.0;"/><text fill="#000000" font-family="sans-serif" font-size="13" lengthAdjust="spacing" textLength="202" x="855" y="412.8516">[USUARIO] completarImportacion()</text></g><!--link Menu to GenerarCalendario--><g id="link_Menu_GenerarCalendario"><path d="M683.9,409.5064 C710.94,481.8464 787,685.3564 787,685.3564 C787,685.3564 1021.6355,710.9851 1157.4355,725.8151 " fill="none" id="Menu-to-GenerarCalendario" style="stroke:#181818;stroke-width:1.0;"/><polygon fill="#181818" points="1163.4,726.4664,1154.8874,721.5131,1158.4296,725.9236,1154.019,729.4658,1163.4,726.4664" style="stroke:#181818;stroke-width:1.0;"/><text fill="#000000" font-family="sans-serif" font-size="13" lengthAdjust="spacing" textLength="182" x="865" y="681.8516">[USUARIO] generarCalendario()</text></g><!--link GenerarCalendario to GenerandoExamenes--><g id="link_GenerarCalendario_GenerandoExamenes"><path d="M1346.7,727.7564 C1459.27,717.0964 1644.2868,699.5627 1758.1068,688.7727 " fill="none" id="GenerarCalendario-to-GenerandoExamenes" style="stroke:#181818;stroke-width:1.0;"/><polygon fill="#181818" points="1764.08,688.2064,1754.7427,685.0737,1759.1023,688.6783,1755.4977,693.038,1764.08,688.2064" style="stroke:#181818;stroke-width:1.0;"/><text fill="#000000" font-family="sans-serif" font-size="13" lengthAdjust="spacing" textLength="219" x="1446.5" y="688.8516">[GENERADOR] procesarGeneracion()</text></g><!--link GenerandoExamenes to CalendarioGenerado--><g id="link_GenerandoExamenes_CalendarioGenerado"><path d="M1952.67,666.4964 C2044.61,653.8064 2178.6063,635.3167 2271.6463,622.4767 " fill="none" id="GenerandoExamenes-to-CalendarioGenerado" style="stroke:#181818;stroke-width:1.0;"/><polygon fill="#181818" points="2277.59,621.6564,2268.1277,618.9244,2272.6369,622.34,2269.2213,626.8493,2277.59,621.6564" style="stroke:#181818;stroke-width:1.0;"/><text fill="#000000" font-family="sans-serif" font-size="13" lengthAdjust="spacing" textLength="251" x="1991" y="623.8516">[GENERADOR] generarFechasExamenes()</text></g><!--link CalendarioGenerado to GenerandoExamenes--><g id="link_CalendarioGenerado_GenerandoExamenes"><path d="M2331.11,633.5664 C2292.9,656.0264 2243,685.3564 2243,685.3564 C2243,685.3564 1990,685.3564 1990,685.3564 C1990,685.3564 1979.6837,684.8821 1958.5937,683.9121 " fill="none" id="CalendarioGenerado-to-GenerandoExamenes" style="stroke:#181818;stroke-width:1.0;"/><polygon fill="#181818" points="1952.6,683.6364,1961.4067,688.0457,1957.5947,683.8662,1961.7743,680.0542,1952.6,683.6364" style="stroke:#181818;stroke-width:1.0;"/><text fill="#000000" font-family="sans-serif" font-size="13" lengthAdjust="spacing" textLength="185" x="2024" y="681.8516">[USUARIO] solicitarCorreccion()</text></g><!--link CalendarioGenerado to RevisarCalendario--><g id="link_CalendarioGenerado_RevisarCalendario"><path d="M2472.24,610.5564 C2492.04,611.0164 2507,611.3564 2507,611.3564 C2507,611.3564 2792,611.3564 2792,611.3564 C2792,611.3564 2823.0351,595.1106 2855.1251,578.3006 " fill="none" id="CalendarioGenerado-to-RevisarCalendario" style="stroke:#181818;stroke-width:1.0;"/><polygon fill="#181818" points="2860.44,575.5164,2850.6115,576.1494,2856.0109,577.8366,2854.3237,583.236,2860.44,575.5164" style="stroke:#181818;stroke-width:1.0;"/><text fill="#000000" font-family="sans-serif" font-size="13" lengthAdjust="spacing" textLength="263" x="2518" y="607.8516">[USUARIO, GENERADOR] revisarConflictos()</text></g><!--link RevisarCalendario to CalendarioGenerado--><g id="link_RevisarCalendario_CalendarioGenerado"><path d="M2821.87,558.7664 C2703.84,570.2364 2507,589.3564 2507,589.3564 C2507,589.3564 2497.9779,590.6657 2478.1779,593.5357 " fill="none" id="RevisarCalendario-to-CalendarioGenerado" style="stroke:#181818;stroke-width:1.0;"/><polygon fill="#181818" points="2472.24,594.3964,2481.7207,597.064,2477.1883,593.6792,2480.5731,589.1468,2472.24,594.3964" style="stroke:#181818;stroke-width:1.0;"/><text fill="#000000" font-family="sans-serif" font-size="13" lengthAdjust="spacing" textLength="283" x="2508" y="557.8516">[USUARIO, GENERADOR] aplicarCorrecciones()</text></g><!--link RevisarCalendario to AsignacionExamenes--><g id="link_RevisarCalendario_AsignacionExamenes"><path d="M2997.24,550.3564 C3091.06,550.3564 3233.98,550.3564 3329.58,550.3564 " fill="none" id="RevisarCalendario-to-AsignacionExamenes" style="stroke:#181818;stroke-width:1.0;"/><polygon fill="#181818" points="3335.58,550.3564,3326.58,546.3564,3330.58,550.3564,3326.58,554.3564,3335.58,550.3564" style="stroke:#181818;stroke-width:1.0;"/><text fill="#000000" font-family="sans-serif" font-size="13" lengthAdjust="spacing" textLength="277" x="3028" y="546.8516">[USUARIO, GENERADOR] finalizarAsignacion()</text></g><!--link AsignacionExamenes to PublicarCalendario--><g id="link_AsignacionExamenes_PublicarCalendario"><path d="M3474.75,575.5064 C3556.92,620.6764 3723.3318,712.1566 3805.5018,757.3166 " fill="none" id="AsignacionExamenes-to-PublicarCalendario" style="stroke:#181818;stroke-width:1.0;"/><polygon fill="#181818" points="3810.76,760.2064,3804.7993,752.3662,3806.3782,757.7982,3800.9461,759.3771,3810.76,760.2064" style="stroke:#181818;stroke-width:1.0;"/><text fill="#000000" font-family="sans-serif" font-size="13" lengthAdjust="spacing" textLength="184" x="3551" y="615.8516">[USUARIO] publicarCalendario()</text></g><!--link PublicarCalendario to Menu--><g id="link_PublicarCalendario_Menu"><path d="M3765.84,791.5064 C3640.35,800.0164 3429,814.3564 3429,814.3564 C1254,814.3564 1254,814.3564 1254,814.3564 C1254,814.3564 787,728.3564 787,728.3564 C787,728.3564 710.4351,494.2392 684.5451,415.0792 " fill="none" id="PublicarCalendario-to-Menu" style="stroke:#181818;stroke-width:1.0;"/><polygon fill="#181818" points="682.68,409.3764,681.6759,419.174,684.2343,414.1287,689.2795,416.6871,682.68,409.3764" style="stroke:#181818;stroke-width:1.0;"/><text fill="#000000" font-family="sans-serif" font-size="13" lengthAdjust="spacing" textLength="202" x="2274" y="810.8516">[USUARIO] completarPublicacion()</text></g><!--link AsignacionExamenes to Menu--><g id="link_AsignacionExamenes_Menu"><path d="M3402.44,525.3364 C3299.79,420.8064 2910.5,24.3564 2910.5,24.3564 C1254,24.3564 1254,24.3564 1254,24.3564 C1254,24.3564 787,81.3564 787,81.3564 C787,81.3564 712.8487,281.0817 685.8887,353.6817 " fill="none" id="AsignacionExamenes-to-Menu" style="stroke:#181818;stroke-width:1.0;"/><polygon fill="#181818" points="683.8,359.3064,690.6829,352.2619,685.5406,354.6192,683.1833,349.4769,683.8,359.3064" style="stroke:#181818;stroke-width:1.0;"/><text fill="#000000" font-family="sans-serif" font-size="13" lengthAdjust="spacing" textLength="199" x="2017" y="20.8516">[USUARIO] completarAsignacion()</text></g><!--link Menu to ConsultarCalendario--><g id="link_Menu_ConsultarCalendario"><path d="M688.29,359.3464 C718.34,304.8664 787,180.3564 787,180.3564 C787,180.3564 1011.9408,148.0887 1149.0208,128.4187 " fill="none" id="Menu-to-ConsultarCalendario" style="stroke:#181818;stroke-width:1.0;"/><polygon fill="#181818" points="1154.96,127.5664,1145.4831,124.8853,1150.0107,128.2766,1146.6194,132.8042,1154.96,127.5664" style="stroke:#181818;stroke-width:1.0;"/><text fill="#000000" font-family="sans-serif" font-size="13" lengthAdjust="spacing" textLength="336" x="788" y="129.8516">[USUARIO, PROFESOR, ALUMNO] consultarCalendario()</text></g><!--link ConsultarCalendario to Menu--><g id="link_ConsultarCalendario_Menu"><path d="M1154.92,108.7464 C1137.6,107.9464 1125,107.3564 1125,107.3564 C1125,107.3564 787,107.3564 787,107.3564 C787,107.3564 714.6274,285.5373 686.9374,353.7273 " fill="none" id="ConsultarCalendario-to-Menu" style="stroke:#181818;stroke-width:1.0;"/><polygon fill="#181818" points="684.68,359.2864,691.7722,352.4527,686.5612,354.6538,684.36,349.4428,684.68,359.2864" style="stroke:#181818;stroke-width:1.0;"/><text fill="#000000" font-family="sans-serif" font-size="13" lengthAdjust="spacing" textLength="173" x="869.5" y="103.8516">[TODOS] completarConsulta()</text></g><!--link Menu to ExportarCalendario--><g id="link_Menu_ExportarCalendario"><path d="M705.84,359.2864 C739.13,332.6564 787,294.3564 787,294.3564 C787,294.3564 1125,242.3564 1125,242.3564 C1125,242.3564 1143.7644,236.2429 1171.3944,227.2529 " fill="none" id="Menu-to-ExportarCalendario" style="stroke:#181818;stroke-width:1.0;"/><polygon fill="#181818" points="1177.1,225.3964,1167.304,224.3774,1172.3453,226.9435,1169.7792,231.9848,1177.1,225.3964" style="stroke:#181818;stroke-width:1.0;"/><text fill="#000000" font-family="sans-serif" font-size="13" lengthAdjust="spacing" textLength="186" x="863" y="238.8516">[USUARIO] exportarCalendario()</text></g><!--link ExportarCalendario to Menu--><g id="link_ExportarCalendario_Menu"><path d="M1159.5,204.4064 C1023.04,210.2464 787,220.3564 787,220.3564 C787,220.3564 726.7844,308.1389 695.2244,354.1389 " fill="none" id="ExportarCalendario-to-Menu" style="stroke:#181818;stroke-width:1.0;"/><polygon fill="#181818" points="691.83,359.0864,700.22,353.9281,694.6587,354.9635,693.6233,349.4022,691.83,359.0864" style="stroke:#181818;stroke-width:1.0;"/><text fill="#000000" font-family="sans-serif" font-size="13" lengthAdjust="spacing" textLength="295" x="808.5" y="202.8516">[USUARIO, GENERADOR] completarExportacion()</text></g><!--link ConsultarCalendario to DescargarCalendario--><g id="link_ConsultarCalendario_DescargarCalendario"><path d="M1345.59,138.3564 C1367.61,144.5064 1385,149.3564 1385,149.3564 C1385,149.3564 1727,149.3564 1727,149.3564 C1727,149.3564 1739.9677,145.6836 1763.2377,139.0836 " fill="none" id="ConsultarCalendario-to-DescargarCalendario" style="stroke:#181818;stroke-width:1.0;"/><polygon fill="#181818" points="1769.01,137.4464,1759.2601,136.054,1764.1997,138.8108,1761.443,143.7504,1769.01,137.4464" style="stroke:#181818;stroke-width:1.0;"/><text fill="#000000" font-family="sans-serif" font-size="13" lengthAdjust="spacing" textLength="340" x="1386" y="145.8516">[USUARIO, PROFESOR, ALUMNO] descargarCalendario()</text></g><!--link DescargarCalendario to ConsultarCalendario--><g id="link_DescargarCalendario_ConsultarCalendario"><path d="M1756.77,112.5264 C1645.17,112.7064 1472.36,112.9967 1361.33,113.1767 " fill="none" id="DescargarCalendario-to-ConsultarCalendario" style="stroke:#181818;stroke-width:1.0;"/><polygon fill="#181818" points="1355.33,113.1864,1364.3365,117.1718,1360.33,113.1783,1364.3235,109.1719,1355.33,113.1864" style="stroke:#181818;stroke-width:1.0;"/><text fill="#000000" font-family="sans-serif" font-size="13" lengthAdjust="spacing" textLength="156" x="1478" y="109.8516">[TODOS] volverAConsulta()</text></g><!--link Menu to VerIncidencias--><g id="link_Menu_VerIncidencias"><path d="M757.13,379.5864 C887.18,372.0864 1125,358.3564 1125,358.3564 C1125,358.3564 1148.6349,350.1129 1179.3049,339.4129 " fill="none" id="Menu-to-VerIncidencias" style="stroke:#181818;stroke-width:1.0;"/><polygon fill="#181818" points="1184.97,337.4364,1175.1547,336.6243,1180.2491,339.0835,1177.7899,344.1778,1184.97,337.4364" style="stroke:#181818;stroke-width:1.0;"/><text fill="#000000" font-family="sans-serif" font-size="13" lengthAdjust="spacing" textLength="218" x="847" y="354.8516">[PROFESOR] comunicarIncidencias()</text></g><!--link VerIncidencias to Menu--><g id="link_VerIncidencias_Menu"><path d="M1184.84,316.7664 C1054.84,323.1664 787,336.3564 787,336.3564 C787,336.3564 766.1282,345.2608 738.9082,356.8808 " fill="none" id="VerIncidencias-to-Menu" style="stroke:#181818;stroke-width:1.0;"/><polygon fill="#181818" points="733.39,359.2364,743.2378,359.3817,737.9885,357.2734,740.0969,352.0241,733.39,359.2364" style="stroke:#181818;stroke-width:1.0;"/><text fill="#000000" font-family="sans-serif" font-size="13" lengthAdjust="spacing" textLength="297" x="807.5" y="316.8516">[PROFESOR] completarComunicacionIncidencias()</text></g><!--link GenerandoExamenes to Menu--><g id="link_GenerandoExamenes_Menu"><path d="M1764.4,670.0864 C1743.31,667.9764 1727,666.3564 1727,666.3564 C1727,666.3564 787,596.3564 787,596.3564 C787,596.3564 720.4624,470.9665 690.6624,414.8065 " fill="none" id="GenerandoExamenes-to-Menu" style="stroke:#181818;stroke-width:1.0;"/><polygon fill="#181818" points="687.85,409.5064,688.5352,419.3314,690.1936,413.9232,695.6019,415.5816,687.85,409.5064" style="stroke:#181818;stroke-width:1.0;"/><text fill="#000000" font-family="sans-serif" font-size="13" lengthAdjust="spacing" textLength="193" x="1158.5" y="620.8516">[USUARIO] cancelarGeneracion()</text></g><!--link CalendarioGenerado to Menu--><g id="link_CalendarioGenerado_Menu"><path d="M2277.71,604.7164 C1933.87,591.7164 787,548.3564 787,548.3564 C787,548.3564 726.7844,460.574 695.2244,414.574 " fill="none" id="CalendarioGenerado-to-Menu" style="stroke:#181818;stroke-width:1.0;"/><polygon fill="#181818" points="691.83,409.6264,693.6233,419.3107,694.6587,413.7494,700.22,414.7848,691.83,409.6264" style="stroke:#181818;stroke-width:1.0;"/><text fill="#000000" font-family="sans-serif" font-size="13" lengthAdjust="spacing" textLength="175" x="1468.5" y="567.8516">[USUARIO] cancelarRevision()</text></g><!--link RevisarCalendario to Menu--><g id="link_RevisarCalendario_Menu"><path d="M2821.7,539.1764 C2804.69,536.9864 2792,535.3564 2792,535.3564 C2792,535.3564 787,482.3564 787,482.3564 C787,482.3564 741.3244,442.5672 707.9944,413.5372 " fill="none" id="RevisarCalendario-to-Menu" style="stroke:#181818;stroke-width:1.0;"/><polygon fill="#181818" points="703.47,409.5964,707.6295,418.5238,707.2404,412.8804,712.8838,412.4912,703.47,409.5964" style="stroke:#181818;stroke-width:1.0;"/><text fill="#000000" font-family="sans-serif" font-size="13" lengthAdjust="spacing" textLength="175" x="1771" y="504.8516">[USUARIO] cancelarRevisi&#243;n()</text></g><!--SRC=[XPLTRkCW58NVlGhKfvbHku5v68dQD49AxCWaLQKgigX3KpGEMDYfsjdMB64sDjZO3WISlkJFzpiSBeURYhsse9L0ySDR2_PSiRBbKaJDRovggkWHL5omzhDce9RLP_SbYfgMjWpS44HmbXOnodEOm1j06v1AU6hVfW9CDcW5YmIJTPRY-oNgYrPCd2QH1KfH3lCYXakK9Z37ML-pO88fgc9QCR6dYaktFaso0Zt1bVv2h7gnb-Y37lNdPgm_wnO6JSm2PsM3xgSLSlI8YUyeP- -y2JcAivHibnkVYALeJbKROj3JEii32FgefGeIZoWlS1hZ1EaNQ3Rzo1GM9Typ_KAd7UFLe9t0JMOAyT789hILKnqaU972k3j2fvMmuGT1Ivs2orwkj_TB7FkkrwUNYfSXrmaYkdxX8mbhD71mcEZvnmxStVqQKnIPz_wdBZFW9tZUacsdSGlMUVQ0I9RV0hZShj9i1xZWkWsAi4PR__Ozwf6pN4TliYGZEr0ofKA5JflEYsbf-u5DU36rgSFbGqr6pXgXhMbxybXNJDSCjQMn6NcBMHQiv6kfCUdv3jHAbapdrfGDKXxJA_bNmfKQzlF0oZVQZAHMyxbUphimzl5Picgea-9LfyWqs6Dd388PJLgRG4gb1rgtQJQlwkTzJlML2rhnFrITaUvS0WAThdyhd5EklSTQAy1SZyW0V65bddTtCkKwCBgkNxxI1-nxuiyrsmtpddPc0XvwhS3e-68ox7r2Bn3IcTcxDJlUPVNE51oBhXaTkpvEdR7d5klt9Jpjh11ECWFhdPtxhw1LneRqx4bq-R8ADEiIZWE77UqRaMvXLsTk4lZZnZxzHke4yzQ-hRCZoWyo5IMhBiRRZ8rPk9yB1WsFY2_8Vtyxz3y0]--></g></svg>