<?xml version="1.0" encoding="us-ascii" standalone="no"?><svg xmlns="http://www.w3.org/2000/svg" xmlns:xlink="http://www.w3.org/1999/xlink" contentStyleType="text/css" height="821px" preserveAspectRatio="none" style="width:2907px;height:821px;background:#FFFFFF;" version="1.1" viewBox="0 0 2907 821" width="2907px" zoomAndPan="magnify"><defs/><g><g id="NoAuth"><rect fill="#F1F1F1" height="50" rx="12.5" ry="12.5" style="stroke:#181818;stroke-width:0.5;" width="145" x="87" y="359.3564"/><line style="stroke:#181818;stroke-width:0.5;" x1="87" x2="232" y1="386.9658" y2="386.9658"/><text fill="#000000" font-family="sans-serif" font-size="14" lengthAdjust="spacing" textLength="125" x="97" y="378.8896">SESION_CERRADA</text></g><g id="Menu"><rect fill="#F1F1F1" height="50" rx="12.5" ry="12.5" style="stroke:#181818;stroke-width:0.5;" width="167" x="376" y="359.3564"/><line style="stroke:#181818;stroke-width:0.5;" x1="376" x2="543" y1="386.9658" y2="386.9658"/><text fill="#000000" font-family="sans-serif" font-size="14" lengthAdjust="spacing" textLength="147" x="386" y="378.8896">SISTEMA_DISPONIBLE</text></g><g id="GenerarCalendario"><rect fill="#F1F1F1" height="50" rx="12.5" ry="12.5" style="stroke:#181818;stroke-width:0.5;" width="183" x="825.5" y="711.3564"/><line style="stroke:#181818;stroke-width:0.5;" x1="825.5" x2="1008.5" y1="738.9658" y2="738.9658"/><text fill="#000000" font-family="sans-serif" font-size="14" lengthAdjust="spacing" textLength="163" x="835.5" y="730.8896">GENERAR_CALENDARIO</text></g><g id="GenerandoExamenes"><rect fill="#F1F1F1" height="50" rx="12.5" ry="12.5" style="stroke:#181818;stroke-width:0.5;" width="188" x="1212.5" y="654.3564"/><line style="stroke:#181818;stroke-width:0.5;" x1="1212.5" x2="1400.5" y1="681.9658" y2="681.9658"/><text fill="#000000" font-family="sans-serif" font-size="14" lengthAdjust="spacing" textLength="168" x="1222.5" y="673.8896">GENERANDO_EXAMENES</text></g><g id="CalendarioGenerado"><rect fill="#F1F1F1" height="50" rx="12.5" ry="12.5" style="stroke:#181818;stroke-width:0.5;" width="194" x="1626" y="583.3564"/><line style="stroke:#181818;stroke-width:0.5;" x1="1626" x2="1820" y1="610.9658" y2="610.9658"/><text fill="#000000" font-family="sans-serif" font-size="14" lengthAdjust="spacing" textLength="174" x="1636" y="602.8896">CALENDARIO_GENERADO</text></g><g id="RevisarCalendario"><rect fill="#F1F1F1" height="50" rx="12.5" ry="12.5" style="stroke:#181818;stroke-width:0.5;" width="175" x="2004" y="525.3564"/><line style="stroke:#181818;stroke-width:0.5;" x1="2004" x2="2179" y1="552.9658" y2="552.9658"/><text fill="#000000" font-family="sans-serif" font-size="14" lengthAdjust="spacing" textLength="155" x="2014" y="544.8896">REVISAR_CALENDARIO</text></g><g id="ConsultarCalendario"><rect fill="#F1F1F1" height="50" rx="12.5" ry="12.5" style="stroke:#181818;stroke-width:0.5;" width="200" x="817" y="88.3564"/><line style="stroke:#181818;stroke-width:0.5;" x1="817" x2="1017" y1="115.9658" y2="115.9658"/><text fill="#000000" font-family="sans-serif" font-size="14" lengthAdjust="spacing" textLength="180" x="827" y="107.8896">CONSULTAR_CALENDARIO</text></g><g id="ExportarCalendario"><rect fill="#F1F1F1" height="50" rx="12.5" ry="12.5" style="stroke:#181818;stroke-width:0.5;" width="191" x="821.5" y="175.3564"/><line style="stroke:#181818;stroke-width:0.5;" x1="821.5" x2="1012.5" y1="202.9658" y2="202.9658"/><text fill="#000000" font-family="sans-serif" font-size="14" lengthAdjust="spacing" textLength="171" x="831.5" y="194.8896">EXPORTAR_CALENDARIO</text></g><g id="VerIncidencias"><rect fill="#F1F1F1" height="50" rx="12.5" ry="12.5" style="stroke:#181818;stroke-width:0.5;" width="140" x="847" y="288.3564"/><line style="stroke:#181818;stroke-width:0.5;" x1="847" x2="987" y1="315.9658" y2="315.9658"/><text fill="#000000" font-family="sans-serif" font-size="14" lengthAdjust="spacing" textLength="120" x="857" y="307.8896">VER_INCIDENCIAS</text></g><g id="ImportarDatos"><rect fill="#F1F1F1" height="50" rx="12.5" ry="12.5" style="stroke:#181818;stroke-width:0.5;" width="148" x="843" y="390.3564"/><line style="stroke:#181818;stroke-width:0.5;" x1="843" x2="991" y1="417.9658" y2="417.9658"/><text fill="#000000" font-family="sans-serif" font-size="14" lengthAdjust="spacing" textLength="128" x="853" y="409.8896">IMPORTAR_DATOS</text></g><g id="AsignacionExamenes"><rect fill="#F1F1F1" height="50" rx="12.5" ry="12.5" style="stroke:#181818;stroke-width:0.5;" width="184" x="2357" y="525.3564"/><line style="stroke:#181818;stroke-width:0.5;" x1="2357" x2="2541" y1="552.9658" y2="552.9658"/><text fill="#000000" font-family="sans-serif" font-size="14" lengthAdjust="spacing" textLength="164" x="2367" y="544.8896">ASIGNACION_EXAMENES</text></g><g id="DescargarCalendario"><rect fill="#F1F1F1" height="50" rx="12.5" ry="12.5" style="stroke:#181818;stroke-width:0.5;" width="203" x="1205" y="87.3564"/><line style="stroke:#181818;stroke-width:0.5;" x1="1205" x2="1408" y1="114.9658" y2="114.9658"/><text fill="#000000" font-family="sans-serif" font-size="14" lengthAdjust="spacing" textLength="183" x="1215" y="106.8896">DESCARGAR_CALENDARIO</text></g><g id="PublicarCalendario"><rect fill="#F1F1F1" height="50" rx="12.5" ry="12.5" style="stroke:#181818;stroke-width:0.5;" width="183" x="2717" y="760.3564"/><line style="stroke:#181818;stroke-width:0.5;" x1="2717" x2="2900" y1="787.9658" y2="787.9658"/><text fill="#000000" font-family="sans-serif" font-size="14" lengthAdjust="spacing" textLength="163" x="2727" y="779.8896">PUBLICAR_CALENDARIO</text></g><ellipse cx="16" cy="384.3564" fill="#222222" rx="10" ry="10" style="stroke:#222222;stroke-width:1.0;"/><!--link *start* to NoAuth--><g id="link_*start*_NoAuth"><path d="M26.28,384.3564 C38.95,384.3564 56.83,384.3564 80.84,384.3564 " fill="none" id="*start*-to-NoAuth" style="stroke:#181818;stroke-width:1.0;"/><polygon fill="#181818" points="86.84,384.3564,77.84,380.3564,81.84,384.3564,77.84,388.3564,86.84,384.3564" style="stroke:#181818;stroke-width:1.0;"/></g><!--link NoAuth to Menu--><g id="link_NoAuth_Menu"><path d="M232.26,384.3564 C275.49,384.3564 324.7,384.3564 369.76,384.3564 " fill="none" id="NoAuth-to-Menu" style="stroke:#181818;stroke-width:1.0;"/><polygon fill="#181818" points="375.76,384.3564,366.76,380.3564,370.76,384.3564,366.76,388.3564,375.76,384.3564" style="stroke:#181818;stroke-width:1.0;"/><text fill="#000000" font-family="sans-serif" font-size="13" lengthAdjust="spacing" textLength="82" x="263" y="380.8516">iniciarSesion()</text></g><!--link Menu to NoAuth--><g id="link_Menu_NoAuth"><path d="M375.85,403.4564 C358.84,407.3864 346,410.3564 346,410.3564 C346,410.3564 262,410.3564 262,410.3564 C262,410.3564 254.7024,408.485 237.9124,404.185 " fill="none" id="Menu-to-NoAuth" style="stroke:#181818;stroke-width:1.0;"/><polygon fill="#181818" points="232.1,402.6964,239.8262,408.8043,236.9437,403.9369,241.811,401.0544,232.1,402.6964" style="stroke:#181818;stroke-width:1.0;"/><text fill="#000000" font-family="sans-serif" font-size="13" lengthAdjust="spacing" textLength="81" x="263.5" y="406.8516">cerrarSesion()</text></g><!--link Menu to ImportarDatos--><g id="link_Menu_ImportarDatos"><path d="M491.84,409.4264 C525.13,436.0564 573,474.3564 573,474.3564 C573,474.3564 787,474.3564 787,474.3564 C787,474.3564 820.6736,458.9519 855.8336,442.8719 " fill="none" id="Menu-to-ImportarDatos" style="stroke:#181818;stroke-width:1.0;"/><polygon fill="#181818" points="861.29,440.3764,851.4417,440.482,856.743,442.456,854.769,447.7572,861.29,440.3764" style="stroke:#181818;stroke-width:1.0;"/><text fill="#000000" font-family="sans-serif" font-size="13" lengthAdjust="spacing" textLength="89" x="635.5" y="470.8516">importarDatos()</text></g><!--link ImportarDatos to Menu--><g id="link_ImportarDatos_Menu"><path d="M842.83,415.9264 C813.72,416.1464 787,416.3564 787,416.3564 C787,416.3564 573,416.3564 573,416.3564 C573,416.3564 565.9309,414.3485 548.9209,409.5085 " fill="none" id="ImportarDatos-to-Menu" style="stroke:#181818;stroke-width:1.0;"/><polygon fill="#181818" points="543.15,407.8664,550.7117,414.1768,547.9591,409.2348,552.9011,406.4822,543.15,407.8664" style="stroke:#181818;stroke-width:1.0;"/><text fill="#000000" font-family="sans-serif" font-size="13" lengthAdjust="spacing" textLength="132" x="614" y="412.8516">completarImportacion()</text></g><!--link Menu to GenerarCalendario--><g id="link_Menu_GenerarCalendario"><path d="M469.9,409.5064 C496.94,481.8464 573,685.3564 573,685.3564 C573,685.3564 717.8752,706.894 819.4952,722.004 " fill="none" id="Menu-to-GenerarCalendario" style="stroke:#181818;stroke-width:1.0;"/><polygon fill="#181818" points="825.43,722.8864,817.1162,717.6063,820.4844,722.1511,815.9396,725.5193,825.43,722.8864" style="stroke:#181818;stroke-width:1.0;"/><text fill="#000000" font-family="sans-serif" font-size="13" lengthAdjust="spacing" textLength="112" x="624" y="681.8516">generarCalendario()</text></g><!--link GenerarCalendario to GenerandoExamenes--><g id="link_GenerarCalendario_GenerandoExamenes"><path d="M1008.85,722.9964 C1070.03,713.9964 1144.5638,703.0292 1206.2538,693.9592 " fill="none" id="GenerarCalendario-to-GenerandoExamenes" style="stroke:#181818;stroke-width:1.0;"/><polygon fill="#181818" points="1212.19,693.0864,1202.7039,690.4381,1207.2432,693.8138,1203.8676,698.3531,1212.19,693.0864" style="stroke:#181818;stroke-width:1.0;"/><text fill="#000000" font-family="sans-serif" font-size="13" lengthAdjust="spacing" textLength="124" x="1049" y="695.8516">procesarGeneracion()</text></g><!--link GenerandoExamenes to CalendarioGenerado--><g id="link_GenerandoExamenes_CalendarioGenerado"><path d="M1400.52,663.4264 C1467.59,651.9364 1551.9661,637.479 1619.7761,625.869 " fill="none" id="GenerandoExamenes-to-CalendarioGenerado" style="stroke:#181818;stroke-width:1.0;"/><polygon fill="#181818" points="1625.69,624.8564,1616.1441,622.4326,1620.7617,625.7002,1617.4941,630.3179,1625.69,624.8564" style="stroke:#181818;stroke-width:1.0;"/><text fill="#000000" font-family="sans-serif" font-size="13" lengthAdjust="spacing" textLength="156" x="1439" y="626.8516">generarFechasExamenes()</text></g><!--link CalendarioGenerado to GenerandoExamenes--><g id="link_CalendarioGenerado_GenerandoExamenes"><path d="M1679.34,633.4064 C1642.79,654.8764 1596,682.3564 1596,682.3564 C1596,682.3564 1438,682.3564 1438,682.3564 C1438,682.3564 1427.6884,682.1258 1406.5984,681.6358 " fill="none" id="CalendarioGenerado-to-GenerandoExamenes" style="stroke:#181818;stroke-width:1.0;"/><polygon fill="#181818" points="1400.6,681.4964,1409.5047,685.7044,1405.5987,681.6126,1409.6905,677.7066,1400.6,681.4964" style="stroke:#181818;stroke-width:1.0;"/><text fill="#000000" font-family="sans-serif" font-size="13" lengthAdjust="spacing" textLength="115" x="1459.5" y="678.8516">solicitarCorreccion()</text></g><!--link CalendarioGenerado to RevisarCalendario--><g id="link_CalendarioGenerado_RevisarCalendario"><path d="M1820.14,610.6464 C1837.39,611.0564 1850,611.3564 1850,611.3564 C1850,611.3564 1974,611.3564 1974,611.3564 C1974,611.3564 2005.0351,595.1106 2037.1251,578.3006 " fill="none" id="CalendarioGenerado-to-RevisarCalendario" style="stroke:#181818;stroke-width:1.0;"/><polygon fill="#181818" points="2042.44,575.5164,2032.6115,576.1494,2038.0109,577.8366,2036.3237,583.236,2042.44,575.5164" style="stroke:#181818;stroke-width:1.0;"/><text fill="#000000" font-family="sans-serif" font-size="13" lengthAdjust="spacing" textLength="102" x="1861" y="607.8516">revisarConflictos()</text></g><!--link RevisarCalendario to CalendarioGenerado--><g id="link_RevisarCalendario_CalendarioGenerado"><path d="M2003.92,564.0564 C1948.77,572.7864 1883.1663,583.1689 1826.2163,592.1789 " fill="none" id="RevisarCalendario-to-CalendarioGenerado" style="stroke:#181818;stroke-width:1.0;"/><polygon fill="#181818" points="1820.29,593.1164,1829.8045,595.6609,1825.2286,592.3351,1828.5544,587.7592,1820.29,593.1164" style="stroke:#181818;stroke-width:1.0;"/><text fill="#000000" font-family="sans-serif" font-size="13" lengthAdjust="spacing" textLength="122" x="1851" y="564.8516">aplicarCorrecciones()</text></g><!--link RevisarCalendario to AsignacionExamenes--><g id="link_RevisarCalendario_AsignacionExamenes"><path d="M2179.01,550.3564 C2232.86,550.3564 2296.03,550.3564 2350.75,550.3564 " fill="none" id="RevisarCalendario-to-AsignacionExamenes" style="stroke:#181818;stroke-width:1.0;"/><polygon fill="#181818" points="2356.75,550.3564,2347.75,546.3564,2351.75,550.3564,2347.75,554.3564,2356.75,550.3564" style="stroke:#181818;stroke-width:1.0;"/><text fill="#000000" font-family="sans-serif" font-size="13" lengthAdjust="spacing" textLength="116" x="2210" y="546.8516">finalizarAsignacion()</text></g><!--link AsignacionExamenes to Menu--><g id="link_AsignacionExamenes_Menu"><path d="M2431.09,525.3364 C2360.44,420.8064 2092.5,24.3564 2092.5,24.3564 C916,24.3564 916,24.3564 916,24.3564 C916,24.3564 573,88.3564 573,88.3564 C573,88.3564 499.432,281.928 472.222,353.508 " fill="none" id="AsignacionExamenes-to-Menu" style="stroke:#181818;stroke-width:1.0;"/><polygon fill="#181818" points="470.09,359.1164,477.0269,352.1251,471.8666,354.4427,469.549,349.2825,470.09,359.1164" style="stroke:#181818;stroke-width:1.0;"/><text fill="#000000" font-family="sans-serif" font-size="13" lengthAdjust="spacing" textLength="129" x="1452.5" y="20.8516">completarAsignacion()</text></g><!--link Menu to ConsultarCalendario--><g id="link_Menu_ConsultarCalendario"><path d="M474.52,359.1764 C504.68,305.0364 573,182.3564 573,182.3564 C573,182.3564 709.6079,154.8798 810.9079,134.4998 " fill="none" id="Menu-to-ConsultarCalendario" style="stroke:#181818;stroke-width:1.0;"/><polygon fill="#181818" points="816.79,133.3164,807.1779,131.1701,811.8882,134.3026,808.7557,139.013,816.79,133.3164" style="stroke:#181818;stroke-width:1.0;"/><text fill="#000000" font-family="sans-serif" font-size="13" lengthAdjust="spacing" textLength="122" x="619" y="136.8516">consultarCalendario()</text></g><!--link ConsultarCalendario to Menu--><g id="link_ConsultarCalendario_Menu"><path d="M816.79,113.6464 C715.49,113.9364 573,114.3564 573,114.3564 C573,114.3564 501.3981,286.2082 473.3881,353.4182 " fill="none" id="ConsultarCalendario-to-Menu" style="stroke:#181818;stroke-width:1.0;"/><polygon fill="#181818" points="471.08,358.9564,478.2343,352.1877,473.0034,354.3412,470.85,349.1103,471.08,358.9564" style="stroke:#181818;stroke-width:1.0;"/><text fill="#000000" font-family="sans-serif" font-size="13" lengthAdjust="spacing" textLength="116" x="622" y="110.8516">completarConsulta()</text></g><!--link Menu to ExportarCalendario--><g id="link_Menu_ExportarCalendario"><path d="M492.74,359.1364 C525.98,333.1364 573,296.3564 573,296.3564 C573,296.3564 787,242.3564 787,242.3564 C787,242.3564 805.7644,236.2429 833.3944,227.2529 " fill="none" id="Menu-to-ExportarCalendario" style="stroke:#181818;stroke-width:1.0;"/><polygon fill="#181818" points="839.1,225.3964,829.304,224.3774,834.3453,226.9435,831.7792,231.9848,839.1,225.3964" style="stroke:#181818;stroke-width:1.0;"/><text fill="#000000" font-family="sans-serif" font-size="13" lengthAdjust="spacing" textLength="116" x="622" y="238.8516">exportarCalendario()</text></g><!--link ExportarCalendario to Menu--><g id="link_ExportarCalendario_Menu"><path d="M821.37,205.8764 C719.84,211.7964 573,220.3564 573,220.3564 C573,220.3564 512.7844,308.1389 481.2244,354.1389 " fill="none" id="ExportarCalendario-to-Menu" style="stroke:#181818;stroke-width:1.0;"/><polygon fill="#181818" points="477.83,359.0864,486.22,353.9281,480.6587,354.9635,479.6233,349.4022,477.83,359.0864" style="stroke:#181818;stroke-width:1.0;"/><text fill="#000000" font-family="sans-serif" font-size="13" lengthAdjust="spacing" textLength="134" x="613" y="204.8516">completarExportacion()</text></g><!--link Menu to VerIncidencias--><g id="link_Menu_VerIncidencias"><path d="M543.31,377.7664 C640.04,370.0564 787,358.3564 787,358.3564 C787,358.3564 810.6349,350.1129 841.3049,339.4129 " fill="none" id="Menu-to-VerIncidencias" style="stroke:#181818;stroke-width:1.0;"/><polygon fill="#181818" points="846.97,337.4364,837.1547,336.6243,842.2491,339.0835,839.7899,344.1778,846.97,337.4364" style="stroke:#181818;stroke-width:1.0;"/><text fill="#000000" font-family="sans-serif" font-size="13" lengthAdjust="spacing" textLength="133" x="613.5" y="354.8516">comunicarIncidencias()</text></g><!--link VerIncidencias to Menu--><g id="link_VerIncidencias_Menu"><path d="M846.59,318.0064 C746.36,324.7364 573,336.3564 573,336.3564 C573,336.3564 552.1282,345.2608 524.9082,356.8808 " fill="none" id="VerIncidencias-to-Menu" style="stroke:#181818;stroke-width:1.0;"/><polygon fill="#181818" points="519.39,359.2364,529.2378,359.3817,523.9885,357.2734,526.0969,352.0241,519.39,359.2364" style="stroke:#181818;stroke-width:1.0;"/><text fill="#000000" font-family="sans-serif" font-size="13" lengthAdjust="spacing" textLength="212" x="574" y="318.8516">completarComunicacionIncidencias()</text></g><!--link GenerandoExamenes to Menu--><g id="link_GenerandoExamenes_Menu"><path d="M1212.36,668.8064 C1015.07,646.4464 573,596.3564 573,596.3564 C573,596.3564 506.4624,470.9665 476.6624,414.8065 " fill="none" id="GenerandoExamenes-to-Menu" style="stroke:#181818;stroke-width:1.0;"/><polygon fill="#181818" points="473.85,409.5064,474.5352,419.3314,476.1936,413.9232,481.6019,415.5816,473.85,409.5064" style="stroke:#181818;stroke-width:1.0;"/><text fill="#000000" font-family="sans-serif" font-size="13" lengthAdjust="spacing" textLength="123" x="855.5" y="619.8516">cancelarGeneracion()</text></g><!--link CalendarioGenerado to Menu--><g id="link_CalendarioGenerado_Menu"><path d="M1625.52,603.3164 C1348.94,588.8764 573,548.3564 573,548.3564 C573,548.3564 512.7844,460.574 481.2244,414.574 " fill="none" id="CalendarioGenerado-to-Menu" style="stroke:#181818;stroke-width:1.0;"/><polygon fill="#181818" points="477.83,409.6264,479.6233,419.3107,480.6587,413.7494,486.22,414.7848,477.83,409.6264" style="stroke:#181818;stroke-width:1.0;"/><text fill="#000000" font-family="sans-serif" font-size="13" lengthAdjust="spacing" textLength="105" x="1058.5" y="569.8516">cancelarRevision()</text></g><!--link RevisarCalendario to Menu--><g id="link_RevisarCalendario_Menu"><path d="M2003.7,544.3964 C1986.69,543.2264 1974,542.3564 1974,542.3564 C1974,542.3564 573,482.3564 573,482.3564 C573,482.3564 527.3244,442.5672 493.9944,413.5372 " fill="none" id="RevisarCalendario-to-Menu" style="stroke:#181818;stroke-width:1.0;"/><polygon fill="#181818" points="489.47,409.5964,493.6295,418.5238,493.2404,412.8804,498.8838,412.4912,489.47,409.5964" style="stroke:#181818;stroke-width:1.0;"/><text fill="#000000" font-family="sans-serif" font-size="13" lengthAdjust="spacing" textLength="105" x="1254" y="505.8516">cancelarRevisi&#243;n()</text></g><!--link AsignacionExamenes to PublicarCalendario--><g id="link_AsignacionExamenes_PublicarCalendario"><path d="M2488.26,575.5064 C2556.98,620.6764 2695.5158,711.7513 2764.2358,756.9113 " fill="none" id="AsignacionExamenes-to-PublicarCalendario" style="stroke:#181818;stroke-width:1.0;"/><polygon fill="#181818" points="2769.25,760.2064,2763.9255,751.921,2765.0715,757.4605,2759.532,758.6066,2769.25,760.2064" style="stroke:#181818;stroke-width:1.0;"/><text fill="#000000" font-family="sans-serif" font-size="13" lengthAdjust="spacing" textLength="114" x="2572" y="628.8516">publicarCalendario()</text></g><!--link PublicarCalendario to Menu--><g id="link_PublicarCalendario_Menu"><path d="M2716.83,792.7164 C2610.91,801.3064 2450,814.3564 2450,814.3564 C916,814.3564 916,814.3564 916,814.3564 C916,814.3564 573,724.3564 573,724.3564 C573,724.3564 496.6347,493.5727 470.6547,415.0527 " fill="none" id="PublicarCalendario-to-Menu" style="stroke:#181818;stroke-width:1.0;"/><polygon fill="#181818" points="468.77,409.3564,467.7996,419.1574,470.3406,414.1034,475.3946,416.6444,468.77,409.3564" style="stroke:#181818;stroke-width:1.0;"/><text fill="#000000" font-family="sans-serif" font-size="13" lengthAdjust="spacing" textLength="132" x="1657" y="810.8516">completarPublicacion()</text></g><!--link ConsultarCalendario to DescargarCalendario--><g id="link_ConsultarCalendario_DescargarCalendario"><path d="M1007.59,138.3564 C1029.61,144.5064 1047,149.3564 1047,149.3564 C1047,149.3564 1175,149.3564 1175,149.3564 C1175,149.3564 1187.9677,145.6836 1211.2377,139.0836 " fill="none" id="ConsultarCalendario-to-DescargarCalendario" style="stroke:#181818;stroke-width:1.0;"/><polygon fill="#181818" points="1217.01,137.4464,1207.2601,136.054,1212.1997,138.8108,1209.443,143.7504,1217.01,137.4464" style="stroke:#181818;stroke-width:1.0;"/><text fill="#000000" font-family="sans-serif" font-size="13" lengthAdjust="spacing" textLength="126" x="1048" y="145.8516">descargarCalendario()</text></g><!--link DescargarCalendario to ConsultarCalendario--><g id="link_DescargarCalendario_ConsultarCalendario"><path d="M1205,112.6164 C1147.12,112.7664 1080.67,112.9419 1023.04,113.0819 " fill="none" id="DescargarCalendario-to-ConsultarCalendario" style="stroke:#181818;stroke-width:1.0;"/><polygon fill="#181818" points="1017.04,113.0964,1026.0497,117.0746,1022.04,113.0843,1026.0303,109.0746,1017.04,113.0964" style="stroke:#181818;stroke-width:1.0;"/><text fill="#000000" font-family="sans-serif" font-size="13" lengthAdjust="spacing" textLength="99" x="1061.5" y="109.8516">volverAConsulta()</text></g><!--SRC=[TLHHZfim4Ftd5DP-jPNs0dnKye8RMKeWWcoqKbKXBpY9LM8Z0z5khzKZz68TC128pG-9n- -z6Syyk-Id1ZKAQN6-DAWGckUDKDAhVmjPCSskg1IIDvyLHvKgFxk5vzKDQpXwIabAuoWBI9BW43yXLgD8uRQvJ02Q7iWEPo5Dzt54NxQa1-suR2UH3Ob8WfCim5iIXJYXSO_PSCarqm4hkIoO5cg9Zy8u8szu1ujqXfU58X_i2l_h4N_NpGmrD0dkoePQJ1aISgIfNL72Rw9sLHJ4KVgwFTYCGCcwBHiNXxpjuyH18H-Lqax6aIGPZG8Q4lXWS-WZrrJcek3mOTE9wMxG3l4XDa1wDR8XQzI4modTH3ZeHhXe9Qx5MR8SNF3Oov2a0KusTjaXhtEcpwwwzwylMnhOb7txNefymV1-Vlk5df-_Zoxop6yVwZo3V2IaWAFgbDTGtfUlNX- -Km2HSwrTW4KBG6Y-dECiu_de_1W2lBVGcvUOgsjLSjWP4BafnBE4P-bcllLHfLNEmMbcQw1Rk9vjctYgzWVFBwmUqQ1WOti9ozO-qaD8oHECoFJ7WgtaXmQmoWnMQNXCklBvke3jDH0u2SbAyOVf-sxNG0VMrVObQPghup9s92iuzu9z6tt4hLYNng7kB6x40SSMTp86c7MUvTtl2Qti-ZwB0c49Mwd9CBiKI_AQPsmp-gXMC7NHpEU-Qjkn0YPpNZuOVINb0wLtao6uZUN4__lR4LPyP3z8S1Mj6F1jeBEj0smSt9f374-dZmex21eEw9greP2RAczSuvdZ_WC0]--></g></svg>