<?xml version="1.0" encoding="us-ascii" standalone="no"?><svg xmlns="http://www.w3.org/2000/svg" xmlns:xlink="http://www.w3.org/1999/xlink" contentStyleType="text/css" height="610px" preserveAspectRatio="none" style="width:255px;height:610px;background:#FFFFFF;" version="1.1" viewBox="0 0 255 610" width="255px" zoomAndPan="magnify"><defs/><g><ellipse cx="93.92" cy="16" fill="#222222" rx="10" ry="10" style="stroke:#222222;stroke-width:1.0;"/><g id="PendienteDeAsignar"><rect fill="#F1F1F1" height="50" rx="12.5" ry="12.5" style="stroke:#181818;stroke-width:0.5;" width="150" x="18.92" y="87"/><line style="stroke:#181818;stroke-width:0.5;" x1="18.92" x2="168.92" y1="114.6094" y2="114.6094"/><text fill="#000000" font-family="sans-serif" font-size="14" lengthAdjust="spacing" textLength="130" x="28.92" y="106.5332">PendienteDeAsignar</text></g><g id="Asignando"><rect fill="#F1F1F1" height="50" rx="12.5" ry="12.5" style="stroke:#181818;stroke-width:0.5;" width="87" x="50.42" y="215"/><line style="stroke:#181818;stroke-width:0.5;" x1="50.42" x2="137.42" y1="242.6094" y2="242.6094"/><text fill="#000000" font-family="sans-serif" font-size="14" lengthAdjust="spacing" textLength="67" x="60.42" y="234.5332">Asignando</text></g><g id="PendienteDeRevisi&#243;n"><rect fill="#F1F1F1" height="50" rx="12.5" ry="12.5" style="stroke:#181818;stroke-width:0.5;" width="156" x="15.92" y="343"/><line style="stroke:#181818;stroke-width:0.5;" x1="15.92" x2="171.92" y1="370.6094" y2="370.6094"/><text fill="#000000" font-family="sans-serif" font-size="14" lengthAdjust="spacing" textLength="136" x="25.92" y="362.5332">PendienteDeRevisi&#243;n</text></g><g id="Finalizado"><rect fill="#F1F1F1" height="50" rx="12.5" ry="12.5" style="stroke:#181818;stroke-width:0.5;" width="84" x="51.92" y="471"/><line style="stroke:#181818;stroke-width:0.5;" x1="51.92" x2="135.92" y1="498.6094" y2="498.6094"/><text fill="#000000" font-family="sans-serif" font-size="14" lengthAdjust="spacing" textLength="64" x="61.92" y="490.5332">Finalizado</text></g><ellipse cx="93.92" cy="593" fill="none" rx="11" ry="11" style="stroke:#222222;stroke-width:1.0;"/><ellipse cx="93.92" cy="593" fill="#222222" rx="6" ry="6" style="stroke:#222222;stroke-width:1.0;"/><!--link *start* to PendienteDeAsignar--><g id="link_*start*_PendienteDeAsignar"><path d="M93.92,26.01 C93.92,39.89 93.92,60.97 93.92,80.84 " fill="none" id="*start*-to-PendienteDeAsignar" style="stroke:#181818;stroke-width:1.0;"/><polygon fill="#181818" points="93.92,86.84,97.92,77.84,93.92,81.84,89.92,77.84,93.92,86.84" style="stroke:#181818;stroke-width:1.0;"/></g><!--link PendienteDeAsignar to Asignando--><g id="link_PendienteDeAsignar_Asignando"><path d="M93.92,137.29 C93.92,159.61 93.92,186.49 93.92,208.78 " fill="none" id="PendienteDeAsignar-to-Asignando" style="stroke:#181818;stroke-width:1.0;"/><polygon fill="#181818" points="93.92,214.78,97.92,205.78,93.92,209.78,89.92,205.78,93.92,214.78" style="stroke:#181818;stroke-width:1.0;"/><text fill="#000000" font-family="sans-serif" font-size="13" lengthAdjust="spacing" textLength="106" x="94.92" y="181.4951">iniciarAsignaci&#243;n()</text></g><!--link Asignando to PendienteDeRevisi?n--><g id="link_Asignando_PendienteDeRevisi&#243;n"><path d="M50.02,260.98 C36.6,269.44 23.41,280.7 15.92,295 C6,313.94 16.0251,327.2577 35.4951,339.7077 " fill="none" id="Asignando-to-PendienteDeRevisi&#243;n" style="stroke:#181818;stroke-width:1.0;"/><polygon fill="#181818" points="40.55,342.94,35.1225,334.7216,36.3376,340.2464,30.8128,341.4614,40.55,342.94" style="stroke:#181818;stroke-width:1.0;"/><text fill="#000000" font-family="sans-serif" font-size="13" lengthAdjust="spacing" textLength="109" x="16.92" y="309.4951">fechasGeneradas()</text></g><!--link PendienteDeRevisi?n to Asignando--><g id="link_PendienteDeRevisi&#243;n_Asignando"><path d="M117.15,342.92 C127.42,329.34 136.12,311.78 130.92,295 C127.62,284.36 124.958,278.8031 118.568,270.0131 " fill="none" id="PendienteDeRevisi&#243;n-to-Asignando" style="stroke:#181818;stroke-width:1.0;"/><polygon fill="#181818" points="115.04,265.16,117.0966,274.7917,117.98,269.2043,123.5675,270.0877,115.04,265.16" style="stroke:#181818;stroke-width:1.0;"/><text fill="#000000" font-family="sans-serif" font-size="13" lengthAdjust="spacing" textLength="115" x="132.92" y="309.4951">solicitarCorrecci&#243;n()</text></g><!--link PendienteDeRevisi?n to Finalizado--><g id="link_PendienteDeRevisi&#243;n_Finalizado"><path d="M93.92,393.29 C93.92,415.61 93.92,442.49 93.92,464.78 " fill="none" id="PendienteDeRevisi&#243;n-to-Finalizado" style="stroke:#181818;stroke-width:1.0;"/><polygon fill="#181818" points="93.92,470.78,97.92,461.78,93.92,465.78,89.92,461.78,93.92,470.78" style="stroke:#181818;stroke-width:1.0;"/><text fill="#000000" font-family="sans-serif" font-size="13" lengthAdjust="spacing" textLength="115" x="94.92" y="437.4951">aprobarAsignaci&#243;n()</text></g><!--link Finalizado to *end*--><g id="link_Finalizado_*end*"><path d="M93.92,521.46 C93.92,541.04 93.92,561.49 93.92,575.8 " fill="none" id="Finalizado-to-*end*" style="stroke:#181818;stroke-width:1.0;"/><polygon fill="#181818" points="93.92,581.8,97.92,572.8,93.92,576.8,89.92,572.8,93.92,581.8" style="stroke:#181818;stroke-width:1.0;"/></g><!--SRC=[YzQALT3LjLC8ICrBoKpDAqbrINKipapFIopYui8K0ok5iFDIyXMi53BpCfCp4uiWGicPXpVdQMXoSI5Ke1aTb5gMMGnI1TIQbfgSaLZidfgNMfIOabWCqeTL9RgLnVavG3jB4ekSyukAKfDXbkBKwvQPbvYJMPK8rfnOK9IVXE5U92KW7T5QiLm0]--></g></svg>