<svg xmlns="http://www.w3.org/2000/svg" xmlns:xlink="http://www.w3.org/1999/xlink" contentStyleType="text/css" data-diagram-type="STATE" height="644px" preserveAspectRatio="none" style="width:681px;height:644px;background:#FFFFFF;" version="1.1" viewBox="0 0 681 644" width="681px" zoomAndPan="magnify"><title>Estados de Asistencia</title><defs/><g><g class="title" data-source-line="1"><text fill="#000000" font-family="sans-serif" font-size="14" font-weight="bold" lengthAdjust="spacing" textLength="172.2725" x="247.5236" y="22.9951">Estados de Asistencia</text></g><ellipse cx="245.45" cy="53.2969" fill="#222222" rx="10" ry="10" style="stroke:#222222;stroke-width:1;"/><g id="Pendiente"><rect fill="#F1F1F1" height="50" rx="12.5" ry="12.5" style="stroke:#181818;stroke-width:0.5;" width="90.2939" x="200.3" y="124.2969"/><line style="stroke:#181818;stroke-width:0.5;" x1="200.3" x2="290.5939" y1="150.5938" y2="150.5938"/><text fill="#000000" font-family="sans-serif" font-size="14" lengthAdjust="spacing" textLength="70.2939" x="210.3" y="142.292">Pendiente</text></g><g id="TomandoAsistencia"><rect fill="#F1F1F1" height="50" rx="12.5" ry="12.5" style="stroke:#181818;stroke-width:0.5;" width="156.8555" x="46.02" y="251.2969"/><line style="stroke:#181818;stroke-width:0.5;" x1="46.02" x2="202.8755" y1="277.5938" y2="277.5938"/><text fill="#000000" font-family="sans-serif" font-size="14" lengthAdjust="spacing" textLength="136.8555" x="56.02" y="269.292">TomandoAsistencia</text></g><g id="AsistenciaRegistrada"><rect fill="#F1F1F1" height="50" rx="12.5" ry="12.5" style="stroke:#181818;stroke-width:0.5;" width="166.8975" x="7" y="378.2969"/><line style="stroke:#181818;stroke-width:0.5;" x1="7" x2="173.8975" y1="404.5938" y2="404.5938"/><text fill="#000000" font-family="sans-serif" font-size="14" lengthAdjust="spacing" textLength="146.8975" x="17" y="396.292">AsistenciaRegistrada</text></g><g id="Cerrada"><rect fill="#F1F1F1" height="50" rx="12.5" ry="12.5" style="stroke:#181818;stroke-width:0.5;" width="75.9453" x="167.48" y="505.2969"/><line style="stroke:#181818;stroke-width:0.5;" x1="167.48" x2="243.4253" y1="531.5938" y2="531.5938"/><text fill="#000000" font-family="sans-serif" font-size="14" lengthAdjust="spacing" textLength="55.9453" x="177.48" y="523.292">Cerrada</text></g><ellipse cx="205.45" cy="627.2969" fill="none" rx="11" ry="11" style="stroke:#222222;stroke-width:1;"/><ellipse cx="205.45" cy="627.2969" fill="#222222" rx="6" ry="6" style="stroke:#222222;stroke-width:1;"/><!--link *start* to Pendiente--><g class="link" data-entity-1=".start." data-entity-2="Pendiente" data-source-line="3" data-uid="lnk4" id="link_.start._Pendiente"><path d="M245.45,63.6569 C245.45,77.5869 245.45,98.2469 245.45,117.9469" fill="none" id="*start*-to-Pendiente" style="stroke:#181818;stroke-width:1;"/><polygon fill="#181818" points="245.45,123.9469,249.45,114.9469,245.45,118.9469,241.45,114.9469,245.45,123.9469" style="stroke:#181818;stroke-width:1;"/></g><!--link Pendiente to TomandoAsistencia--><g class="link" data-entity-1="Pendiente" data-entity-2="TomandoAsistencia" data-source-line="5" data-uid="lnk6" id="link_Pendiente_TomandoAsistencia"><path d="M213.53,174.5769 C202.61,183.4669 190.59,193.8969 180.45,204.2969 C166.31,218.7969 155.7717,231.8958 145.2517,246.0958" fill="none" id="Pendiente-to-TomandoAsistencia" style="stroke:#181818;stroke-width:1;"/><polygon fill="#181818" points="141.68,250.9169,150.2516,246.0663,144.6564,246.8993,143.8235,241.3041,141.68,250.9169" style="stroke:#181818;stroke-width:1;"/><text fill="#000000" font-family="sans-serif" font-size="13" lengthAdjust="spacing" textLength="152.312" x="181.45" y="217.3638">iniciarTomaAsistencia()</text></g><!--link TomandoAsistencia to AsistenciaRegistrada--><g class="link" data-entity-1="TomandoAsistencia" data-entity-2="AsistenciaRegistrada" data-source-line="6" data-uid="lnk8" id="link_TomandoAsistencia_AsistenciaRegistrada"><path d="M117.81,301.6969 C111.82,323.7169 104.6238,350.167 98.6438,372.167" fill="none" id="TomandoAsistencia-to-AsistenciaRegistrada" style="stroke:#181818;stroke-width:1;"/><polygon fill="#181818" points="97.07,377.9569,103.2907,370.3212,98.3815,373.1319,95.5708,368.2228,97.07,377.9569" style="stroke:#181818;stroke-width:1;"/><text fill="#000000" font-family="sans-serif" font-size="13" lengthAdjust="spacing" textLength="187.6113" x="111.45" y="344.3638">registrandoTomaAsistencia()</text></g><!--link AsistenciaRegistrada to Cerrada--><g class="link" data-entity-1="AsistenciaRegistrada" data-entity-2="Cerrada" data-source-line="8" data-uid="lnk10" id="link_AsistenciaRegistrada_Cerrada"><path d="M60.9,428.5469 C47.47,442.5469 36.72,460.2969 47.45,475.2969 C74.51,513.1469 123.7646,524.2144 161.2146,527.6144" fill="none" id="AsistenciaRegistrada-to-Cerrada" style="stroke:#181818;stroke-width:1;"/><polygon fill="#181818" points="167.19,528.1569,158.5885,523.3595,162.2105,527.7048,157.8652,531.3267,167.19,528.1569" style="stroke:#181818;stroke-width:1;"/><text fill="#000000" font-family="sans-serif" font-size="13" lengthAdjust="spacing" textLength="285.8667" x="48.45" y="471.3638">finalizarRegistroSesionTomandoAsistencia()</text></g><!--link Pendiente to Cerrada--><g class="link" data-entity-1="Pendiente" data-entity-2="Cerrada" data-source-line="9" data-uid="lnk11" id="link_Pendiente_Cerrada"><path d="M290.72,165.1269 C308.91,173.5769 328.02,186.1769 338.45,204.2969 C398.54,308.6769 405.72,375.3869 338.45,475.2969 C317.43,506.5169 280.8477,518.6385 249.5177,524.1985" fill="none" id="Pendiente-to-Cerrada" style="stroke:#181818;stroke-width:1;"/><polygon fill="#181818" points="243.61,525.2469,253.1705,527.6127,248.5331,524.3732,251.7726,519.7358,243.61,525.2469" style="stroke:#181818;stroke-width:1;"/><text fill="#000000" font-family="sans-serif" font-size="13" lengthAdjust="spacing" textLength="286.8696" x="386.45" y="344.3638">finalizarRegistroSesionSinTomarAsistencia()</text></g><!--link Cerrada to *end*--><g class="link" data-entity-1="Cerrada" data-entity-2=".end." data-source-line="11" data-uid="lnk13" id="link_Cerrada_.end."><path d="M205.45,555.7569 C205.45,575.3369 205.45,595.7869 205.45,610.0969" fill="none" id="Cerrada-to-*end*" style="stroke:#181818;stroke-width:1;"/><polygon fill="#181818" points="205.45,616.0969,209.45,607.0969,205.45,611.0969,201.45,607.0969,205.45,616.0969" style="stroke:#181818;stroke-width:1;"/></g><!--SRC=[XP2n2W8n38RtF4L65Uu578H3tCLp4uTmZH8uKqWxtTFR7jLoL73xq-JxI1ebJeod4CdvW8wn3n8YwoW4SDlTiUiEU6PrmXePu1kNnjM_I9sl3EvHL5AmtAhlcosqizbGomi_KpHoMMAbI40ZWfzCbXtP2lyGfKbciZBX1mxYjTaXwTON_LKCibXilT87ouhqQsy0]--></g></svg>