<svg xmlns="http://www.w3.org/2000/svg" xmlns:xlink="http://www.w3.org/1999/xlink" contentStyleType="text/css" data-diagram-type="CLASS" height="974px" preserveAspectRatio="none" style="width:784px;height:974px;background:#FFFFFF;" version="1.1" viewBox="0 0 784 974" width="784px" zoomAndPan="magnify"><title>Modelo de dominio completo</title><defs/><g><g class="title" data-source-line="2"><text fill="#000000" font-family="sans-serif" font-size="14" font-weight="bold" lengthAdjust="spacing" textLength="209.5967" x="280.3801" y="23.5352">Modelo de dominio completo</text></g><!--class Alumno--><g class="entity" data-entity="Alumno" data-source-line="4" data-uid="ent0002" id="entity_Alumno"><rect fill="#F1F1F1" height="48" rx="2.5" ry="2.5" style="stroke:#181818;stroke-width:0.5;" width="84.7529" x="244.62" y="294.4883"/><ellipse cx="259.62" cy="310.4883" fill="#ADD1B2" rx="11" ry="11" style="stroke:#181818;stroke-width:1;"/><path d="M262.0931,316.6313 Q261.5121,316.9302 260.8729,317.0796 Q260.2338,317.229 259.5282,317.229 Q257.0214,317.229 255.7015,315.5771 Q254.3817,313.9253 254.3817,310.8042 Q254.3817,307.6748 255.7015,306.0229 Q257.0214,304.3711 259.5282,304.3711 Q260.2338,304.3711 260.8812,304.5205 Q261.5287,304.6699 262.0931,304.9688 L262.0931,307.6914 Q261.4623,307.1104 260.8688,306.8406 Q260.2753,306.5708 259.6444,306.5708 Q258.2997,306.5708 257.6149,307.6375 Q256.9301,308.7041 256.9301,310.8042 Q256.9301,312.896 257.6149,313.9626 Q258.2997,315.0293 259.6444,315.0293 Q260.2753,315.0293 260.8688,314.7595 Q261.4623,314.4897 262.0931,313.9087 Z " fill="#000000"/><text fill="#000000" font-family="sans-serif" font-size="14" lengthAdjust="spacing" textLength="52.7529" x="273.62" y="315.7793">Alumno</text><line style="stroke:#181818;stroke-width:0.5;" x1="245.62" x2="328.3729" y1="326.4883" y2="326.4883"/><line style="stroke:#181818;stroke-width:0.5;" x1="245.62" x2="328.3729" y1="334.4883" y2="334.4883"/></g><!--class Matricula--><g class="entity" data-entity="Matricula" data-source-line="5" data-uid="ent0003" id="entity_Matricula"><rect fill="#F1F1F1" height="48" rx="2.5" ry="2.5" style="stroke:#181818;stroke-width:0.5;" width="94.4395" x="490.78" y="419.4883"/><ellipse cx="505.78" cy="435.4883" fill="#ADD1B2" rx="11" ry="11" style="stroke:#181818;stroke-width:1;"/><path d="M508.2531,441.6313 Q507.6721,441.9302 507.0329,442.0796 Q506.3938,442.229 505.6882,442.229 Q503.1814,442.229 501.8615,440.5771 Q500.5417,438.9253 500.5417,435.8042 Q500.5417,432.6748 501.8615,431.0229 Q503.1814,429.3711 505.6882,429.3711 Q506.3938,429.3711 507.0412,429.5205 Q507.6887,429.6699 508.2531,429.9688 L508.2531,432.6914 Q507.6223,432.1104 507.0288,431.8406 Q506.4353,431.5708 505.8044,431.5708 Q504.4597,431.5708 503.7749,432.6375 Q503.0901,433.7041 503.0901,435.8042 Q503.0901,437.896 503.7749,438.9626 Q504.4597,440.0293 505.8044,440.0293 Q506.4353,440.0293 507.0288,439.7595 Q507.6223,439.4897 508.2531,438.9087 Z " fill="#000000"/><text fill="#000000" font-family="sans-serif" font-size="14" lengthAdjust="spacing" textLength="62.4395" x="519.78" y="440.7793">Matricula</text><line style="stroke:#181818;stroke-width:0.5;" x1="491.78" x2="584.2195" y1="451.4883" y2="451.4883"/><line style="stroke:#181818;stroke-width:0.5;" x1="491.78" x2="584.2195" y1="459.4883" y2="459.4883"/></g><!--class Asignatura--><g class="entity" data-entity="Asignatura" data-source-line="6" data-uid="ent0004" id="entity_Asignatura"><rect fill="#F1F1F1" height="48" rx="2.5" ry="2.5" style="stroke:#181818;stroke-width:0.5;" width="105.377" x="156.31" y="44.4883"/><ellipse cx="171.31" cy="60.4883" fill="#ADD1B2" rx="11" ry="11" style="stroke:#181818;stroke-width:1;"/><path d="M173.7831,66.6313 Q173.2021,66.9302 172.5629,67.0796 Q171.9238,67.229 171.2182,67.229 Q168.7114,67.229 167.3915,65.5771 Q166.0717,63.9253 166.0717,60.8042 Q166.0717,57.6748 167.3915,56.0229 Q168.7114,54.3711 171.2182,54.3711 Q171.9238,54.3711 172.5712,54.5205 Q173.2187,54.6699 173.7831,54.9688 L173.7831,57.6914 Q173.1523,57.1104 172.5588,56.8406 Q171.9653,56.5708 171.3344,56.5708 Q169.9897,56.5708 169.3049,57.6375 Q168.6201,58.7041 168.6201,60.8042 Q168.6201,62.896 169.3049,63.9626 Q169.9897,65.0293 171.3344,65.0293 Q171.9653,65.0293 172.5588,64.7595 Q173.1523,64.4897 173.7831,63.9087 Z " fill="#000000"/><text fill="#000000" font-family="sans-serif" font-size="14" lengthAdjust="spacing" textLength="73.377" x="185.31" y="65.7793">Asignatura</text><line style="stroke:#181818;stroke-width:0.5;" x1="157.31" x2="260.687" y1="76.4883" y2="76.4883"/><line style="stroke:#181818;stroke-width:0.5;" x1="157.31" x2="260.687" y1="84.4883" y2="84.4883"/></g><!--class Dispensa--><g class="entity" data-entity="Dispensa" data-source-line="7" data-uid="ent0005" id="entity_Dispensa"><rect fill="#F1F1F1" height="48" rx="2.5" ry="2.5" style="stroke:#181818;stroke-width:0.5;" width="93.8379" x="240.08" y="419.4883"/><ellipse cx="255.08" cy="435.4883" fill="#ADD1B2" rx="11" ry="11" style="stroke:#181818;stroke-width:1;"/><path d="M257.5531,441.6313 Q256.9721,441.9302 256.3329,442.0796 Q255.6938,442.229 254.9882,442.229 Q252.4814,442.229 251.1615,440.5771 Q249.8417,438.9253 249.8417,435.8042 Q249.8417,432.6748 251.1615,431.0229 Q252.4814,429.3711 254.9882,429.3711 Q255.6938,429.3711 256.3412,429.5205 Q256.9887,429.6699 257.5531,429.9688 L257.5531,432.6914 Q256.9223,432.1104 256.3288,431.8406 Q255.7353,431.5708 255.1044,431.5708 Q253.7597,431.5708 253.0749,432.6375 Q252.3901,433.7041 252.3901,435.8042 Q252.3901,437.896 253.0749,438.9626 Q253.7597,440.0293 255.1044,440.0293 Q255.7353,440.0293 256.3288,439.7595 Q256.9223,439.4897 257.5531,438.9087 Z " fill="#000000"/><text fill="#000000" font-family="sans-serif" font-size="14" lengthAdjust="spacing" textLength="61.8379" x="269.08" y="440.7793">Dispensa</text><line style="stroke:#181818;stroke-width:0.5;" x1="241.08" x2="332.9179" y1="451.4883" y2="451.4883"/><line style="stroke:#181818;stroke-width:0.5;" x1="241.08" x2="332.9179" y1="459.4883" y2="459.4883"/></g><!--class Asistencia--><g class="entity" data-entity="Asistencia" data-source-line="8" data-uid="ent0006" id="entity_Asistencia"><rect fill="#F1F1F1" height="48" rx="2.5" ry="2.5" style="stroke:#181818;stroke-width:0.5;" width="100.6533" x="106.67" y="669.4883"/><ellipse cx="121.67" cy="685.4883" fill="#ADD1B2" rx="11" ry="11" style="stroke:#181818;stroke-width:1;"/><path d="M124.1431,691.6313 Q123.5621,691.9302 122.9229,692.0796 Q122.2838,692.229 121.5782,692.229 Q119.0714,692.229 117.7515,690.5771 Q116.4317,688.9253 116.4317,685.8042 Q116.4317,682.6748 117.7515,681.0229 Q119.0714,679.3711 121.5782,679.3711 Q122.2838,679.3711 122.9312,679.5205 Q123.5787,679.6699 124.1431,679.9688 L124.1431,682.6914 Q123.5123,682.1104 122.9188,681.8406 Q122.3253,681.5708 121.6944,681.5708 Q120.3497,681.5708 119.6649,682.6375 Q118.9801,683.7041 118.9801,685.8042 Q118.9801,687.896 119.6649,688.9626 Q120.3497,690.0293 121.6944,690.0293 Q122.3253,690.0293 122.9188,689.7595 Q123.5123,689.4897 124.1431,688.9087 Z " fill="#000000"/><text fill="#000000" font-family="sans-serif" font-size="14" lengthAdjust="spacing" textLength="68.6533" x="135.67" y="690.7793">Asistencia</text><line style="stroke:#181818;stroke-width:0.5;" x1="107.67" x2="206.3233" y1="701.4883" y2="701.4883"/><line style="stroke:#181818;stroke-width:0.5;" x1="107.67" x2="206.3233" y1="709.4883" y2="709.4883"/></g><!--class ListaDeAlumnos--><g class="entity" data-entity="ListaDeAlumnos" data-source-line="9" data-uid="ent0007" id="entity_ListaDeAlumnos"><rect fill="#F1F1F1" height="48" rx="2.5" ry="2.5" style="stroke:#181818;stroke-width:0.5;" width="141.792" x="208.1" y="169.4883"/><ellipse cx="223.1" cy="185.4883" fill="#ADD1B2" rx="11" ry="11" style="stroke:#181818;stroke-width:1;"/><path d="M225.5731,191.6313 Q224.9921,191.9302 224.3529,192.0796 Q223.7138,192.229 223.0082,192.229 Q220.5014,192.229 219.1815,190.5771 Q217.8617,188.9253 217.8617,185.8042 Q217.8617,182.6748 219.1815,181.0229 Q220.5014,179.3711 223.0082,179.3711 Q223.7138,179.3711 224.3612,179.5205 Q225.0087,179.6699 225.5731,179.9688 L225.5731,182.6914 Q224.9423,182.1104 224.3488,181.8406 Q223.7553,181.5708 223.1244,181.5708 Q221.7797,181.5708 221.0949,182.6375 Q220.4101,183.7041 220.4101,185.8042 Q220.4101,187.896 221.0949,188.9626 Q221.7797,190.0293 223.1244,190.0293 Q223.7553,190.0293 224.3488,189.7595 Q224.9423,189.4897 225.5731,188.9087 Z " fill="#000000"/><text fill="#000000" font-family="sans-serif" font-size="14" lengthAdjust="spacing" textLength="109.792" x="237.1" y="190.7793">ListaDeAlumnos</text><line style="stroke:#181818;stroke-width:0.5;" x1="209.1" x2="348.892" y1="201.4883" y2="201.4883"/><line style="stroke:#181818;stroke-width:0.5;" x1="209.1" x2="348.892" y1="209.4883" y2="209.4883"/></g><!--class Profesor--><g class="entity" data-entity="Profesor" data-source-line="10" data-uid="ent0008" id="entity_Profesor"><rect fill="#F1F1F1" height="48" rx="2.5" ry="2.5" style="stroke:#181818;stroke-width:0.5;" width="88.4785" x="112.76" y="794.4883"/><ellipse cx="127.76" cy="810.4883" fill="#ADD1B2" rx="11" ry="11" style="stroke:#181818;stroke-width:1;"/><path d="M130.2331,816.6313 Q129.6521,816.9302 129.0129,817.0796 Q128.3738,817.229 127.6682,817.229 Q125.1614,817.229 123.8415,815.5771 Q122.5217,813.9253 122.5217,810.8042 Q122.5217,807.6748 123.8415,806.0229 Q125.1614,804.3711 127.6682,804.3711 Q128.3738,804.3711 129.0212,804.5205 Q129.6687,804.6699 130.2331,804.9688 L130.2331,807.6914 Q129.6023,807.1104 129.0088,806.8406 Q128.4153,806.5708 127.7844,806.5708 Q126.4397,806.5708 125.7549,807.6375 Q125.0701,808.7041 125.0701,810.8042 Q125.0701,812.896 125.7549,813.9626 Q126.4397,815.0293 127.7844,815.0293 Q128.4153,815.0293 129.0088,814.7595 Q129.6023,814.4897 130.2331,813.9087 Z " fill="#000000"/><text fill="#000000" font-family="sans-serif" font-size="14" lengthAdjust="spacing" textLength="56.4785" x="141.76" y="815.7793">Profesor</text><line style="stroke:#181818;stroke-width:0.5;" x1="113.76" x2="200.2385" y1="826.4883" y2="826.4883"/><line style="stroke:#181818;stroke-width:0.5;" x1="113.76" x2="200.2385" y1="834.4883" y2="834.4883"/></g><!--class Grado--><g class="entity" data-entity="Grado" data-source-line="11" data-uid="ent0009" id="entity_Grado"><rect fill="#F1F1F1" height="48" rx="2.5" ry="2.5" style="stroke:#181818;stroke-width:0.5;" width="72.9883" x="670.51" y="544.4883"/><ellipse cx="685.51" cy="560.4883" fill="#ADD1B2" rx="11" ry="11" style="stroke:#181818;stroke-width:1;"/><path d="M687.9831,566.6313 Q687.4021,566.9302 686.7629,567.0796 Q686.1238,567.229 685.4182,567.229 Q682.9114,567.229 681.5915,565.5771 Q680.2717,563.9253 680.2717,560.8042 Q680.2717,557.6748 681.5915,556.0229 Q682.9114,554.3711 685.4182,554.3711 Q686.1238,554.3711 686.7712,554.5205 Q687.4187,554.6699 687.9831,554.9688 L687.9831,557.6914 Q687.3523,557.1104 686.7588,556.8406 Q686.1653,556.5708 685.5344,556.5708 Q684.1897,556.5708 683.5049,557.6375 Q682.8201,558.7041 682.8201,560.8042 Q682.8201,562.896 683.5049,563.9626 Q684.1897,565.0293 685.5344,565.0293 Q686.1653,565.0293 686.7588,564.7595 Q687.3523,564.4897 687.9831,563.9087 Z " fill="#000000"/><text fill="#000000" font-family="sans-serif" font-size="14" lengthAdjust="spacing" textLength="40.9883" x="699.51" y="565.7793">Grado</text><line style="stroke:#181818;stroke-width:0.5;" x1="671.51" x2="742.4983" y1="576.4883" y2="576.4883"/><line style="stroke:#181818;stroke-width:0.5;" x1="671.51" x2="742.4983" y1="584.4883" y2="584.4883"/></g><!--class DirectorDeGrado--><g class="entity" data-entity="DirectorDeGrado" data-source-line="12" data-uid="ent0010" id="entity_DirectorDeGrado"><rect fill="#F1F1F1" height="48" rx="2.5" ry="2.5" style="stroke:#181818;stroke-width:0.5;" width="146.0713" x="208.96" y="919.4883"/><ellipse cx="223.96" cy="935.4883" fill="#ADD1B2" rx="11" ry="11" style="stroke:#181818;stroke-width:1;"/><path d="M226.4331,941.6313 Q225.8521,941.9302 225.2129,942.0796 Q224.5738,942.229 223.8682,942.229 Q221.3614,942.229 220.0415,940.5771 Q218.7217,938.9253 218.7217,935.8042 Q218.7217,932.6748 220.0415,931.0229 Q221.3614,929.3711 223.8682,929.3711 Q224.5738,929.3711 225.2212,929.5205 Q225.8687,929.6699 226.4331,929.9688 L226.4331,932.6914 Q225.8023,932.1104 225.2088,931.8406 Q224.6153,931.5708 223.9844,931.5708 Q222.6397,931.5708 221.9549,932.6375 Q221.2701,933.7041 221.2701,935.8042 Q221.2701,937.896 221.9549,938.9626 Q222.6397,940.0293 223.9844,940.0293 Q224.6153,940.0293 225.2088,939.7595 Q225.8023,939.4897 226.4331,938.9087 Z " fill="#000000"/><text fill="#000000" font-family="sans-serif" font-size="14" lengthAdjust="spacing" textLength="114.0713" x="237.96" y="940.7793">DirectorDeGrado</text><line style="stroke:#181818;stroke-width:0.5;" x1="209.96" x2="354.0313" y1="951.4883" y2="951.4883"/><line style="stroke:#181818;stroke-width:0.5;" x1="209.96" x2="354.0313" y1="959.4883" y2="959.4883"/></g><!--class SecretariaAcademica--><g class="entity" data-entity="SecretariaAcademica" data-source-line="13" data-uid="ent0011" id="entity_SecretariaAcademica"><rect fill="#F1F1F1" height="48" rx="2.5" ry="2.5" style="stroke:#181818;stroke-width:0.5;" width="171.7061" x="452.15" y="669.4883"/><ellipse cx="467.15" cy="685.4883" fill="#ADD1B2" rx="11" ry="11" style="stroke:#181818;stroke-width:1;"/><path d="M469.6231,691.6313 Q469.0421,691.9302 468.4029,692.0796 Q467.7638,692.229 467.0582,692.229 Q464.5514,692.229 463.2315,690.5771 Q461.9117,688.9253 461.9117,685.8042 Q461.9117,682.6748 463.2315,681.0229 Q464.5514,679.3711 467.0582,679.3711 Q467.7638,679.3711 468.4112,679.5205 Q469.0587,679.6699 469.6231,679.9688 L469.6231,682.6914 Q468.9923,682.1104 468.3988,681.8406 Q467.8053,681.5708 467.1744,681.5708 Q465.8297,681.5708 465.1449,682.6375 Q464.4601,683.7041 464.4601,685.8042 Q464.4601,687.896 465.1449,688.9626 Q465.8297,690.0293 467.1744,690.0293 Q467.8053,690.0293 468.3988,689.7595 Q468.9923,689.4897 469.6231,688.9087 Z " fill="#000000"/><text fill="#000000" font-family="sans-serif" font-size="14" lengthAdjust="spacing" textLength="139.7061" x="481.15" y="690.7793">SecretariaAcademica</text><line style="stroke:#181818;stroke-width:0.5;" x1="453.15" x2="622.8561" y1="701.4883" y2="701.4883"/><line style="stroke:#181818;stroke-width:0.5;" x1="453.15" x2="622.8561" y1="709.4883" y2="709.4883"/></g><!--class SesionDeClase--><g class="entity" data-entity="SesionDeClase" data-source-line="14" data-uid="ent0012" id="entity_SesionDeClase"><rect fill="#F1F1F1" height="48" rx="2.5" ry="2.5" style="stroke:#181818;stroke-width:0.5;" width="130.499" x="91.75" y="544.4883"/><ellipse cx="106.75" cy="560.4883" fill="#ADD1B2" rx="11" ry="11" style="stroke:#181818;stroke-width:1;"/><path d="M109.2231,566.6313 Q108.6421,566.9302 108.0029,567.0796 Q107.3638,567.229 106.6582,567.229 Q104.1514,567.229 102.8315,565.5771 Q101.5117,563.9253 101.5117,560.8042 Q101.5117,557.6748 102.8315,556.0229 Q104.1514,554.3711 106.6582,554.3711 Q107.3638,554.3711 108.0112,554.5205 Q108.6587,554.6699 109.2231,554.9688 L109.2231,557.6914 Q108.5923,557.1104 107.9988,556.8406 Q107.4053,556.5708 106.7744,556.5708 Q105.4297,556.5708 104.7449,557.6375 Q104.0601,558.7041 104.0601,560.8042 Q104.0601,562.896 104.7449,563.9626 Q105.4297,565.0293 106.7744,565.0293 Q107.4053,565.0293 107.9988,564.7595 Q108.5923,564.4897 109.2231,563.9087 Z " fill="#000000"/><text fill="#000000" font-family="sans-serif" font-size="14" lengthAdjust="spacing" textLength="98.499" x="120.75" y="565.7793">SesionDeClase</text><line style="stroke:#181818;stroke-width:0.5;" x1="92.75" x2="221.249" y1="576.4883" y2="576.4883"/><line style="stroke:#181818;stroke-width:0.5;" x1="92.75" x2="221.249" y1="584.4883" y2="584.4883"/></g><!--link Alumno to Matricula--><g class="link" data-entity-1="Alumno" data-entity-2="Matricula" data-source-line="16" data-uid="lnk13" id="link_Alumno_Matricula"><path codeLine="16" d="M329.86,340.4883 C374.53,362.3783 438.9422,393.9479 485.2222,416.6279" fill="none" id="Alumno-to-Matricula" style="stroke:#181818;stroke-width:1;"/><polygon fill="#181818" points="490.61,419.2683,484.2885,411.7159,486.1202,417.068,480.768,418.8996,490.61,419.2683" style="stroke:#181818;stroke-width:1;"/><text fill="#000000" font-family="sans-serif" font-size="13" lengthAdjust="spacing" textLength="44.7891" x="428.53" y="386.0566">Realiza</text></g><!--link Alumno to Dispensa--><g class="link" data-entity-1="Alumno" data-entity-2="Dispensa" data-source-line="17" data-uid="lnk14" id="link_Alumno_Dispensa"><path codeLine="17" d="M287,342.9083 C287,364.7983 287,391.2883 287,413.1483" fill="none" id="Alumno-to-Dispensa" style="stroke:#181818;stroke-width:1;"/><polygon fill="#181818" points="287,419.1483,291,410.1483,287,414.1483,283,410.1483,287,419.1483" style="stroke:#181818;stroke-width:1;"/><text fill="#000000" font-family="sans-serif" font-size="13" lengthAdjust="spacing" textLength="44.9604" x="288" y="386.0566">Solicita</text></g><!--link Matricula to Grado--><g class="link" data-entity-1="Matricula" data-entity-2="Grado" data-source-line="18" data-uid="lnk15" id="link_Matricula_Grado"><path codeLine="18" d="M556.13,467.9083 C568.29,482.5483 585.27,501.0983 603,514.4883 C623.54,529.9983 643.8177,540.7077 664.5677,550.0377" fill="none" id="Matricula-to-Grado" style="stroke:#181818;stroke-width:1;"/><polygon fill="#181818" points="670.04,552.4983,663.472,545.1593,665.4798,550.4478,660.1912,552.4556,670.04,552.4983" style="stroke:#181818;stroke-width:1;"/><text fill="#000000" font-family="sans-serif" font-size="13" lengthAdjust="spacing" textLength="72.3569" x="604" y="511.0566">Pertenece a</text></g><!--link Matricula to SecretariaAcademica--><g class="link" data-entity-1="Matricula" data-entity-2="SecretariaAcademica" data-source-line="19" data-uid="lnk16" id="link_Matricula_SecretariaAcademica"><path codeLine="19" d="M538,467.8183 C538,515.0883 538,615.6683 538,663.0383" fill="none" id="Matricula-to-SecretariaAcademica" style="stroke:#181818;stroke-width:1;"/><polygon fill="#181818" points="538,669.0383,542,660.0383,538,664.0383,534,660.0383,538,669.0383" style="stroke:#181818;stroke-width:1;"/><text fill="#000000" font-family="sans-serif" font-size="13" lengthAdjust="spacing" textLength="96.0781" x="539" y="573.5566">Gestionada por</text></g><!--link Asignatura to Grado--><g class="link" data-entity-1="Asignatura" data-entity-2="Grado" data-source-line="20" data-uid="lnk17" id="link_Asignatura_Grado"><path codeLine="20" d="M261.87,71.4883 C389.31,77.7583 703,102.3383 703,192.4883 C703,192.4883 703,192.4883 703,444.4883 C703,479.3183 704.3338,513.6651 705.5138,538.3751" fill="none" id="Asignatura-to-Grado" style="stroke:#181818;stroke-width:1;"/><polygon fill="#181818" points="705.8,544.3683,709.3662,535.1877,705.5615,539.374,701.3753,535.5693,705.8,544.3683" style="stroke:#181818;stroke-width:1;"/><text fill="#000000" font-family="sans-serif" font-size="13" lengthAdjust="spacing" textLength="72.3569" x="704" y="323.5566">Pertenece a</text></g><!--reverse link Asignatura to ListaDeAlumnos--><g class="link" data-entity-1="Asignatura" data-entity-2="ListaDeAlumnos" data-source-line="21" data-uid="lnk18" id="link_Asignatura_ListaDeAlumnos"><path codeLine="21" d="M228.2662,103.3372 C240.7262,125.2272 253.28,147.2883 265.72,169.1483" fill="none" id="Asignatura-backto-ListaDeAlumnos" style="stroke:#181818;stroke-width:1;"/><polygon fill="#181818" points="222.33,92.9083,221.8218,100.1015,228.2662,103.3372,228.7744,96.144,222.33,92.9083" style="stroke:#181818;stroke-width:1;"/><text fill="#000000" font-family="sans-serif" font-size="13" lengthAdjust="spacing" textLength="34.5313" x="249.19" y="136.0566">Tiene</text></g><!--reverse link Asignatura to SesionDeClase--><g class="link" data-entity-1="Asignatura" data-entity-2="SesionDeClase" data-source-line="22" data-uid="lnk19" id="link_Asignatura_SesionDeClase"><path codeLine="22" d="M181.7164,102.2144 C163.5964,125.7344 147,154.4683 147,192.4883 C147,192.4883 147,192.4883 147,444.4883 C147,479.4083 151.05,519.7283 154,544.4083" fill="none" id="Asignatura-backto-SesionDeClase" style="stroke:#181818;stroke-width:1;"/><polygon fill="#181818" points="189.04,92.7083,182.2095,95.0201,181.7164,102.2144,188.5469,99.9025,189.04,92.7083" style="stroke:#181818;stroke-width:1;"/><text fill="#000000" font-family="sans-serif" font-size="13" lengthAdjust="spacing" textLength="34.5313" x="148" y="323.5566">Tiene</text></g><!--link Asignatura to Profesor--><g class="link" data-entity-1="Asignatura" data-entity-2="Profesor" data-source-line="23" data-uid="lnk20" id="link_Asignatura_Profesor"><path codeLine="23" d="M155.93,78.0283 C95.78,91.0883 6,122.3283 6,192.4883 C6,192.4883 6,192.4883 6,694.4883 C6,749.9383 62.4036,782.5787 106.9436,800.4987" fill="none" id="Asignatura-to-Profesor" style="stroke:#181818;stroke-width:1;"/><polygon fill="#181818" points="112.51,802.7383,105.6535,795.6681,107.8714,800.872,102.6674,803.0899,112.51,802.7383" style="stroke:#181818;stroke-width:1;"/><text fill="#000000" font-family="sans-serif" font-size="13" lengthAdjust="spacing" textLength="86.144" x="7" y="448.5566">Impartida por</text></g><!--reverse link ListaDeAlumnos to Alumno--><g class="link" data-entity-1="ListaDeAlumnos" data-entity-2="Alumno" data-source-line="24" data-uid="lnk21" id="link_ListaDeAlumnos_Alumno"><path codeLine="24" d="M281.3023,229.8828 C282.7323,251.7728 284.06,272.2883 285.48,294.1483" fill="none" id="ListaDeAlumnos-backto-Alumno" style="stroke:#181818;stroke-width:1;"/><polygon fill="none" points="280.52,217.9083,276.9196,224.1563,281.3023,229.8828,284.9026,223.6348,280.52,217.9083" style="stroke:#181818;stroke-width:1;"/><text fill="#000000" font-family="sans-serif" font-size="13" lengthAdjust="spacing" textLength="56.2212" x="284.48" y="261.0566">Contiene</text></g><!--reverse link SesionDeClase to Asistencia--><g class="link" data-entity-1="SesionDeClase" data-entity-2="Asistencia" data-source-line="25" data-uid="lnk22" id="link_SesionDeClase_Asistencia"><path codeLine="25" d="M157,604.9083 C157,626.7983 157,647.2883 157,669.1483" fill="none" id="SesionDeClase-backto-Asistencia" style="stroke:#181818;stroke-width:1;"/><polygon fill="#181818" points="157,592.9083,153,598.9083,157,604.9083,161,598.9083,157,592.9083" style="stroke:#181818;stroke-width:1;"/><text fill="#000000" font-family="sans-serif" font-size="13" lengthAdjust="spacing" textLength="51.3145" x="158" y="636.0566">Registra</text></g><!--link Asistencia to Profesor--><g class="link" data-entity-1="Asistencia" data-entity-2="Profesor" data-source-line="26" data-uid="lnk23" id="link_Asistencia_Profesor"><path codeLine="26" d="M157,717.9083 C157,739.7983 157,766.2883 157,788.1483" fill="none" id="Asistencia-to-Profesor" style="stroke:#181818;stroke-width:1;"/><polygon fill="#181818" points="157,794.1483,161,785.1483,157,789.1483,153,785.1483,157,794.1483" style="stroke:#181818;stroke-width:1;"/><text fill="#000000" font-family="sans-serif" font-size="13" lengthAdjust="spacing" textLength="85.7505" x="158" y="761.0566">Realizada por</text></g><!--link Dispensa to SesionDeClase--><g class="link" data-entity-1="Dispensa" data-entity-2="SesionDeClase" data-source-line="27" data-uid="lnk24" id="link_Dispensa_SesionDeClase"><path codeLine="27" d="M241.51,467.7783 C227.88,476.0283 213.51,486.1283 202,497.4883 C188.22,511.0783 179.4162,524.3681 171.4162,538.9481" fill="none" id="Dispensa-to-SesionDeClase" style="stroke:#181818;stroke-width:1;"/><polygon fill="#181818" points="168.53,544.2083,176.3662,538.2422,170.9352,539.8248,169.3526,534.3938,168.53,544.2083" style="stroke:#181818;stroke-width:1;"/><text fill="#000000" font-family="sans-serif" font-size="13" lengthAdjust="spacing" textLength="57.6938" x="203" y="511.0566">Exime de</text></g><!--link Dispensa to DirectorDeGrado--><g class="link" data-entity-1="Dispensa" data-entity-2="DirectorDeGrado" data-source-line="28" data-uid="lnk25" id="link_Dispensa_DirectorDeGrado"><path codeLine="28" d="M285.96,467.9083 C284.5,503.0883 282,571.6783 282,629.9883 C282,629.9883 282,629.9883 282,819.4883 C282,854.2983 282,888.6483 282,913.3683" fill="none" id="Dispensa-to-DirectorDeGrado" style="stroke:#181818;stroke-width:1;"/><polygon fill="#181818" points="282,919.3683,286,910.3683,282,914.3683,278,910.3683,282,919.3683" style="stroke:#181818;stroke-width:1;"/><text fill="#000000" font-family="sans-serif" font-size="13" lengthAdjust="spacing" textLength="86.7788" x="283" y="698.5566">Aprobada por</text></g><!--link Dispensa to SecretariaAcademica--><g class="link" data-entity-1="Dispensa" data-entity-2="SecretariaAcademica" data-source-line="29" data-uid="lnk26" id="link_Dispensa_SecretariaAcademica"><path codeLine="29" d="M309.33,467.8383 C337.56,497.2383 387.84,549.1583 432,592.4883 C459.27,619.2483 486.8538,645.145 508.4938,665.245" fill="none" id="Dispensa-to-SecretariaAcademica" style="stroke:#181818;stroke-width:1;"/><polygon fill="#181818" points="512.89,669.3283,509.0179,660.2725,509.2265,665.9255,503.5735,666.1341,512.89,669.3283" style="stroke:#181818;stroke-width:1;"/><text fill="#000000" font-family="sans-serif" font-size="13" lengthAdjust="spacing" textLength="96.0781" x="433" y="573.5566">Gestionada por</text></g><!--link Grado to DirectorDeGrado--><g class="link" data-entity-1="Grado" data-entity-2="DirectorDeGrado" data-source-line="30" data-uid="lnk27" id="link_Grado_DirectorDeGrado"><path codeLine="30" d="M705.54,592.8883 C704.06,606.8283 701.06,624.6483 695,639.4883 C679.06,678.5183 671.49,688.3583 641,717.4883 C545.13,809.0783 411.6864,880.6154 337.9064,916.4754" fill="none" id="Grado-to-DirectorDeGrado" style="stroke:#181818;stroke-width:1;"/><polygon fill="#181818" points="332.51,919.0983,342.3531,918.7616,337.007,916.9126,338.856,911.5664,332.51,919.0983" style="stroke:#181818;stroke-width:1;"/><text fill="#000000" font-family="sans-serif" font-size="13" lengthAdjust="spacing" textLength="76.2036" x="605.76" y="761.0566">Dirigido por</text></g><!--link Grado to SecretariaAcademica--><g class="link" data-entity-1="Grado" data-entity-2="SecretariaAcademica" data-source-line="31" data-uid="lnk28" id="link_Grado_SecretariaAcademica"><path codeLine="31" d="M670.01,584.4683 C641.78,596.3083 605.66,612.4583 593,622.4883 C576.65,635.4483 565.5937,649.2163 555.6337,664.0563" fill="none" id="Grado-to-SecretariaAcademica" style="stroke:#181818;stroke-width:1;"/><polygon fill="#181818" points="552.29,669.0383,560.6268,663.7945,555.0764,664.8867,553.9842,659.3362,552.29,669.0383" style="stroke:#181818;stroke-width:1;"/><text fill="#000000" font-family="sans-serif" font-size="13" lengthAdjust="spacing" textLength="96.8843" x="594" y="636.0566">Gestionado por</text></g><!--reverse link Profesor to DirectorDeGrado--><g class="link" data-entity-1="Profesor" data-entity-2="DirectorDeGrado" data-source-line="32" data-uid="lnk30" id="link_Profesor_DirectorDeGrado"><path codeLine="32" d="M189.0288,856.2969 C201.3288,870.2169 205.67,874.5483 221,889.4883 C231.35,899.5783 243.24,910.1283 253.76,919.1283" fill="none" id="Profesor-backto-DirectorDeGrado" style="stroke:#181818;stroke-width:1;"/><polygon fill="none" points="177.11,842.8083,184.5326,860.2698,193.525,852.3239,177.11,842.8083" style="stroke:#181818;stroke-width:1;"/><text fill="#000000" font-family="sans-serif" font-size="13" lengthAdjust="spacing" textLength="33.9219" x="222" y="886.0566">Es un</text></g><!--SRC=[ZL91QiCm4Bpx5Nik-0Cv54mSGg61qFG3Mtbh5cIjaMGefO_lnfPZooIqD-_EU6OqKkHe2KxIa1Le21hfsB60aQwt5AKeZCKGeB93voGD9uoUpM1n1WEt3kFWvqNDeISNLdY8v0pFYrUTiQP9DAJbsSid1V5fF7fivARdoKJnDQst5pAU8dh6oc137Hk46nHON4rxdQWe9YCeo-SbE-pWZT3oDwxXERcY5x5iE6An_79bZ0aKFfFNCv4Xs3BkvTh1aKBKJDWWz7h8fRE7gYlAKrbkIbFkEojpoyfEVezqTPkhLlobwz57Jgas7gA2gPmTxCN5KIotk9ek5posskhan_ppTcEQYa-cjywdylByXo_kz5bIpjey2ELLlPUF1uh_k8v9vhwqRhXb_So9V-XAIfAhbKFvarLn232uuXS0]--></g></svg>