<?xml version="1.0" encoding="UTF-8" standalone="no"?><svg xmlns="http://www.w3.org/2000/svg" xmlns:xlink="http://www.w3.org/1999/xlink" contentScriptType="application/ecmascript" contentStyleType="text/css" height="388px" preserveAspectRatio="none" style="width:1900px;height:388px;" version="1.1" viewBox="0 0 1900 388" width="1900px" zoomAndPan="magnify"><defs><filter height="300%" id="f4eysjik52qf6" width="300%" x="-1" y="-1"><feGaussianBlur result="blurOut" stdDeviation="2.0"/><feColorMatrix in="blurOut" result="blurOut2" type="matrix" values="0 0 0 0 0 0 0 0 0 0 0 0 0 0 0 0 0 0 .4 0"/><feOffset dx="4.0" dy="4.0" in="blurOut2" result="blurOut3"/><feBlend in="SourceGraphic" in2="blurOut3" mode="normal"/></filter></defs><g><!--MD5=[0508a6ee1e6ca468314c145c4238fb84]
class EvaluadorBecas--><rect fill="#FEFECE" filter="url(#f4eysjik52qf6)" height="137.8913" id="EvaluadorBecas" style="stroke: #A80036; stroke-width: 1.5;" width="286" x="235" y="131"/><ellipse cx="331.25" cy="147" fill="#B4A7E5" rx="11" ry="11" style="stroke: #A80036; stroke-width: 1.0;"/><path d="M327.1719,142.7656 L327.1719,140.6094 L334.5625,140.6094 L334.5625,142.7656 L332.0938,142.7656 L332.0938,150.8438 L334.5625,150.8438 L334.5625,153 L327.1719,153 L327.1719,150.8438 L329.6406,150.8438 L329.6406,142.7656 L327.1719,142.7656 Z "/><text fill="#000000" font-family="sans-serif" font-size="12" font-style="italic" lengthAdjust="spacingAndGlyphs" textLength="85" x="351.75" y="151.656">EvaluadorBecas</text><line style="stroke: #A80036; stroke-width: 1.5;" x1="236" x2="520" y1="163" y2="163"/><line style="stroke: #A80036; stroke-width: 1.5;" x1="236" x2="520" y1="171" y2="171"/><text fill="#000000" font-family="sans-serif" font-size="11" lengthAdjust="spacingAndGlyphs" textLength="138" x="241" y="186.7589">+evaluar(alumno: Alumno)</text><text fill="#000000" font-family="sans-serif" font-size="11" lengthAdjust="spacingAndGlyphs" textLength="226" x="241" y="201.7408">+evaluar(alumnoErasmus: AlumnoErasmus)</text><text fill="#000000" font-family="sans-serif" font-size="11" lengthAdjust="spacingAndGlyphs" textLength="208" x="241" y="216.7227">+evaluar(alumnoVirtual: AlumnoVirtual)</text><text fill="#000000" font-family="sans-serif" font-size="11" lengthAdjust="spacingAndGlyphs" textLength="272" x="241" y="231.7046">+evaluar(alumnoInvestigador: AlumnoInvestigador)</text><text fill="#000000" font-family="sans-serif" font-size="11" lengthAdjust="spacingAndGlyphs" textLength="248" x="241" y="246.6865">+evaluar(alumnoDeportista: AlumnoDeportista)</text><text fill="#000000" font-family="sans-serif" font-size="11" lengthAdjust="spacingAndGlyphs" textLength="274" x="241" y="261.6684">+evaluar(alumnoDiscapacidad: AlumnoDiscapacidad)</text><!--MD5=[b887cf1b6732c2da6b2473101c66933d]
class Alumno--><rect fill="#FEFECE" filter="url(#f4eysjik52qf6)" height="62.9819" id="Alumno" style="stroke: #A80036; stroke-width: 1.5;" width="230" x="1184" y="8"/><ellipse cx="1273.25" cy="24" fill="#ADD1B2" rx="11" ry="11" style="stroke: #A80036; stroke-width: 1.0;"/><path d="M1276.2188,29.6406 Q1275.6406,29.9375 1275,30.0781 Q1274.3594,30.2344 1273.6563,30.2344 Q1271.1563,30.2344 1269.8281,28.5938 Q1268.5156,26.9375 1268.5156,23.8125 Q1268.5156,20.6875 1269.8281,19.0313 Q1271.1563,17.375 1273.6563,17.375 Q1274.3594,17.375 1275,17.5313 Q1275.6563,17.6875 1276.2188,17.9844 L1276.2188,20.7031 Q1275.5938,20.125 1275,19.8594 Q1274.4063,19.5781 1273.7813,19.5781 Q1272.4375,19.5781 1271.75,20.6563 Q1271.0625,21.7188 1271.0625,23.8125 Q1271.0625,25.9063 1271.75,26.9844 Q1272.4375,28.0469 1273.7813,28.0469 Q1274.4063,28.0469 1275,27.7813 Q1275.5938,27.5 1276.2188,26.9219 L1276.2188,29.6406 Z "/><text fill="#000000" font-family="sans-serif" font-size="12" lengthAdjust="spacingAndGlyphs" textLength="43" x="1293.75" y="28.656">Alumno</text><line style="stroke: #A80036; stroke-width: 1.5;" x1="1185" x2="1413" y1="40" y2="40"/><line style="stroke: #A80036; stroke-width: 1.5;" x1="1185" x2="1413" y1="48" y2="48"/><text fill="#000000" font-family="sans-serif" font-size="11" lengthAdjust="spacingAndGlyphs" textLength="218" x="1190" y="63.7589">+solicitarBeca(evaluador: EvaluadorBecas)</text><!--MD5=[6fc0b0749ae06d441aacf9edeed422d4]
class AlumnoErasmus--><rect fill="#FEFECE" filter="url(#f4eysjik52qf6)" height="48" id="AlumnoErasmus" style="stroke: #A80036; stroke-width: 1.5;" width="124" x="1084" y="176"/><ellipse cx="1099" cy="192" fill="#ADD1B2" rx="11" ry="11" style="stroke: #A80036; stroke-width: 1.0;"/><path d="M1101.9688,197.6406 Q1101.3906,197.9375 1100.75,198.0781 Q1100.1094,198.2344 1099.4063,198.2344 Q1096.9063,198.2344 1095.5781,196.5938 Q1094.2656,194.9375 1094.2656,191.8125 Q1094.2656,188.6875 1095.5781,187.0313 Q1096.9063,185.375 1099.4063,185.375 Q1100.1094,185.375 1100.75,185.5313 Q1101.4063,185.6875 1101.9688,185.9844 L1101.9688,188.7031 Q1101.3438,188.125 1100.75,187.8594 Q1100.1563,187.5781 1099.5313,187.5781 Q1098.1875,187.5781 1097.5,188.6563 Q1096.8125,189.7188 1096.8125,191.8125 Q1096.8125,193.9063 1097.5,194.9844 Q1098.1875,196.0469 1099.5313,196.0469 Q1100.1563,196.0469 1100.75,195.7813 Q1101.3438,195.5 1101.9688,194.9219 L1101.9688,197.6406 Z "/><text fill="#000000" font-family="sans-serif" font-size="12" lengthAdjust="spacingAndGlyphs" textLength="92" x="1113" y="196.656">AlumnoErasmus</text><line style="stroke: #A80036; stroke-width: 1.5;" x1="1085" x2="1207" y1="208" y2="208"/><line style="stroke: #A80036; stroke-width: 1.5;" x1="1085" x2="1207" y1="216" y2="216"/><!--MD5=[64c7f26e3497764bda3709ca58f0bad4]
class AlumnoVirtual--><rect fill="#FEFECE" filter="url(#f4eysjik52qf6)" height="48" id="AlumnoVirtual" style="stroke: #A80036; stroke-width: 1.5;" width="111" x="1243.5" y="176"/><ellipse cx="1258.5" cy="192" fill="#ADD1B2" rx="11" ry="11" style="stroke: #A80036; stroke-width: 1.0;"/><path d="M1261.4688,197.6406 Q1260.8906,197.9375 1260.25,198.0781 Q1259.6094,198.2344 1258.9063,198.2344 Q1256.4063,198.2344 1255.0781,196.5938 Q1253.7656,194.9375 1253.7656,191.8125 Q1253.7656,188.6875 1255.0781,187.0313 Q1256.4063,185.375 1258.9063,185.375 Q1259.6094,185.375 1260.25,185.5313 Q1260.9063,185.6875 1261.4688,185.9844 L1261.4688,188.7031 Q1260.8438,188.125 1260.25,187.8594 Q1259.6563,187.5781 1259.0313,187.5781 Q1257.6875,187.5781 1257,188.6563 Q1256.3125,189.7188 1256.3125,191.8125 Q1256.3125,193.9063 1257,194.9844 Q1257.6875,196.0469 1259.0313,196.0469 Q1259.6563,196.0469 1260.25,195.7813 Q1260.8438,195.5 1261.4688,194.9219 L1261.4688,197.6406 Z "/><text fill="#000000" font-family="sans-serif" font-size="12" lengthAdjust="spacingAndGlyphs" textLength="79" x="1272.5" y="196.656">AlumnoVirtual</text><line style="stroke: #A80036; stroke-width: 1.5;" x1="1244.5" x2="1353.5" y1="208" y2="208"/><line style="stroke: #A80036; stroke-width: 1.5;" x1="1244.5" x2="1353.5" y1="216" y2="216"/><!--MD5=[61e1803084224a608779d1a517b78209]
class AlumnoInvestigador--><rect fill="#FEFECE" filter="url(#f4eysjik52qf6)" height="48" id="AlumnoInvestigador" style="stroke: #A80036; stroke-width: 1.5;" width="145" x="1389.5" y="176"/><ellipse cx="1404.5" cy="192" fill="#ADD1B2" rx="11" ry="11" style="stroke: #A80036; stroke-width: 1.0;"/><path d="M1407.4688,197.6406 Q1406.8906,197.9375 1406.25,198.0781 Q1405.6094,198.2344 1404.9063,198.2344 Q1402.4063,198.2344 1401.0781,196.5938 Q1399.7656,194.9375 1399.7656,191.8125 Q1399.7656,188.6875 1401.0781,187.0313 Q1402.4063,185.375 1404.9063,185.375 Q1405.6094,185.375 1406.25,185.5313 Q1406.9063,185.6875 1407.4688,185.9844 L1407.4688,188.7031 Q1406.8438,188.125 1406.25,187.8594 Q1405.6563,187.5781 1405.0313,187.5781 Q1403.6875,187.5781 1403,188.6563 Q1402.3125,189.7188 1402.3125,191.8125 Q1402.3125,193.9063 1403,194.9844 Q1403.6875,196.0469 1405.0313,196.0469 Q1405.6563,196.0469 1406.25,195.7813 Q1406.8438,195.5 1407.4688,194.9219 L1407.4688,197.6406 Z "/><text fill="#000000" font-family="sans-serif" font-size="12" lengthAdjust="spacingAndGlyphs" textLength="113" x="1418.5" y="196.656">AlumnoInvestigador</text><line style="stroke: #A80036; stroke-width: 1.5;" x1="1390.5" x2="1533.5" y1="208" y2="208"/><line style="stroke: #A80036; stroke-width: 1.5;" x1="1390.5" x2="1533.5" y1="216" y2="216"/><!--MD5=[ab1184b842e9492f6f320c3c2757492c]
class AlumnoDeportista--><rect fill="#FEFECE" filter="url(#f4eysjik52qf6)" height="48" id="AlumnoDeportista" style="stroke: #A80036; stroke-width: 1.5;" width="134" x="1570" y="176"/><ellipse cx="1585" cy="192" fill="#ADD1B2" rx="11" ry="11" style="stroke: #A80036; stroke-width: 1.0;"/><path d="M1587.9688,197.6406 Q1587.3906,197.9375 1586.75,198.0781 Q1586.1094,198.2344 1585.4063,198.2344 Q1582.9063,198.2344 1581.5781,196.5938 Q1580.2656,194.9375 1580.2656,191.8125 Q1580.2656,188.6875 1581.5781,187.0313 Q1582.9063,185.375 1585.4063,185.375 Q1586.1094,185.375 1586.75,185.5313 Q1587.4063,185.6875 1587.9688,185.9844 L1587.9688,188.7031 Q1587.3438,188.125 1586.75,187.8594 Q1586.1563,187.5781 1585.5313,187.5781 Q1584.1875,187.5781 1583.5,188.6563 Q1582.8125,189.7188 1582.8125,191.8125 Q1582.8125,193.9063 1583.5,194.9844 Q1584.1875,196.0469 1585.5313,196.0469 Q1586.1563,196.0469 1586.75,195.7813 Q1587.3438,195.5 1587.9688,194.9219 L1587.9688,197.6406 Z "/><text fill="#000000" font-family="sans-serif" font-size="12" lengthAdjust="spacingAndGlyphs" textLength="102" x="1599" y="196.656">AlumnoDeportista</text><line style="stroke: #A80036; stroke-width: 1.5;" x1="1571" x2="1703" y1="208" y2="208"/><line style="stroke: #A80036; stroke-width: 1.5;" x1="1571" x2="1703" y1="216" y2="216"/><!--MD5=[12f0a8c4d89fae37fa2b1231ea981562]
class AlumnoDiscapacidad--><rect fill="#FEFECE" filter="url(#f4eysjik52qf6)" height="48" id="AlumnoDiscapacidad" style="stroke: #A80036; stroke-width: 1.5;" width="150" x="1739" y="176"/><ellipse cx="1754" cy="192" fill="#ADD1B2" rx="11" ry="11" style="stroke: #A80036; stroke-width: 1.0;"/><path d="M1756.9688,197.6406 Q1756.3906,197.9375 1755.75,198.0781 Q1755.1094,198.2344 1754.4063,198.2344 Q1751.9063,198.2344 1750.5781,196.5938 Q1749.2656,194.9375 1749.2656,191.8125 Q1749.2656,188.6875 1750.5781,187.0313 Q1751.9063,185.375 1754.4063,185.375 Q1755.1094,185.375 1755.75,185.5313 Q1756.4063,185.6875 1756.9688,185.9844 L1756.9688,188.7031 Q1756.3438,188.125 1755.75,187.8594 Q1755.1563,187.5781 1754.5313,187.5781 Q1753.1875,187.5781 1752.5,188.6563 Q1751.8125,189.7188 1751.8125,191.8125 Q1751.8125,193.9063 1752.5,194.9844 Q1753.1875,196.0469 1754.5313,196.0469 Q1755.1563,196.0469 1755.75,195.7813 Q1756.3438,195.5 1756.9688,194.9219 L1756.9688,197.6406 Z "/><text fill="#000000" font-family="sans-serif" font-size="12" lengthAdjust="spacingAndGlyphs" textLength="118" x="1768" y="196.656">AlumnoDiscapacidad</text><line style="stroke: #A80036; stroke-width: 1.5;" x1="1740" x2="1888" y1="208" y2="208"/><line style="stroke: #A80036; stroke-width: 1.5;" x1="1740" x2="1888" y1="216" y2="216"/><!--MD5=[701dbead63a25fc7c30eeb065f6810a1]
class AlumnoHonorario--><rect fill="#FEFECE" filter="url(#f4eysjik52qf6)" height="62.9819" id="AlumnoHonorario" style="stroke: #A80036; stroke-width: 1.5;" width="230" x="556" y="168.5"/><ellipse cx="616.75" cy="184.5" fill="#ADD1B2" rx="11" ry="11" style="stroke: #A80036; stroke-width: 1.0;"/><path d="M619.7188,190.1406 Q619.1406,190.4375 618.5,190.5781 Q617.8594,190.7344 617.1563,190.7344 Q614.6563,190.7344 613.3281,189.0938 Q612.0156,187.4375 612.0156,184.3125 Q612.0156,181.1875 613.3281,179.5313 Q614.6563,177.875 617.1563,177.875 Q617.8594,177.875 618.5,178.0313 Q619.1563,178.1875 619.7188,178.4844 L619.7188,181.2031 Q619.0938,180.625 618.5,180.3594 Q617.9063,180.0781 617.2813,180.0781 Q615.9375,180.0781 615.25,181.1563 Q614.5625,182.2188 614.5625,184.3125 Q614.5625,186.4063 615.25,187.4844 Q615.9375,188.5469 617.2813,188.5469 Q617.9063,188.5469 618.5,188.2813 Q619.0938,188 619.7188,187.4219 L619.7188,190.1406 Z "/><text fill="#000000" font-family="sans-serif" font-size="12" lengthAdjust="spacingAndGlyphs" textLength="100" x="637.25" y="189.156">AlumnoHonorario</text><line style="stroke: #A80036; stroke-width: 1.5;" x1="557" x2="785" y1="200.5" y2="200.5"/><line style="stroke: #A80036; stroke-width: 1.5;" x1="557" x2="785" y1="208.5" y2="208.5"/><text fill="#000000" font-family="sans-serif" font-size="11" lengthAdjust="spacingAndGlyphs" textLength="218" x="562" y="224.2589">+solicitarBeca(evaluador: EvaluadorBecas)</text><path d="M821,186 L821,196 L786.24,200 L821,204 L821,213.706 A0,0 0 0 0 821,213.706 L1049,213.706 A0,0 0 0 0 1049,213.706 L1049,196 L1039,186 L821,186 A0,0 0 0 0 821,186 " fill="#FBFB77" filter="url(#f4eysjik52qf6)" style="stroke: #A80036; stroke-width: 1.0;"/><path d="M1039,186 L1039,196 L1049,196 L1039,186 " fill="#FBFB77" style="stroke: #A80036; stroke-width: 1.0;"/><text fill="#000000" font-family="sans-serif" font-size="13" lengthAdjust="spacingAndGlyphs" textLength="207" x="827" y="204.897">// los honorarios no solicitan becas</text><!--MD5=[b133d3134e1a64dcdc0db13fcce31361]
class EvaluadorAcademico--><rect fill="#FEFECE" filter="url(#f4eysjik52qf6)" height="48" id="EvaluadorAcademico" style="stroke: #A80036; stroke-width: 1.5;" width="150" x="6" y="329"/><ellipse cx="21" cy="345" fill="#ADD1B2" rx="11" ry="11" style="stroke: #A80036; stroke-width: 1.0;"/><path d="M23.9688,350.6406 Q23.3906,350.9375 22.75,351.0781 Q22.1094,351.2344 21.4063,351.2344 Q18.9063,351.2344 17.5781,349.5938 Q16.2656,347.9375 16.2656,344.8125 Q16.2656,341.6875 17.5781,340.0313 Q18.9063,338.375 21.4063,338.375 Q22.1094,338.375 22.75,338.5313 Q23.4063,338.6875 23.9688,338.9844 L23.9688,341.7031 Q23.3438,341.125 22.75,340.8594 Q22.1563,340.5781 21.5313,340.5781 Q20.1875,340.5781 19.5,341.6563 Q18.8125,342.7188 18.8125,344.8125 Q18.8125,346.9063 19.5,347.9844 Q20.1875,349.0469 21.5313,349.0469 Q22.1563,349.0469 22.75,348.7813 Q23.3438,348.5 23.9688,347.9219 L23.9688,350.6406 Z "/><text fill="#000000" font-family="sans-serif" font-size="12" lengthAdjust="spacingAndGlyphs" textLength="118" x="35" y="349.656">EvaluadorAcademico</text><line style="stroke: #A80036; stroke-width: 1.5;" x1="7" x2="155" y1="361" y2="361"/><line style="stroke: #A80036; stroke-width: 1.5;" x1="7" x2="155" y1="369" y2="369"/><!--MD5=[78428cd5bf1c9ce8806b7c4c542ae804]
class EvaluadorSocioeconomico--><rect fill="#FEFECE" filter="url(#f4eysjik52qf6)" height="48" id="EvaluadorSocioeconomico" style="stroke: #A80036; stroke-width: 1.5;" width="179" x="191.5" y="329"/><ellipse cx="206.5" cy="345" fill="#ADD1B2" rx="11" ry="11" style="stroke: #A80036; stroke-width: 1.0;"/><path d="M209.4688,350.6406 Q208.8906,350.9375 208.25,351.0781 Q207.6094,351.2344 206.9063,351.2344 Q204.4063,351.2344 203.0781,349.5938 Q201.7656,347.9375 201.7656,344.8125 Q201.7656,341.6875 203.0781,340.0313 Q204.4063,338.375 206.9063,338.375 Q207.6094,338.375 208.25,338.5313 Q208.9063,338.6875 209.4688,338.9844 L209.4688,341.7031 Q208.8438,341.125 208.25,340.8594 Q207.6563,340.5781 207.0313,340.5781 Q205.6875,340.5781 205,341.6563 Q204.3125,342.7188 204.3125,344.8125 Q204.3125,346.9063 205,347.9844 Q205.6875,349.0469 207.0313,349.0469 Q207.6563,349.0469 208.25,348.7813 Q208.8438,348.5 209.4688,347.9219 L209.4688,350.6406 Z "/><text fill="#000000" font-family="sans-serif" font-size="12" lengthAdjust="spacingAndGlyphs" textLength="147" x="220.5" y="349.656">EvaluadorSocioeconomico</text><line style="stroke: #A80036; stroke-width: 1.5;" x1="192.5" x2="369.5" y1="361" y2="361"/><line style="stroke: #A80036; stroke-width: 1.5;" x1="192.5" x2="369.5" y1="369" y2="369"/><!--MD5=[10e4de7e5936657c56fb44048886c09c]
class EvaluadorDeportes--><rect fill="#FEFECE" filter="url(#f4eysjik52qf6)" height="48" id="EvaluadorDeportes" style="stroke: #A80036; stroke-width: 1.5;" width="140" x="406" y="329"/><ellipse cx="421" cy="345" fill="#ADD1B2" rx="11" ry="11" style="stroke: #A80036; stroke-width: 1.0;"/><path d="M423.9688,350.6406 Q423.3906,350.9375 422.75,351.0781 Q422.1094,351.2344 421.4063,351.2344 Q418.9063,351.2344 417.5781,349.5938 Q416.2656,347.9375 416.2656,344.8125 Q416.2656,341.6875 417.5781,340.0313 Q418.9063,338.375 421.4063,338.375 Q422.1094,338.375 422.75,338.5313 Q423.4063,338.6875 423.9688,338.9844 L423.9688,341.7031 Q423.3438,341.125 422.75,340.8594 Q422.1563,340.5781 421.5313,340.5781 Q420.1875,340.5781 419.5,341.6563 Q418.8125,342.7188 418.8125,344.8125 Q418.8125,346.9063 419.5,347.9844 Q420.1875,349.0469 421.5313,349.0469 Q422.1563,349.0469 422.75,348.7813 Q423.3438,348.5 423.9688,347.9219 L423.9688,350.6406 Z "/><text fill="#000000" font-family="sans-serif" font-size="12" lengthAdjust="spacingAndGlyphs" textLength="108" x="435" y="349.656">EvaluadorDeportes</text><line style="stroke: #A80036; stroke-width: 1.5;" x1="407" x2="545" y1="361" y2="361"/><line style="stroke: #A80036; stroke-width: 1.5;" x1="407" x2="545" y1="369" y2="369"/><!--MD5=[7b3d91f6943ddead5f1943169e709420]
class EvaluadorInternacional--><rect fill="#FEFECE" filter="url(#f4eysjik52qf6)" height="48" id="EvaluadorInternacional" style="stroke: #A80036; stroke-width: 1.5;" width="162" x="581" y="329"/><ellipse cx="596" cy="345" fill="#ADD1B2" rx="11" ry="11" style="stroke: #A80036; stroke-width: 1.0;"/><path d="M598.9688,350.6406 Q598.3906,350.9375 597.75,351.0781 Q597.1094,351.2344 596.4063,351.2344 Q593.9063,351.2344 592.5781,349.5938 Q591.2656,347.9375 591.2656,344.8125 Q591.2656,341.6875 592.5781,340.0313 Q593.9063,338.375 596.4063,338.375 Q597.1094,338.375 597.75,338.5313 Q598.4063,338.6875 598.9688,338.9844 L598.9688,341.7031 Q598.3438,341.125 597.75,340.8594 Q597.1563,340.5781 596.5313,340.5781 Q595.1875,340.5781 594.5,341.6563 Q593.8125,342.7188 593.8125,344.8125 Q593.8125,346.9063 594.5,347.9844 Q595.1875,349.0469 596.5313,349.0469 Q597.1563,349.0469 597.75,348.7813 Q598.3438,348.5 598.9688,347.9219 L598.9688,350.6406 Z "/><text fill="#000000" font-family="sans-serif" font-size="12" lengthAdjust="spacingAndGlyphs" textLength="130" x="610" y="349.656">EvaluadorInternacional</text><line style="stroke: #A80036; stroke-width: 1.5;" x1="582" x2="742" y1="361" y2="361"/><line style="stroke: #A80036; stroke-width: 1.5;" x1="582" x2="742" y1="369" y2="369"/><!--MD5=[e80896688fdcdff1ec203b48a8b7f882]
class Universidad--><rect fill="#FEFECE" filter="url(#f4eysjik52qf6)" height="62.9819" id="Universidad" style="stroke: #A80036; stroke-width: 1.5;" width="238" x="1449" y="8"/><ellipse cx="1530.25" cy="24" fill="#ADD1B2" rx="11" ry="11" style="stroke: #A80036; stroke-width: 1.0;"/><path d="M1533.2188,29.6406 Q1532.6406,29.9375 1532,30.0781 Q1531.3594,30.2344 1530.6563,30.2344 Q1528.1563,30.2344 1526.8281,28.5938 Q1525.5156,26.9375 1525.5156,23.8125 Q1525.5156,20.6875 1526.8281,19.0313 Q1528.1563,17.375 1530.6563,17.375 Q1531.3594,17.375 1532,17.5313 Q1532.6563,17.6875 1533.2188,17.9844 L1533.2188,20.7031 Q1532.5938,20.125 1532,19.8594 Q1531.4063,19.5781 1530.7813,19.5781 Q1529.4375,19.5781 1528.75,20.6563 Q1528.0625,21.7188 1528.0625,23.8125 Q1528.0625,25.9063 1528.75,26.9844 Q1529.4375,28.0469 1530.7813,28.0469 Q1531.4063,28.0469 1532,27.7813 Q1532.5938,27.5 1533.2188,26.9219 L1533.2188,29.6406 Z "/><text fill="#000000" font-family="sans-serif" font-size="12" lengthAdjust="spacingAndGlyphs" textLength="67" x="1550.75" y="28.656">Universidad</text><line style="stroke: #A80036; stroke-width: 1.5;" x1="1450" x2="1686" y1="40" y2="40"/><line style="stroke: #A80036; stroke-width: 1.5;" x1="1450" x2="1686" y1="48" y2="48"/><text fill="#000000" font-family="sans-serif" font-size="11" lengthAdjust="spacingAndGlyphs" textLength="226" x="1455" y="63.7589">+procesarSolicitudBeca(alumno, evaluador)</text><!--MD5=[b3c04046367c7497f756288ab2e3c188]
reverse link Alumno to AlumnoErasmus--><path d="M1255.45,85.61 C1227.08,115 1191.23,152.14 1168.45,175.74 " fill="none" id="Alumno&lt;-AlumnoErasmus" style="stroke: #A80036; stroke-width: 1.0;"/><polygon fill="none" points="1250.57,80.59,1269.5,71.06,1260.65,90.31,1250.57,80.59" style="stroke: #A80036; stroke-width: 1.0;"/><!--MD5=[de30b1d5d248cbfbdd7ef4bf3e2414ee]
reverse link Alumno to AlumnoVirtual--><path d="M1299,91.36 C1299,119.72 1299,153.66 1299,175.74 " fill="none" id="Alumno&lt;-AlumnoVirtual" style="stroke: #A80036; stroke-width: 1.0;"/><polygon fill="none" points="1292,91.06,1299,71.06,1306,91.06,1292,91.06" style="stroke: #A80036; stroke-width: 1.0;"/><!--MD5=[d01083f1a679774f9131e6470c5320a8]
reverse link Alumno to AlumnoInvestigador--><path d="M1345.02,85.25 C1375.41,114.8 1413.98,152.3 1438.33,175.98 " fill="none" id="Alumno&lt;-AlumnoInvestigador" style="stroke: #A80036; stroke-width: 1.0;"/><polygon fill="none" points="1339.89,90.02,1330.43,71.06,1349.65,79.98,1339.89,90.02" style="stroke: #A80036; stroke-width: 1.0;"/><!--MD5=[db6b088474080caffa69d6ba0ae21660]
reverse link Alumno to AlumnoDeportista--><path d="M1428.03,77.44 C1468.93,91.55 1513.5,109.51 1552,131 C1574.11,143.34 1596.36,161.4 1612.55,175.8 " fill="none" id="Alumno&lt;-AlumnoDeportista" style="stroke: #A80036; stroke-width: 1.0;"/><polygon fill="none" points="1425.65,84.03,1408.91,71.03,1430.1,70.75,1425.65,84.03" style="stroke: #A80036; stroke-width: 1.0;"/><!--MD5=[f0e34ac58a5a9063e5410d049f37d773]
reverse link Alumno to AlumnoDiscapacidad--><path d="M1434.21,71.25 C1564.64,97.17 1607.47,79.82 1722,131 C1746.84,142.1 1771.44,160.8 1788.95,175.78 " fill="none" id="Alumno&lt;-AlumnoDiscapacidad" style="stroke: #A80036; stroke-width: 1.0;"/><polygon fill="none" points="1432.46,78.04,1414.31,67.1,1435.32,64.33,1432.46,78.04" style="stroke: #A80036; stroke-width: 1.0;"/><!--MD5=[894eaf09e8febff583448a6427b87adf]
reverse link Alumno to AlumnoHonorario--><path d="M1163.77,54.24 C1062.48,67.14 921.54,90.65 803,131 C775.06,140.51 745.7,155.12 721.79,168.36 " fill="none" id="Alumno&lt;-AlumnoHonorario" style="stroke: #A80036; stroke-width: 1.0;"/><polygon fill="none" points="1163.09,47.27,1183.8,51.76,1164.81,61.17,1163.09,47.27" style="stroke: #A80036; stroke-width: 1.0;"/><!--MD5=[6f6bb0905fc4d196292a0937b5ff9c73]
reverse link EvaluadorBecas to EvaluadorAcademico--><path d="M225.52,278.52 C189.35,296.91 153.49,315.14 126.54,328.85 " fill="none" id="EvaluadorBecas&lt;-EvaluadorAcademico" style="stroke: #A80036; stroke-width: 1.0; stroke-dasharray: 7.0,7.0;"/><polygon fill="none" points="222.84,272.04,243.84,269.21,229.18,284.51,222.84,272.04" style="stroke: #A80036; stroke-width: 1.0;"/><!--MD5=[bf993c2cc515c77dd49e9b9ca2aff195]
reverse link EvaluadorBecas to EvaluadorSocioeconomico--><path d="M323.08,286.5 C313.03,302.14 303.36,317.2 295.82,328.92 " fill="none" id="EvaluadorBecas&lt;-EvaluadorSocioeconomico" style="stroke: #A80036; stroke-width: 1.0; stroke-dasharray: 7.0,7.0;"/><polygon fill="none" points="317.34,282.47,334.04,269.43,329.12,290.04,317.34,282.47" style="stroke: #A80036; stroke-width: 1.0;"/><!--MD5=[ada3204db73cc32a654f572cc0b61d4a]
reverse link EvaluadorBecas to EvaluadorDeportes--><path d="M433.49,286.5 C443.64,302.14 453.41,317.2 461.02,328.92 " fill="none" id="EvaluadorBecas&lt;-EvaluadorDeportes" style="stroke: #A80036; stroke-width: 1.0; stroke-dasharray: 7.0,7.0;"/><polygon fill="none" points="427.43,290.02,422.41,269.43,439.17,282.4,427.43,290.02" style="stroke: #A80036; stroke-width: 1.0;"/><!--MD5=[c8fb15994bd55c005d8b1e465317b536]
reverse link EvaluadorBecas to EvaluadorInternacional--><path d="M524.28,278.78 C558.71,297.08 592.8,315.21 618.45,328.85 " fill="none" id="EvaluadorBecas&lt;-EvaluadorInternacional" style="stroke: #A80036; stroke-width: 1.0; stroke-dasharray: 7.0,7.0;"/><polygon fill="none" points="520.66,284.78,506.29,269.21,527.24,272.42,520.66,284.78" style="stroke: #A80036; stroke-width: 1.0;"/><!--MD5=[04cef7b2193117ad578e928564198c52]
link Alumno to EvaluadorBecas--><path d="M1183.97,44.07 C1033.27,51.02 761.88,71.42 538,131 C534.1,132.04 530.18,133.15 526.24,134.33 " fill="none" id="Alumno-&gt;EvaluadorBecas" style="stroke: #A80036; stroke-width: 1.0; stroke-dasharray: 7.0,7.0;"/><polygon fill="#A80036" points="521.24,135.86,531.0149,137.0651,526.0232,134.4036,528.6847,129.412,521.24,135.86" style="stroke: #A80036; stroke-width: 1.0;"/><!--MD5=[c2310de7271b8b51537cf941d0fbda4e]
@startuml
skinparam classAttributeIconSize 0

interface EvaluadorBecas {
    + evaluar(alumno: Alumno)
    + evaluar(alumnoErasmus: AlumnoErasmus)
    + evaluar(alumnoVirtual: AlumnoVirtual)
    + evaluar(alumnoInvestigador: AlumnoInvestigador)
    + evaluar(alumnoDeportista: AlumnoDeportista)
    + evaluar(alumnoDiscapacidad: AlumnoDiscapacidad)
}

class Alumno {
    + solicitarBeca(evaluador: EvaluadorBecas)
}
class AlumnoErasmus { }
class AlumnoVirtual { }
class AlumnoInvestigador { }
class AlumnoDeportista { }
class AlumnoDiscapacidad { }

class AlumnoHonorario {
    + solicitarBeca(evaluador: EvaluadorBecas)
}
note right of AlumnoHonorario
  // los honorarios no solicitan becas
end note

class EvaluadorAcademico { }
class EvaluadorSocioeconomico { }
class EvaluadorDeportes { }
class EvaluadorInternacional { }

class Universidad {
    + procesarSolicitudBeca(alumno, evaluador)
}

Alumno <|- - AlumnoErasmus
Alumno <|- - AlumnoVirtual
Alumno <|- - AlumnoInvestigador
Alumno <|- - AlumnoDeportista
Alumno <|- - AlumnoDiscapacidad
Alumno <|- - AlumnoHonorario

EvaluadorAcademico      .u.|> EvaluadorBecas
EvaluadorSocioeconomico .u.|> EvaluadorBecas
EvaluadorDeportes       .u.|> EvaluadorBecas
EvaluadorInternacional  .u.|> EvaluadorBecas

Alumno ..> EvaluadorBecas

@enduml

PlantUML version 1.2020.02(Sun Mar 01 11:22:07 CET 2020)
(GPL source distribution)
Java Runtime: OpenJDK Runtime Environment
JVM: OpenJDK 64-Bit Server VM
Java Version: 21.0.10+7-Ubuntu-124.04
Operating System: Linux
Default Encoding: UTF-8
Language: es
Country: ES
--></g></svg>