<svg xmlns="http://www.w3.org/2000/svg" xmlns:xlink="http://www.w3.org/1999/xlink" contentStyleType="text/css" data-diagram-type="STATE" height="803px" preserveAspectRatio="none" style="width:778px;height:803px;background:#FFFFFF;" version="1.1" viewBox="0 0 778 803" width="778px" zoomAndPan="magnify"><title>Diagrama de Estados: Dispensa</title><defs/><g><g class="title" data-source-line="1"><text fill="#000000" font-family="sans-serif" font-size="14" font-weight="bold" lengthAdjust="spacing" textLength="250.0381" x="257.371" y="22.9951">Diagrama de Estados: Dispensa</text></g><g id="Solicitada"><rect fill="#F1F1F1" height="50" rx="12.5" ry="12.5" style="stroke:#181818;stroke-width:0.5;" width="88.3525" x="12.63" y="140.2969"/><line style="stroke:#181818;stroke-width:0.5;" x1="12.63" x2="100.9825" y1="166.5938" y2="166.5938"/><text fill="#000000" font-family="sans-serif" font-size="14" lengthAdjust="spacing" textLength="68.3525" x="22.63" y="158.292">Solicitada</text></g><g id="Gestionada"><rect fill="#F1F1F1" height="50" rx="12.5" ry="12.5" style="stroke:#181818;stroke-width:0.5;" width="99.6182" x="7" y="267.2969"/><line style="stroke:#181818;stroke-width:0.5;" x1="7" x2="106.6182" y1="293.5938" y2="293.5938"/><text fill="#000000" font-family="sans-serif" font-size="14" lengthAdjust="spacing" textLength="79.6182" x="17" y="285.292">Gestionada</text></g><g id="Aprobada"><rect fill="#F1F1F1" height="50" rx="12.5" ry="12.5" style="stroke:#181818;stroke-width:0.5;" width="87.7168" x="204.95" y="648.2969"/><line style="stroke:#181818;stroke-width:0.5;" x1="204.95" x2="292.6668" y1="674.5938" y2="674.5938"/><text fill="#000000" font-family="sans-serif" font-size="14" lengthAdjust="spacing" textLength="67.7168" x="214.95" y="666.292">Aprobada</text></g><g id="Rechazada"><rect fill="#F1F1F1" height="50" rx="12.5" ry="12.5" style="stroke:#181818;stroke-width:0.5;" width="96.8838" x="217.37" y="394.2969"/><line style="stroke:#181818;stroke-width:0.5;" x1="217.37" x2="314.2538" y1="420.5938" y2="420.5938"/><text fill="#000000" font-family="sans-serif" font-size="14" lengthAdjust="spacing" textLength="76.8838" x="227.37" y="412.292">Rechazada</text></g><g id="Apelada"><rect fill="#F1F1F1" height="50" rx="12.5" ry="12.5" style="stroke:#181818;stroke-width:0.5;" width="77.0117" x="210.3" y="521.2969"/><line style="stroke:#181818;stroke-width:0.5;" x1="210.3" x2="287.3117" y1="547.5938" y2="547.5938"/><text fill="#000000" font-family="sans-serif" font-size="14" lengthAdjust="spacing" textLength="57.0117" x="220.3" y="539.292">Apelada</text></g><ellipse cx="56.81" cy="53.2969" fill="#222222" rx="10" ry="10" style="stroke:#222222;stroke-width:1;"/><ellipse cx="374.81" cy="786.2969" fill="none" rx="11" ry="11" style="stroke:#222222;stroke-width:1;"/><ellipse cx="374.81" cy="786.2969" fill="#222222" rx="6" ry="6" style="stroke:#222222;stroke-width:1;"/><!--link *start* to Solicitada--><g class="link" data-entity-1=".start." data-entity-2="Solicitada" data-link-type="dependency" data-source-line="9" data-uid="lnk3" id="link_.start._Solicitada"><path d="M56.81,63.6769 C56.81,80.4069 56.81,109.8869 56.81,133.9269" fill="none" id="*start*-to-Solicitada" style="stroke:#181818;stroke-width:1;"/><polygon fill="#181818" points="56.81,139.9269,60.81,130.9269,56.81,134.9269,52.81,130.9269,56.81,139.9269" style="stroke:#181818;stroke-width:1;"/><text fill="#000000" font-family="sans-serif" font-size="13" lengthAdjust="spacing" textLength="120.8848" x="57.81" y="106.3638">solicitarDispensa()</text></g><!--link Solicitada to Gestionada--><g class="link" data-entity-1="Solicitada" data-entity-2="Gestionada" data-link-type="dependency" data-source-line="11" data-uid="lnk4" id="link_Solicitada_Gestionada"><path d="M56.81,190.6969 C56.81,212.7169 56.81,238.9569 56.81,260.9569" fill="none" id="Solicitada-to-Gestionada" style="stroke:#181818;stroke-width:1;"/><polygon fill="#181818" points="56.81,266.9569,60.81,257.9569,56.81,261.9569,52.81,257.9569,56.81,266.9569" style="stroke:#181818;stroke-width:1;"/><text fill="#000000" font-family="sans-serif" font-size="13" lengthAdjust="spacing" textLength="186.7798" x="57.81" y="233.3638">gestionarSolicitudDispensa()</text></g><!--link Gestionada to Aprobada--><g class="link" data-entity-1="Gestionada" data-entity-2="Aprobada" data-link-type="dependency" data-source-line="12" data-uid="lnk5" id="link_Gestionada_Aprobada"><path d="M50.02,317.7169 C40.61,356.4069 27.44,433.3469 52.81,491.2969 C83.92,562.3669 153.1479,614.7375 200.8079,644.6475" fill="none" id="Gestionada-to-Aprobada" style="stroke:#181818;stroke-width:1;"/><polygon fill="#181818" points="205.89,647.8369,200.3931,639.6647,201.6549,645.1791,196.1406,646.4409,205.89,647.8369" style="stroke:#181818;stroke-width:1;"/><text fill="#000000" font-family="sans-serif" font-size="13" lengthAdjust="spacing" textLength="120.8467" x="53.81" y="487.3638">aprobarDispensa()</text></g><!--link Gestionada to Rechazada--><g class="link" data-entity-1="Gestionada" data-entity-2="Rechazada" data-link-type="dependency" data-source-line="13" data-uid="lnk6" id="link_Gestionada_Rechazada"><path d="M97.6,317.6969 C134.43,339.7169 183.1701,368.8781 219.9701,390.8781" fill="none" id="Gestionada-to-Rechazada" style="stroke:#181818;stroke-width:1;"/><polygon fill="#181818" points="225.12,393.9569,219.4477,385.9055,220.8284,391.3913,215.3427,392.772,225.12,393.9569" style="stroke:#181818;stroke-width:1;"/><text fill="#000000" font-family="sans-serif" font-size="13" lengthAdjust="spacing" textLength="126.5977" x="174.81" y="360.3638">rechazarDispensa()</text></g><!--link Rechazada to Apelada--><g class="link" data-entity-1="Rechazada" data-entity-2="Apelada" data-link-type="dependency" data-source-line="15" data-uid="lnk7" id="link_Rechazada_Apelada"><path d="M217.21,442.8369 C205.1,450.9469 193.63,461.3669 186.81,474.2969 C177.11,492.6769 187.4592,506.7383 205.2292,519.8283" fill="none" id="Rechazada-to-Apelada" style="stroke:#181818;stroke-width:1;"/><polygon fill="#181818" points="210.06,523.3869,205.1861,514.8285,206.0343,520.4214,200.4414,521.2696,210.06,523.3869" style="stroke:#181818;stroke-width:1;"/><text fill="#000000" font-family="sans-serif" font-size="13" lengthAdjust="spacing" textLength="110.9063" x="187.81" y="487.3638">apelarDispensa()</text></g><!--link Apelada to Rechazada--><g class="link" data-entity-1="Apelada" data-entity-2="Rechazada" data-link-type="dependency" data-source-line="18" data-uid="lnk9" id="link_Apelada_Rechazada"><path d="M281.44,520.8069 C290.03,512.4869 298.19,502.4469 302.81,491.2969 C309.4,475.3769 304.6183,462.9494 294.1283,449.4894" fill="none" id="Apelada-to-Rechazada" style="stroke:#181818;stroke-width:1;"/><polygon fill="#181818" points="290.44,444.7569,292.8174,454.3145,293.5136,448.7006,299.1274,449.3968,290.44,444.7569" style="stroke:#181818;stroke-width:1;"/><text fill="#000000" font-family="sans-serif" font-size="13" lengthAdjust="spacing" textLength="193.064" x="305.81" y="487.3638">rechazarApelacionDefinitiva()</text></g><!--link Apelada to Aprobada--><g class="link" data-entity-1="Apelada" data-entity-2="Aprobada" data-link-type="dependency" data-source-line="17" data-uid="lnk8" id="link_Apelada_Aprobada"><path d="M248.81,571.6969 C248.81,593.7169 248.81,619.9569 248.81,641.9569" fill="none" id="Apelada-to-Aprobada" style="stroke:#181818;stroke-width:1;"/><polygon fill="#181818" points="248.81,647.9569,252.81,638.9569,248.81,642.9569,244.81,638.9569,248.81,647.9569" style="stroke:#181818;stroke-width:1;"/><text fill="#000000" font-family="sans-serif" font-size="13" lengthAdjust="spacing" textLength="124.8965" x="249.81" y="614.3638">aprobarApelacion()</text></g><!--link Aprobada to *end*--><g class="link" data-entity-1="Aprobada" data-entity-2=".end." data-link-type="dependency" data-source-line="20" data-uid="lnk11" id="link_Aprobada_.end."><path d="M276.46,698.6569 C305.44,724.1869 344.657,758.7417 362.407,774.3717" fill="none" id="Aprobada-to-*end*" style="stroke:#181818;stroke-width:1;"/><polygon fill="#181818" points="366.91,778.3369,362.7989,769.3871,363.1575,775.0325,357.512,775.3911,366.91,778.3369" style="stroke:#181818;stroke-width:1;"/><text fill="#000000" font-family="sans-serif" font-size="13" lengthAdjust="spacing" textLength="108.9131" x="326.81" y="741.3638">cerrarDispensa()</text></g><!--link Rechazada to *end*--><g class="link" data-entity-1="Rechazada" data-entity-2=".end." data-link-type="dependency" data-source-line="21" data-uid="lnk12" id="link_Rechazada_.end."><path d="M314.73,424.1369 C378.32,430.2569 484.08,444.6969 507.81,474.2969 C531.92,504.3869 771.78,310.3869 443.81,745.2969 C428.8,765.1969 406.4728,774.9617 391.1528,780.1517" fill="none" id="Rechazada-to-*end*" style="stroke:#181818;stroke-width:1;"/><polygon fill="#181818" points="385.47,782.0769,395.2776,782.9776,390.2056,780.4726,392.7107,775.4006,385.47,782.0769" style="stroke:#181818;stroke-width:1;"/><text fill="#000000" font-family="sans-serif" font-size="13" lengthAdjust="spacing" textLength="108.9131" x="545.81" y="614.3638">cerrarDispensa()</text></g><!--SRC=[TP713i8W44JlV0L7DUaFU30ngV6kH-DXfMlTf9PcGGz-lT120Hjxss5UPnOisGvbJT0oF44sA0_6GgFDrebcmDw044wnAC-w8qNk489mH6D9zqdO3wnlQJoXUi0dFyREJ-AokSggscL_bEdRIXDaZWrMQo4ohqTJziIqOURWUpKPd9az6sl6F1Xd_W_CYmI0fxdebpnJnBXgsWcyK03HicoKbnfTodLnI4wKbOfMCrBZdNgoz0vv8SFZ_WLaSUaAcOk2vK8_mDB_1G00]--></g></svg>