<svg xmlns="http://www.w3.org/2000/svg" xmlns:xlink="http://www.w3.org/1999/xlink" contentStyleType="text/css" data-diagram-type="STATE" height="406px" preserveAspectRatio="none" style="width:571px;height:406px;background:#FFFFFF;" version="1.1" viewBox="0 0 571 406" width="571px" zoomAndPan="magnify"><title>Estado de Lista de Alumnos</title><defs/><g><g class="title" data-source-line="1"><text fill="#000000" font-family="sans-serif" font-size="14" font-weight="bold" lengthAdjust="spacing" textLength="218.5039" x="169.686" y="22.9951">Estado de Lista de Alumnos</text></g><ellipse cx="229" cy="53.2969" fill="#222222" rx="10" ry="10" style="stroke:#222222;stroke-width:1;"/><g><rect fill="#F1F1F1" height="50" rx="12.5" ry="12.5" style="stroke:#181818;stroke-width:0.5;" width="93.5684" x="182.22" y="140.2969"/><line style="stroke:#181818;stroke-width:0.5;" x1="182.22" x2="275.7884" y1="166.5938" y2="166.5938"/><text fill="#000000" font-family="sans-serif" font-size="14" lengthAdjust="spacing" textLength="73.5684" x="192.22" y="158.292">Disponible</text></g><g><rect fill="#F1F1F1" height="50" rx="12.5" ry="12.5" style="stroke:#181818;stroke-width:0.5;" width="136.6689" x="50.67" y="267.2969"/><line style="stroke:#181818;stroke-width:0.5;" x1="50.67" x2="187.3389" y1="293.5938" y2="293.5938"/><text fill="#000000" font-family="sans-serif" font-size="14" lengthAdjust="spacing" textLength="116.6689" x="60.67" y="285.292">En_actualizacion</text></g><g><rect fill="#F1F1F1" height="50" rx="12.5" ry="12.5" style="stroke:#181818;stroke-width:0.5;" width="75.9453" x="404.03" y="267.2969"/><line style="stroke:#181818;stroke-width:0.5;" x1="404.03" x2="479.9753" y1="293.5938" y2="293.5938"/><text fill="#000000" font-family="sans-serif" font-size="14" lengthAdjust="spacing" textLength="55.9453" x="414.03" y="285.292">Cerrada</text></g><ellipse cx="442" cy="389.2969" fill="none" rx="11" ry="11" style="stroke:#222222;stroke-width:1;"/><ellipse cx="442" cy="389.2969" fill="#222222" rx="6" ry="6" style="stroke:#222222;stroke-width:1;"/><!--link *start* to Disponible--><g class="link" data-entity-1="ent0002" data-entity-2="ent0003" data-link-type="dependency" data-source-line="5" id="lnk4"><path d="M229,63.6769 C229,80.4069 229,109.8869 229,133.9269" fill="none" id="*start*-to-Disponible" style="stroke:#181818;stroke-width:1;"/><polygon fill="#181818" points="229,139.9269,233,130.9269,229,134.9269,225,130.9269,229,139.9269" style="stroke:#181818;stroke-width:1;"/><text fill="#000000" font-family="sans-serif" font-size="13" lengthAdjust="spacing" textLength="171.4502" x="230" y="106.3638">importarListaDeAlumnos()</text></g><!--link Disponible to En_actualizacion--><g class="link" data-entity-1="ent0003" data-entity-2="ent0005" data-link-type="dependency" data-source-line="7" id="lnk6"><path d="M181.98,177.6869 C116.55,193.5269 6,220.2969 6,220.2969 C6,220.2969 6,237.2969 6,237.2969 C6,237.2969 32.4765,249.9496 62.3765,264.2396" fill="none" id="Disponible-to-En_actualizacion" style="stroke:#181818;stroke-width:1;"/><polygon fill="#181818" points="67.79,266.8269,61.3946,259.337,63.2787,264.6708,57.9449,266.555,67.79,266.8269" style="stroke:#181818;stroke-width:1;"/><text fill="#000000" font-family="sans-serif" font-size="13" lengthAdjust="spacing" textLength="178.6548" x="7" y="233.3638">detectarCambiosExternos()</text></g><!--link En_actualizacion to Disponible--><g class="link" data-entity-1="ent0005" data-entity-2="ent0003" data-link-type="dependency" data-source-line="8" id="lnk7"><path d="M151.18,266.8269 C169.96,252.5369 190,237.2969 190,237.2969 C190,237.2969 201.4118,216.526 212.6918,195.986" fill="none" id="En_actualizacion-to-Disponible" style="stroke:#181818;stroke-width:1;"/><polygon fill="#181818" points="215.58,190.7269,207.7417,196.6901,213.1732,195.1095,214.7538,200.541,215.58,190.7269" style="stroke:#181818;stroke-width:1;"/><text fill="#000000" font-family="sans-serif" font-size="13" lengthAdjust="spacing" textLength="171.0439" x="200" y="233.3638">aplicarActualizacionLista()</text></g><!--link Disponible to Cerrada--><g class="link" data-entity-1="ent0003" data-entity-2="ent0008" data-link-type="dependency" data-source-line="10" id="lnk9"><path d="M275.95,183.0869 C320.28,198.9369 380,220.2969 380,220.2969 C380,220.2969 398.7843,241.8068 416.7143,262.3468" fill="none" id="Disponible-to-Cerrada" style="stroke:#181818;stroke-width:1;"/><polygon fill="#181818" points="420.66,266.8669,417.7548,257.4563,417.3719,263.1001,411.728,262.7172,420.66,266.8669" style="stroke:#181818;stroke-width:1;"/><text fill="#000000" font-family="sans-serif" font-size="13" lengthAdjust="spacing" textLength="169.876" x="394" y="233.3638">cerrarPeriodoAcademico()</text></g><!--link Cerrada to *end*--><g class="link" data-entity-1="ent0008" data-entity-2="ent0010" data-link-type="dependency" data-source-line="11" id="lnk11"><path d="M442,317.7569 C442,337.3369 442,357.7869 442,372.0969" fill="none" id="Cerrada-to-*end*" style="stroke:#181818;stroke-width:1;"/><polygon fill="#181818" points="442,378.0969,446,369.0969,442,373.0969,438,369.0969,442,378.0969" style="stroke:#181818;stroke-width:1;"/></g><!--SRC=[RO_12i8m38RlVOeULTWBU136jfi7xoAIjJa4swQa7JYVtdOg3ERj3tpVdoHJTgY7bC6ojgZFL68DhPjyuAHKUb288E2reu1vZgWZkxaEIbqFDzqq9zrJYXneB5r7JJwoP92bgyTlqswlr0ghrX3kOF84ZbvWY4DnBMOqnUt0ZyHfU6QKZxo1DtiXEZ8WxPfQRlYpkaCHi50iKvDSK8WjjmOiUZ9Sb1zIyVBd6m00]--></g></svg>