<svg xmlns="http://www.w3.org/2000/svg" xmlns:xlink="http://www.w3.org/1999/xlink" contentStyleType="text/css" data-diagram-type="STATE" height="644px" preserveAspectRatio="none" style="width:869px;height:644px;background:#FFFFFF;" version="1.1" viewBox="0 0 869 644" width="869px" zoomAndPan="magnify"><title>Estados de DirectorDeGrado</title><defs/><g><g class="title" data-source-line="1"><text fill="#000000" font-family="sans-serif" font-size="14" font-weight="bold" lengthAdjust="spacing" textLength="224.2051" x="315.7037" y="22.9951">Estados de DirectorDeGrado</text></g><ellipse cx="300.55" cy="53.2969" fill="#222222" rx="10" ry="10" style="stroke:#222222;stroke-width:1;"/><g><rect fill="#F1F1F1" height="50" rx="12.5" ry="12.5" style="stroke:#181818;stroke-width:0.5;" width="93.5684" x="253.77" y="124.2969"/><line style="stroke:#181818;stroke-width:0.5;" x1="253.77" x2="347.3384" y1="150.5938" y2="150.5938"/><text fill="#000000" font-family="sans-serif" font-size="14" lengthAdjust="spacing" textLength="73.5684" x="263.77" y="142.292">Disponible</text></g><g><rect fill="#F1F1F1" height="50" rx="12.5" ry="12.5" style="stroke:#181818;stroke-width:0.5;" width="181.1025" x="7" y="251.2969"/><line style="stroke:#181818;stroke-width:0.5;" x1="7" x2="188.1025" y1="277.5938" y2="277.5938"/><text fill="#000000" font-family="sans-serif" font-size="14" lengthAdjust="spacing" textLength="161.1025" x="17" y="269.292">ImpartiendoAsignatura</text></g><g><rect fill="#F1F1F1" height="50" rx="12.5" ry="12.5" style="stroke:#181818;stroke-width:0.5;" width="213.6416" x="381.73" y="251.2969"/><line style="stroke:#181818;stroke-width:0.5;" x1="381.73" x2="595.3716" y1="277.5938" y2="277.5938"/><text fill="#000000" font-family="sans-serif" font-size="14" lengthAdjust="spacing" textLength="193.6416" x="391.73" y="269.292">PendienteRevisionDispensa</text></g><g><rect fill="#F1F1F1" height="50" rx="12.5" ry="12.5" style="stroke:#181818;stroke-width:0.5;" width="156.9238" x="437.09" y="378.2969"/><line style="stroke:#181818;stroke-width:0.5;" x1="437.09" x2="594.0138" y1="404.5938" y2="404.5938"/><text fill="#000000" font-family="sans-serif" font-size="14" lengthAdjust="spacing" textLength="136.9238" x="447.09" y="396.292">RevisandoDispensa</text></g><g><rect fill="#F1F1F1" height="50" rx="12.5" ry="12.5" style="stroke:#181818;stroke-width:0.5;" width="87.7168" x="339.69" y="505.2969"/><line style="stroke:#181818;stroke-width:0.5;" x1="339.69" x2="427.4068" y1="531.5938" y2="531.5938"/><text fill="#000000" font-family="sans-serif" font-size="14" lengthAdjust="spacing" textLength="67.7168" x="349.69" y="523.292">Aprobada</text></g><g><rect fill="#F1F1F1" height="50" rx="12.5" ry="12.5" style="stroke:#181818;stroke-width:0.5;" width="96.8838" x="497.11" y="505.2969"/><line style="stroke:#181818;stroke-width:0.5;" x1="497.11" x2="593.9938" y1="531.5938" y2="531.5938"/><text fill="#000000" font-family="sans-serif" font-size="14" lengthAdjust="spacing" textLength="76.8838" x="507.11" y="523.292">Rechazada</text></g><ellipse cx="463.55" cy="627.2969" fill="none" rx="11" ry="11" style="stroke:#222222;stroke-width:1;"/><ellipse cx="463.55" cy="627.2969" fill="#222222" rx="6" ry="6" style="stroke:#222222;stroke-width:1;"/><!--link *start* to Disponible--><g class="link" data-entity-1="ent0002" data-entity-2="ent0003" data-link-type="dependency" data-source-line="3" id="lnk4"><path d="M300.55,63.6569 C300.55,77.5869 300.55,98.2469 300.55,117.9469" fill="none" id="*start*-to-Disponible" style="stroke:#181818;stroke-width:1;"/><polygon fill="#181818" points="300.55,123.9469,304.55,114.9469,300.55,118.9469,296.55,114.9469,300.55,123.9469" style="stroke:#181818;stroke-width:1;"/></g><!--link Disponible to ImpartiendoAsignatura--><g class="link" data-entity-1="ent0003" data-entity-2="ent0005" data-link-type="dependency" data-source-line="5" id="lnk6"><path d="M253.38,167.8669 C230.59,177.2569 203.32,189.8569 180.55,204.2969 C159.41,217.7069 142.3947,232.0612 126.6147,246.8012" fill="none" id="Disponible-to-ImpartiendoAsignatura" style="stroke:#181818;stroke-width:1;"/><polygon fill="#181818" points="122.23,250.8969,131.5375,247.6765,125.8839,247.4838,126.0765,241.8302,122.23,250.8969" style="stroke:#181818;stroke-width:1;"/><text fill="#000000" font-family="sans-serif" font-size="13" lengthAdjust="spacing" textLength="92.5044" x="181.55" y="217.3638">iniciarSesion()</text></g><!--link ImpartiendoAsignatura to Disponible--><g class="link" data-entity-1="ent0005" data-entity-2="ent0003" data-link-type="dependency" data-source-line="6" id="lnk7"><path d="M61.94,250.8669 C46.04,236.9669 33.33,219.3769 45.55,204.2969 C71.23,172.6069 181.1899,159.2653 247.5499,153.8453" fill="none" id="ImpartiendoAsignatura-to-Disponible" style="stroke:#181818;stroke-width:1;"/><polygon fill="#181818" points="253.53,153.3569,244.2343,150.1028,248.5466,153.7639,244.8855,158.0762,253.53,153.3569" style="stroke:#181818;stroke-width:1;"/><text fill="#000000" font-family="sans-serif" font-size="13" lengthAdjust="spacing" textLength="104.7236" x="46.55" y="217.3638">finalizarSesion()</text></g><!--link Disponible to PendienteRevisionDispensa--><g class="link" data-entity-1="ent0003" data-entity-2="ent0008" data-link-type="dependency" data-source-line="9" id="lnk9"><path d="M337.25,174.6969 C370.37,196.7169 413.8531,225.6356 446.9531,247.6356" fill="none" id="Disponible-to-PendienteRevisionDispensa" style="stroke:#181818;stroke-width:1;"/><polygon fill="#181818" points="451.95,250.9569,446.6687,242.6437,447.7859,248.1892,442.2404,249.3063,451.95,250.9569" style="stroke:#181818;stroke-width:1;"/><text fill="#000000" font-family="sans-serif" font-size="13" lengthAdjust="spacing" textLength="166.8545" x="406.55" y="217.3638">recibirSolicitudDispensa()</text></g><!--link PendienteRevisionDispensa to RevisandoDispensa--><g class="link" data-entity-1="ent0008" data-entity-2="ent0010" data-link-type="dependency" data-source-line="12" id="lnk11"><path d="M493.82,301.6969 C498.58,323.7169 504.2737,350.092 509.0237,372.092" fill="none" id="PendienteRevisionDispensa-to-RevisandoDispensa" style="stroke:#181818;stroke-width:1;"/><polygon fill="#181818" points="510.29,377.9569,512.3005,368.3154,509.2348,373.0695,504.4807,370.0038,510.29,377.9569" style="stroke:#181818;stroke-width:1;"/><text fill="#000000" font-family="sans-serif" font-size="13" lengthAdjust="spacing" textLength="164.2139" x="504.55" y="344.3638">iniciarRevisionDispensa()</text></g><!--link RevisandoDispensa to Aprobada--><g class="link" data-entity-1="ent0010" data-entity-2="ent0012" data-link-type="dependency" data-source-line="14" id="lnk13"><path d="M436.68,428.3669 C422.24,435.9269 408.6,445.7069 398.55,458.2969 C388.1,471.3969 384.8938,484.0626 383.8138,498.9626" fill="none" id="RevisandoDispensa-to-Aprobada" style="stroke:#181818;stroke-width:1;"/><polygon fill="#181818" points="383.38,504.9469,388.0202,496.2596,383.7415,499.96,380.0411,495.6813,383.38,504.9469" style="stroke:#181818;stroke-width:1;"/><text fill="#000000" font-family="sans-serif" font-size="13" lengthAdjust="spacing" textLength="120.8467" x="399.55" y="471.3638">aprobarDispensa()</text></g><!--link RevisandoDispensa to Rechazada--><g class="link" data-entity-1="ent0010" data-entity-2="ent0014" data-link-type="dependency" data-source-line="15" id="lnk15"><path d="M521.41,428.6969 C526.69,450.7169 533.0298,477.1226 538.3098,499.1226" fill="none" id="RevisandoDispensa-to-Rechazada" style="stroke:#181818;stroke-width:1;"/><polygon fill="#181818" points="539.71,504.9569,541.4992,495.2719,538.5431,500.0949,533.7201,497.1389,539.71,504.9569" style="stroke:#181818;stroke-width:1;"/><text fill="#000000" font-family="sans-serif" font-size="13" lengthAdjust="spacing" textLength="126.5977" x="532.55" y="471.3638">rechazarDispensa()</text></g><!--link Aprobada to Disponible--><g class="link" data-entity-1="ent0012" data-entity-2="ent0003" data-link-type="dependency" data-source-line="17" id="lnk16"><path d="M372.14,505.0569 C356.64,470.9269 329.39,406.3669 316.55,348.2969 C302.96,286.8469 300.6566,218.3868 300.4266,180.6868" fill="none" id="Aprobada-to-Disponible" style="stroke:#181818;stroke-width:1;"/><polygon fill="#181818" points="300.39,174.6869,296.445,183.7111,300.4205,179.6868,304.4448,183.6623,300.39,174.6869" style="stroke:#181818;stroke-width:1;"/><text fill="#000000" font-family="sans-serif" font-size="13" lengthAdjust="spacing" textLength="173.0625" x="317.55" y="344.3638">notificarGestionDispensa()</text></g><!--link Rechazada to Disponible--><g class="link" data-entity-1="ent0014" data-entity-2="ent0003" data-link-type="dependency" data-source-line="18" id="lnk17"><path d="M594.31,520.2669 C620.39,512.7769 650.55,499.2969 667.55,475.2969 C753.09,354.5469 690.82,370.8669 677.55,331.2969 C655.05,264.2169 641.62,241.6869 581.55,204.2969 C543.17,180.4069 423.3011,163.8791 353.7511,155.9191" fill="none" id="Rechazada-to-Disponible" style="stroke:#181818;stroke-width:1;"/><polygon fill="#181818" points="347.79,155.2369,356.2768,160.2343,352.7576,155.8054,357.1865,152.2862,347.79,155.2369" style="stroke:#181818;stroke-width:1;"/><text fill="#000000" font-family="sans-serif" font-size="13" lengthAdjust="spacing" textLength="173.0625" x="688.55" y="344.3638">notificarGestionDispensa()</text></g><!--link Aprobada to *end*--><g class="link" data-entity-1="ent0012" data-entity-2="ent0018" data-link-type="dependency" data-source-line="20" id="lnk19"><path d="M404.15,555.7569 C421.56,576.4369 441.5637,600.1986 453.0237,613.7986" fill="none" id="Aprobada-to-*end*" style="stroke:#181818;stroke-width:1;"/><polygon fill="#181818" points="456.89,618.3869,454.1494,608.927,453.6681,614.5633,448.0318,614.082,456.89,618.3869" style="stroke:#181818;stroke-width:1;"/></g><!--link Rechazada to *end*--><g class="link" data-entity-1="ent0014" data-entity-2="ent0018" data-link-type="dependency" data-source-line="21" id="lnk20"><path d="M524.43,555.7569 C506.59,576.4369 486.0407,600.245 474.3007,613.845" fill="none" id="Rechazada-to-*end*" style="stroke:#181818;stroke-width:1;"/><polygon fill="#181818" points="470.38,618.3869,479.2889,614.1879,473.6472,614.602,473.2331,608.9603,470.38,618.3869" style="stroke:#181818;stroke-width:1;"/></g><!--SRC=[bPA_JWCn3CRtF8Kt_aXz0GQaYg8AYG6r8sBm9IvOIfF8oJ7qqLXvCPoxAxsxbe7DiltzlazE2XTFy9WBkfZ14QnOo9OeArgBzenvlNs3nU9U1pd5m8qdOqvrDthQ9vJ255nSPduFM5f1k0CER1bbIvbZkBunb_UcS9NjEA3dmqXehk0P8KUllD8wo0IQaXk2H181lxy2XDYtFpdZFE2BMgfjeKqTAxFEAUGQiWEnR8_muwYtVMXHqm9vSCDXz4YMzL2qJwGP0GTFCN-xr0nTiy96tiE1vllL-dozGfP9OeEkQh4hPQIvBDcG_S13hv6-7elCB_Bi7K8il6EBigPSfl5EqF-efbxwiMOSxVm0]--></g></svg>