<svg xmlns="http://www.w3.org/2000/svg" xmlns:xlink="http://www.w3.org/1999/xlink" contentStyleType="text/css" data-diagram-type="STATE" height="279px" preserveAspectRatio="none" style="width:185px;height:279px;background:#FFFFFF;" version="1.1" viewBox="0 0 185 279" width="185px" zoomAndPan="magnify"><title>Estado de Alumno</title><defs/><g><g class="title" data-source-line="1"><text fill="#000000" font-family="sans-serif" font-size="14" font-weight="bold" lengthAdjust="spacing" textLength="142.7139" x="14.4086" y="22.9951">Estado de Alumno</text></g><ellipse cx="53.78" cy="53.2969" fill="#222222" rx="10" ry="10" style="stroke:#222222;stroke-width:1;"/><g><rect fill="#F1F1F1" height="50" rx="12.5" ry="12.5" style="stroke:#181818;stroke-width:0.5;" width="93.5684" x="7" y="140.2969"/><line style="stroke:#181818;stroke-width:0.5;" x1="7" x2="100.5684" y1="166.5938" y2="166.5938"/><text fill="#000000" font-family="sans-serif" font-size="14" lengthAdjust="spacing" textLength="73.5684" x="17" y="158.292">Disponible</text></g><ellipse cx="53.78" cy="262.2969" fill="none" rx="11" ry="11" style="stroke:#222222;stroke-width:1;"/><ellipse cx="53.78" cy="262.2969" fill="#222222" rx="6" ry="6" style="stroke:#222222;stroke-width:1;"/><!--link *start* to Disponible--><g class="link" data-entity-1="ent0002" data-entity-2="ent0003" data-link-type="dependency" data-source-line="3" id="lnk4"><path d="M53.78,63.6769 C53.78,80.4069 53.78,109.8869 53.78,133.9269" fill="none" id="*start*-to-Disponible" style="stroke:#181818;stroke-width:1;"/><polygon fill="#181818" points="53.78,139.9269,57.78,130.9269,53.78,134.9269,49.78,130.9269,53.78,139.9269" style="stroke:#181818;stroke-width:1;"/><text fill="#000000" font-family="sans-serif" font-size="13" lengthAdjust="spacing" textLength="122.751" x="54.78" y="106.3638">importarAlumnos()</text></g><!--link Disponible to *end*--><g class="link" data-entity-1="ent0003" data-entity-2="ent0005" data-link-type="dependency" data-source-line="5" id="lnk6"><path d="M53.78,190.7569 C53.78,210.3369 53.78,230.7869 53.78,245.0969" fill="none" id="Disponible-to-*end*" style="stroke:#181818;stroke-width:1;"/><polygon fill="#181818" points="53.78,251.0969,57.78,242.0969,53.78,246.0969,49.78,242.0969,53.78,251.0969" style="stroke:#181818;stroke-width:1;"/></g><!--SRC=[AyaioKbLS2qkIKp9LqX9LN3CAStDo-VYYjQALT3LjLDmoImkoC_BJ08gibB8p2t8Bof9B88eAjRGvE92aWSf1se30000]--></g></svg>