<?xml version="1.0" encoding="us-ascii" standalone="no"?><svg xmlns="http://www.w3.org/2000/svg" xmlns:xlink="http://www.w3.org/1999/xlink" contentStyleType="text/css" height="385px" preserveAspectRatio="none" style="width:1444px;height:385px;background:#FFFFFF;" version="1.1" viewBox="0 0 1444 385" width="1444px" zoomAndPan="magnify"><defs/><g><!--cluster Generaci?n de Ex?menes--><g id="cluster_Generaci&#243;n de Ex&#225;menes"><path d="M124.5,6 L305.5,6 A3.75,3.75 0 0 1 308,8.5 L315,29.6094 L1434.5,29.6094 A2.5,2.5 0 0 1 1437,32.1094 L1437,196.5 A2.5,2.5 0 0 1 1434.5,199 L124.5,199 A2.5,2.5 0 0 1 122,196.5 L122,8.5 A2.5,2.5 0 0 1 124.5,6 " fill="none" style="stroke:#000000;stroke-width:1.5;"/><line style="stroke:#000000;stroke-width:1.5;" x1="122" x2="315" y1="29.6094" y2="29.6094"/><text fill="#000000" font-family="sans-serif" font-size="14" font-weight="bold" lengthAdjust="spacing" textLength="180" x="126" y="22.5332">Generaci&#243;n de Ex&#225;menes</text></g><g id="elem_ProcesarGeneracion"><ellipse cx="261.3414" cy="69.0683" fill="#F1F1F1" rx="123.3414" ry="27.0683" style="stroke:#181818;stroke-width:0.5;"/><text fill="#000000" font-family="sans-serif" font-size="14" lengthAdjust="spacing" textLength="212" x="155.3414" y="72.7968">Procesar Solicitud de Generaci&#243;n</text></g><g id="elem_GenerarFechas"><ellipse cx="616.5541" cy="147.8108" fill="#F1F1F1" rx="114.5541" ry="25.3108" style="stroke:#181818;stroke-width:0.5;"/><text fill="#000000" font-family="sans-serif" font-size="14" lengthAdjust="spacing" textLength="193" x="520.0541" y="151.5393">Generar Fechas de Ex&#225;menes</text></g><g id="elem_RevisarConflictos"><ellipse cx="952.5397" cy="147.8079" fill="#F1F1F1" rx="104.5397" ry="23.3079" style="stroke:#181818;stroke-width:0.5;"/><text fill="#000000" font-family="sans-serif" font-size="14" lengthAdjust="spacing" textLength="171" x="867.0397" y="151.5365">Revisar Posibles Conflictos</text></g><g id="elem_AplicarCorrecciones"><ellipse cx="261.665" cy="157.233" fill="#F1F1F1" rx="119.165" ry="26.233" style="stroke:#181818;stroke-width:0.5;"/><text fill="#000000" font-family="sans-serif" font-size="14" lengthAdjust="spacing" textLength="203" x="160.165" y="160.9615">Aplicar Correcciones Solicitadas</text></g><g id="elem_FinalizarAsignacion"><ellipse cx="1296.7387" cy="151.8477" fill="#F1F1F1" rx="124.7387" ry="27.3477" style="stroke:#181818;stroke-width:0.5;"/><text fill="#000000" font-family="sans-serif" font-size="14" lengthAdjust="spacing" textLength="215" x="1189.2387" y="155.5763">Finalizar Asignaci&#243;n de Ex&#225;menes</text></g><!--entity Generador--><g id="elem_Generador"><ellipse cx="40.5" cy="205.5" fill="#F1F1F1" rx="8" ry="8" style="stroke:#181818;stroke-width:0.5;"/><path d="M40.5,213.5 L40.5,240.5 M27.5,221.5 L53.5,221.5 M40.5,240.5 L27.5,255.5 M40.5,240.5 L53.5,255.5 " fill="none" style="stroke:#181818;stroke-width:0.5;"/><text fill="#000000" font-family="sans-serif" font-size="14" lengthAdjust="spacing" textLength="69" x="6" y="271.5332">Generador</text></g><!--link Generador to ProcesarGeneracion--><g id="link_Generador_ProcesarGeneracion"><path d="M55.6,196.89 C67.3,169.69 86.5,134.57 114,113 C129.05,101.2 141.548,94.5166 159.898,88.1866 " fill="none" id="Generador-to-ProcesarGeneracion" style="stroke:#181818;stroke-width:1.0;"/><polygon fill="#181818" points="165.57,86.23,155.7576,85.3836,160.8433,87.8605,158.3664,92.9463,165.57,86.23" style="stroke:#181818;stroke-width:1.0;"/></g><!--link Generador to GenerarFechas--><g id="link_Generador_GenerarFechas"><path d="M75.32,233.78 C137.11,229.43 272.29,218.55 385,200 C437.52,191.35 490.1807,179.531 535.1007,168.581 " fill="none" id="Generador-to-GenerarFechas" style="stroke:#181818;stroke-width:1.0;"/><polygon fill="#181818" points="540.93,167.16,531.2387,165.4053,536.0722,168.3442,533.1334,173.1777,540.93,167.16" style="stroke:#181818;stroke-width:1.0;"/></g><!--link Generador to RevisarConflictos--><g id="link_Generador_RevisarConflictos"><path d="M75.29,238.91 C85.18,239.54 96.01,240.02 106,240 C230,239.78 261.31,247.76 385,239 C539.86,228.03 577.86,216.53 731,191 C779.19,182.97 827.1194,173.6911 869.5294,165.1011 " fill="none" id="Generador-to-RevisarConflictos" style="stroke:#181818;stroke-width:1.0;"/><polygon fill="#181818" points="875.41,163.91,865.7951,161.7762,870.5095,164.9026,867.3832,169.617,875.41,163.91" style="stroke:#181818;stroke-width:1.0;"/></g><!--link Generador to AplicarCorrecciones--><g id="link_Generador_AplicarCorrecciones"><path d="M75.29,221.72 C84.85,217.8 95.3,213.64 105,210 C134.11,199.09 160.9306,189.7654 188.6706,180.4754 " fill="none" id="Generador-to-AplicarCorrecciones" style="stroke:#181818;stroke-width:1.0;"/><polygon fill="#181818" points="194.36,178.57,184.5556,177.6351,189.6188,180.1578,187.0961,185.221,194.36,178.57" style="stroke:#181818;stroke-width:1.0;"/></g><!--link Generador to FinalizarAsignacion--><g id="link_Generador_FinalizarAsignacion"><path d="M74.71,275.18 C114.27,317.21 184.6,378 260.5,378 C260.5,378 260.5,378 953.5,378 C1096.19,378 1221.3592,244.0126 1270.5692,183.9026 " fill="none" id="Generador-to-FinalizarAsignacion" style="stroke:#181818;stroke-width:1.0;"/><polygon fill="#181818" points="1274.37,179.26,1265.5737,183.6901,1271.2027,183.1289,1271.7639,188.7578,1274.37,179.26" style="stroke:#181818;stroke-width:1.0;"/></g><!--link ProcesarGeneracion to GenerarFechas--><g id="link_ProcesarGeneracion_GenerarFechas"><path d="M348.4,88.22 C405.24,100.94 473.4149,116.1994 529.1249,128.6694 " fill="none" id="ProcesarGeneracion-to-GenerarFechas" style="stroke:#181818;stroke-width:1.0;"/><polygon fill="#181818" points="534.98,129.98,527.0711,124.1107,530.1007,128.8878,525.3236,131.9175,534.98,129.98" style="stroke:#181818;stroke-width:1.0;"/><text fill="#000000" font-family="sans-serif" font-size="13" lengthAdjust="spacing" textLength="55" x="416" y="100.4951">&#171;include&#187;</text></g><!--link GenerarFechas to RevisarConflictos--><g id="link_GenerarFechas_RevisarConflictos"><path d="M731.04,148 C768.87,148 804.78,148 841.82,148 " fill="none" id="GenerarFechas-to-RevisarConflictos" style="stroke:#181818;stroke-width:1.0;"/><polygon fill="#181818" points="847.82,148,838.82,144,842.82,148,838.82,152,847.82,148" style="stroke:#181818;stroke-width:1.0;"/><text fill="#000000" font-family="sans-serif" font-size="13" lengthAdjust="spacing" textLength="55" x="762" y="144.4951">&#171;include&#187;</text></g><!--link RevisarConflictos to FinalizarAsignacion--><g id="link_RevisarConflictos_FinalizarAsignacion"><path d="M1057.04,149.21 C1093.31,149.64 1128.4104,150.05 1166.1404,150.49 " fill="none" id="RevisarConflictos-to-FinalizarAsignacion" style="stroke:#181818;stroke-width:1.0;"/><polygon fill="#181818" points="1172.14,150.56,1163.1873,146.4553,1167.1403,150.5017,1163.094,154.4548,1172.14,150.56" style="stroke:#181818;stroke-width:1.0;"/><text fill="#000000" font-family="sans-serif" font-size="13" lengthAdjust="spacing" textLength="53" x="1088" y="146.4951">&#171;extend&#187;</text></g><!--link AplicarCorrecciones to GenerarFechas--><g id="link_AplicarCorrecciones_GenerarFechas"><path d="M380.04,154 C419.55,153 457.5219,152.0217 496.6619,151.0317 " fill="none" id="AplicarCorrecciones-to-GenerarFechas" style="stroke:#181818;stroke-width:1.0;"/><polygon fill="#181818" points="502.66,150.88,493.5617,147.1089,497.6616,151.0064,493.764,155.1063,502.66,150.88" style="stroke:#181818;stroke-width:1.0;"/><text fill="#000000" font-family="sans-serif" font-size="13" lengthAdjust="spacing" textLength="53" x="417" y="148.4951">&#171;extend&#187;</text></g><!--SRC=[TL5BRi8m4Dtx5AFikK258Y5KkaNj2Lnx2AEwDh8TX8euJC_G8t2nJiYdJ6EoyxpFl7bnkCkG0qHgzXaiHJIPWbTAcnmYL2_eCMeROWKwmVHIwg3DXsvmP1Yw_dYm2C-dw_SdZr85PmNyjGcDJapSnc0mwGXlmP6XtDgEVoU_hHXPuvop29T-7c63PizqkN6A67jOIb_nIDt-RKZqxZ31ElWTHycXbmxutrJALmUUidmT8hVK9MEBuHPjTUynaEuvqcL3NZlwOfzLeiONYsEVYJQok8UBKjCFWCMYBdKb2R8CYSslbNZf4iaePLJpJFCay0JB9NdZMejrhIHMpFPFCSSVvBdfy9JHMvOLJdeGRfBy0W00]--></g></svg>