<?xml version="1.0" encoding="us-ascii" standalone="no"?><svg xmlns="http://www.w3.org/2000/svg" xmlns:xlink="http://www.w3.org/1999/xlink" contentStyleType="text/css" height="204px" preserveAspectRatio="none" style="width:816px;height:204px;background:#FFFFFF;" version="1.1" viewBox="0 0 816 204" width="816px" zoomAndPan="magnify"><defs/><g><!--cluster Consultas de Ex?menes--><g id="cluster_Consultas de Ex&#225;menes"><path d="M109.5,6 L278.5,6 A3.75,3.75 0 0 1 281,8.5 L288,29.6094 L383.5,29.6094 A2.5,2.5 0 0 1 386,32.1094 L386,194.5 A2.5,2.5 0 0 1 383.5,197 L109.5,197 A2.5,2.5 0 0 1 107,194.5 L107,8.5 A2.5,2.5 0 0 1 109.5,6 " fill="none" style="stroke:#000000;stroke-width:1.5;"/><line style="stroke:#000000;stroke-width:1.5;" x1="107" x2="288" y1="29.6094" y2="29.6094"/><text fill="#000000" font-family="sans-serif" font-size="14" font-weight="bold" lengthAdjust="spacing" textLength="168" x="111" y="22.5332">Consultas de Ex&#225;menes</text></g><g id="elem_ComunicarIncidencias"><ellipse cx="246.3414" cy="69.0683" fill="#F1F1F1" rx="123.3414" ry="27.0683" style="stroke:#181818;stroke-width:0.5;"/><text fill="#000000" font-family="sans-serif" font-size="14" lengthAdjust="spacing" textLength="212" x="140.3414" y="72.7968">Comunicar Incidencias de Horario</text></g><g id="elem_VerCalendario"><ellipse cx="246.434" cy="155.9868" fill="#F1F1F1" rx="110.434" ry="24.4868" style="stroke:#181818;stroke-width:0.5;"/><text fill="#000000" font-family="sans-serif" font-size="14" lengthAdjust="spacing" textLength="184" x="154.434" y="159.7153">Ver Calendario de Ex&#225;menes</text></g><!--entity Profesor--><g id="elem_Profesor"><ellipse cx="33" cy="82.5" fill="#F1F1F1" rx="8" ry="8" style="stroke:#181818;stroke-width:0.5;"/><path d="M33,90.5 L33,117.5 M20,98.5 L46,98.5 M33,117.5 L20,132.5 M33,117.5 L46,132.5 " fill="none" style="stroke:#181818;stroke-width:0.5;"/><text fill="#000000" font-family="sans-serif" font-size="14" lengthAdjust="spacing" textLength="54" x="6" y="148.5332">Profesor</text></g><g id="elem_DescargarCalendario"><ellipse cx="679.8204" cy="156.0641" fill="#F1F1F1" rx="130.8204" ry="28.5641" style="stroke:#181818;stroke-width:0.5;"/><text fill="#000000" font-family="sans-serif" font-size="14" lengthAdjust="spacing" textLength="228" x="565.8204" y="159.7926">Descargar Calendario de Ex&#225;menes</text></g><!--link Profesor to ComunicarIncidencias--><g id="link_Profesor_ComunicarIncidencias"><path d="M60.36,107.52 C84.5,102.49 115.7758,95.9922 150.4758,88.7722 " fill="none" id="Profesor-to-ComunicarIncidencias" style="stroke:#181818;stroke-width:1.0;"/><polygon fill="#181818" points="156.35,87.55,146.7239,85.4672,151.4548,88.5685,148.3535,93.2995,156.35,87.55" style="stroke:#181818;stroke-width:1.0;"/></g><!--link Profesor to VerCalendario--><g id="link_Profesor_VerCalendario"><path d="M60.36,118.36 C86.38,123.65 121.6403,130.8146 158.5303,138.3146 " fill="none" id="Profesor-to-VerCalendario" style="stroke:#181818;stroke-width:1.0;"/><polygon fill="#181818" points="164.41,139.51,156.3874,133.7971,159.5102,138.5138,154.7935,141.6367,164.41,139.51" style="stroke:#181818;stroke-width:1.0;"/></g><!--link VerCalendario to DescargarCalendario--><!--link DescargarCalendario to VerCalendario--><g id="link_DescargarCalendario_VerCalendario"><path d="M573.35,139.4 C555.26,137.15 536.62,135.21 519,134 C467.12,130.45 453.87,130.33 402,134 C380.24,135.54 362.8324,137.4609 341.0424,140.5009 " fill="none" id="DescargarCalendario-to-VerCalendario" style="stroke:#181818;stroke-width:1.0;stroke-dasharray:7.0,7.0;"/><polygon fill="#181818" points="335.1,141.33,344.5664,144.0481,340.052,140.6391,343.461,136.1248,335.1,141.33" style="stroke:#181818;stroke-width:1.0;"/><text fill="#000000" font-family="sans-serif" font-size="13" lengthAdjust="spacing" textLength="53" x="434" y="128.4951">&#171;extend&#187;</text></g><!--SRC=[VO_1gi8m44NtynMNxki7Y7IZmdFtLcx4nP2CDRoQF2Of5CIFyLlyCQDYjLASnS3Dd7jdqiWk8GMeg_S9rgcOv88dOfE2ubV3Jc9GedysVrmBYddmiMqIHrZ1ihkS3-8b5ZWIShLH3CSxTcYzCwnOUUEivFQm_0HbTQ50bZtqnWnZrgAOSoFUtamVAtD2dh_6T2BgdGk9ERZcx_wUUakXvwzHbjNuZGDYUCD0eTpidSskxGqSNJRoYCda8nLJp6RIfIohYgu0]--></g></svg>