<svg xmlns="http://www.w3.org/2000/svg" xmlns:xlink="http://www.w3.org/1999/xlink" contentStyleType="text/css" data-diagram-type="STATE" height="517px" preserveAspectRatio="none" style="width:712px;height:517px;background:#FFFFFF;" version="1.1" viewBox="0 0 712 517" width="712px" zoomAndPan="magnify"><title>Estados de SesionDeClase</title><defs/><g><g class="title" data-source-line="1"><text fill="#000000" font-family="sans-serif" font-size="14" font-weight="bold" lengthAdjust="spacing" textLength="207.0332" x="245.7497" y="22.9951">Estados de SesionDeClase</text></g><ellipse cx="505.14" cy="53.2969" fill="#222222" rx="10" ry="10" style="stroke:#222222;stroke-width:1;"/><g><rect fill="#F1F1F1" height="50" rx="12.5" ry="12.5" style="stroke:#181818;stroke-width:0.5;" width="105.668" x="452.31" y="124.2969"/><line style="stroke:#181818;stroke-width:0.5;" x1="452.31" x2="557.978" y1="150.5938" y2="150.5938"/><text fill="#000000" font-family="sans-serif" font-size="14" lengthAdjust="spacing" textLength="85.668" x="462.31" y="142.292">Programada</text></g><g><rect fill="#F1F1F1" height="50" rx="12.5" ry="12.5" style="stroke:#181818;stroke-width:0.5;" width="77.9824" x="327.15" y="251.2969"/><line style="stroke:#181818;stroke-width:0.5;" x1="327.15" x2="405.1324" y1="277.5938" y2="277.5938"/><text fill="#000000" font-family="sans-serif" font-size="14" lengthAdjust="spacing" textLength="57.9824" x="337.15" y="269.292">EnCurso</text></g><g><rect fill="#F1F1F1" height="50" rx="12.5" ry="12.5" style="stroke:#181818;stroke-width:0.5;" width="93.4727" x="465.41" y="378.2969"/><line style="stroke:#181818;stroke-width:0.5;" x1="465.41" x2="558.8827" y1="404.5938" y2="404.5938"/><text fill="#000000" font-family="sans-serif" font-size="14" lengthAdjust="spacing" textLength="73.4727" x="475.41" y="396.292">Cancelada</text></g><g><rect fill="#F1F1F1" height="50" rx="12.5" ry="12.5" style="stroke:#181818;stroke-width:0.5;" width="156.8555" x="32.72" y="378.2969"/><line style="stroke:#181818;stroke-width:0.5;" x1="32.72" x2="189.5755" y1="404.5938" y2="404.5938"/><text fill="#000000" font-family="sans-serif" font-size="14" lengthAdjust="spacing" textLength="136.8555" x="42.72" y="396.292">TomandoAsistencia</text></g><g><rect fill="#F1F1F1" height="50" rx="12.5" ry="12.5" style="stroke:#181818;stroke-width:0.5;" width="90.5674" x="329.86" y="378.2969"/><line style="stroke:#181818;stroke-width:0.5;" x1="329.86" x2="420.4274" y1="404.5938" y2="404.5938"/><text fill="#000000" font-family="sans-serif" font-size="14" lengthAdjust="spacing" textLength="70.5674" x="339.86" y="396.292">Finalizada</text></g><ellipse cx="447.14" cy="500.2969" fill="none" rx="11" ry="11" style="stroke:#222222;stroke-width:1;"/><ellipse cx="447.14" cy="500.2969" fill="#222222" rx="6" ry="6" style="stroke:#222222;stroke-width:1;"/><!--link *start* to Programada--><g class="link" data-entity-1="ent0002" data-entity-2="ent0003" data-link-type="dependency" data-source-line="3" id="lnk4"><path d="M505.14,63.6569 C505.14,77.5869 505.14,98.2469 505.14,117.9469" fill="none" id="*start*-to-Programada" style="stroke:#181818;stroke-width:1;"/><polygon fill="#181818" points="505.14,123.9469,509.14,114.9469,505.14,118.9469,501.14,114.9469,505.14,123.9469" style="stroke:#181818;stroke-width:1;"/></g><!--link Programada to EnCurso--><g class="link" data-entity-1="ent0003" data-entity-2="ent0005" data-link-type="dependency" data-source-line="5" id="lnk6"><path d="M478.01,174.6969 C453.52,196.7169 422.1418,224.9454 397.6718,246.9454" fill="none" id="Programada-to-EnCurso" style="stroke:#181818;stroke-width:1;"/><polygon fill="#181818" points="393.21,250.9569,402.5771,247.9142,396.9282,247.614,397.2285,241.9651,393.21,250.9569" style="stroke:#181818;stroke-width:1;"/><text fill="#000000" font-family="sans-serif" font-size="13" lengthAdjust="spacing" textLength="92.5044" x="444.14" y="217.3638">iniciarSesion()</text></g><!--link Programada to Cancelada--><g class="link" data-entity-1="ent0003" data-entity-2="ent0007" data-link-type="dependency" data-source-line="6" id="lnk8"><path d="M524.71,174.7769 C549.71,207.9269 591.39,269.9969 605.14,331.2969 C606.8,338.6669 608.91,341.7469 605.14,348.2969 C595.08,365.7669 582.3707,375.5238 564.7807,383.9538" fill="none" id="Programada-to-Cancelada" style="stroke:#181818;stroke-width:1;"/><polygon fill="#181818" points="559.37,386.5469,569.2148,386.2644,563.8789,384.386,565.7574,379.0501,559.37,386.5469" style="stroke:#181818;stroke-width:1;"/><text fill="#000000" font-family="sans-serif" font-size="13" lengthAdjust="spacing" textLength="108.3926" x="596.14" y="280.8638">cancelarSesion()</text></g><!--link EnCurso to TomandoAsistencia--><g class="link" data-entity-1="ent0005" data-entity-2="ent0009" data-link-type="dependency" data-source-line="8" id="lnk10"><path d="M326.74,277.3369 C244.74,278.3469 60.11,285.7469 21.14,331.2969 C6,348.9869 18.208,362.5094 41.678,375.0494" fill="none" id="EnCurso-to-TomandoAsistencia" style="stroke:#181818;stroke-width:1;"/><polygon fill="#181818" points="46.97,377.8769,40.917,370.1076,42.56,375.5206,37.147,377.1636,46.97,377.8769" style="stroke:#181818;stroke-width:1;"/><text fill="#000000" font-family="sans-serif" font-size="13" lengthAdjust="spacing" textLength="131.9868" x="22.14" y="344.3638">registrarAsistencia()</text></g><!--link TomandoAsistencia to EnCurso--><g class="link" data-entity-1="ent0009" data-entity-2="ent0005" data-link-type="dependency" data-source-line="9" id="lnk11"><path d="M146.33,377.9369 C168.36,363.3069 197.69,344.9469 225.14,331.2969 C258.36,314.7869 292.2567,301.9798 321.0167,292.0798" fill="none" id="TomandoAsistencia-to-EnCurso" style="stroke:#181818;stroke-width:1;"/><polygon fill="#181818" points="326.69,290.1269,316.8781,289.274,321.9623,291.7543,319.482,296.8384,326.69,290.1269" style="stroke:#181818;stroke-width:1;"/><text fill="#000000" font-family="sans-serif" font-size="13" lengthAdjust="spacing" textLength="127.6196" x="226.14" y="344.3638">guardarAsistencia()</text></g><!--link EnCurso to Finalizada--><g class="link" data-entity-1="ent0005" data-entity-2="ent0012" data-link-type="dependency" data-source-line="11" id="lnk13"><path d="M363.3,301.6769 C362.15,315.4069 361.45,332.8469 363.14,348.2969 C364.22,358.1269 365.0022,362.9472 367.1822,372.1872" fill="none" id="EnCurso-to-Finalizada" style="stroke:#181818;stroke-width:1;"/><polygon fill="#181818" points="368.56,378.0269,370.3865,368.3489,367.4119,373.1605,362.6002,370.1859,368.56,378.0269" style="stroke:#181818;stroke-width:1;"/><text fill="#000000" font-family="sans-serif" font-size="13" lengthAdjust="spacing" textLength="104.7236" x="364.14" y="344.3638">finalizarSesion()</text></g><!--link EnCurso to Cancelada--><g class="link" data-entity-1="ent0005" data-entity-2="ent0007" data-link-type="dependency" data-source-line="12" id="lnk14"><path d="M405.53,290.5269 C427.44,299.3969 454.06,312.8669 473.14,331.2969 C486.6,344.2869 494.2049,357.4456 500.7049,372.3756" fill="none" id="EnCurso-to-Cancelada" style="stroke:#181818;stroke-width:1;"/><polygon fill="#181818" points="503.1,377.8769,503.1749,368.0283,501.1041,373.2925,495.8399,371.2217,503.1,377.8769" style="stroke:#181818;stroke-width:1;"/><text fill="#000000" font-family="sans-serif" font-size="13" lengthAdjust="spacing" textLength="108.3926" x="488.14" y="344.3638">cancelarSesion()</text></g><!--link Finalizada to *end*--><g class="link" data-entity-1="ent0012" data-entity-2="ent0015" data-link-type="dependency" data-source-line="14" id="lnk16"><path d="M393.68,428.7569 C409.18,449.2169 426.7573,472.394 437.1873,486.164" fill="none" id="Finalizada-to-*end*" style="stroke:#181818;stroke-width:1;"/><polygon fill="#181818" points="440.81,490.9469,438.5645,481.3574,437.791,486.9612,432.1873,486.1878,440.81,490.9469" style="stroke:#181818;stroke-width:1;"/></g><!--link Cancelada to *end*--><g class="link" data-entity-1="ent0007" data-entity-2="ent0015" data-link-type="dependency" data-source-line="15" id="lnk17"><path d="M495.4,428.7569 C481.41,449.2169 465.6553,472.2231 456.2453,485.9931" fill="none" id="Cancelada-to-*end*" style="stroke:#181818;stroke-width:1;"/><polygon fill="#181818" points="452.86,490.9469,461.2404,485.773,455.6811,486.8187,454.6354,481.2594,452.86,490.9469" style="stroke:#181818;stroke-width:1;"/></g><!--SRC=[VP112y8m38Nl_HKvgh0_i8CWSvu5TnCFOOqZqAMGTXT_lPsRT9lWBI_ztikZaQCZg4D4wmDOWXi5zdAcoc4WO-w71nJ54QxgEyKUBHgJvyzJBTMWmKC9BDmowXInss_12gKbDweIscdEhFd6Z6JZUnJhJu5394cPoQ7K9QMeUPjil-IwKZUWserdTUh2WevVKwldB7Aj9Vg__o9eXDF7cMoODsy0]--></g></svg>